<?xml version="1.0" standalone="no"?>
<!DOCTYPE svg PUBLIC "-//W3C//DTD SVG 1.1//EN" "http://www.w3.org/Graphics/SVG/1.1/DTD/svg11.dtd" >
<svg xmlns="http://www.w3.org/2000/svg">
<metadata>Generated by IcoMoon</metadata>
<defs>
<font id="hicons-solid" horiz-adv-x="1024">
<font-face units-per-em="1024" ascent="960" descent="-64" />
<missing-glyph horiz-adv-x="1024" />
<glyph unicode="&#x20;" horiz-adv-x="512" d="" />
<glyph unicode="&#xe900;" glyph-name="abacus" horiz-adv-x="1152" d="M1056 896h-960c-53.020 0-96-42.98-96-96v-704c0-53.020 42.98-96 96-96h960c53.020 0 96 42.98 96 96v704c0 53.020-42.98 96-96 96zM256 432h-32c-17.672 0-32-14.328-32-32v-32c0-17.672 14.328-32 32-32h32v-48h-32c-17.672 0-32-14.328-32-32v-32c0-17.672 14.328-32 32-32h32v-64h-128v352h128v-48zM256 704h-32c-17.672 0-32-14.328-32-32v-32c0-17.672 14.328-32 32-32h32v-64h-128v224h128v-64zM512 432h-32c-17.672 0-32-14.328-32-32v-32c0-17.672 14.328-32 32-32h32v-48h-32c-17.672 0-32-14.328-32-32v-32c0-17.672 14.328-32 32-32h32v-64h-192v64h32c17.672 0 32 14.328 32 32v32c0 17.672-14.328 32-32 32h-32v48h32c17.672 0 32 14.328 32 32v32c0 17.672-14.328 32-32 32h-32v48h192v-48zM512 704h-32c-17.672 0-32-14.328-32-32v-32c0-17.672 14.328-32 32-32h32v-64h-192v64h32c17.672 0 32 14.328 32 32v32c0 17.672-14.328 32-32 32h-32v64h192v-64zM832 288h-32c-17.672 0-32-14.328-32-32v-32c0-17.672 14.328-32 32-32h32v-64h-256v64h32c17.672 0 32 14.328 32 32v32c0 17.672-14.328 32-32 32h-32v48h32c17.672 0 32 14.328 32 32v32c0 17.672-14.328 32-32 32h-32v48h256v-192zM832 704h-32c-17.672 0-32-14.328-32-32v-32c0-17.672 14.328-32 32-32h32v-64h-256v64h32c17.672 0 32 14.328 32 32v32c0 17.672-14.328 32-32 32h-32v64h256v-64zM1024 128h-128v64h32c17.672 0 32 14.328 32 32v32c0 17.672-14.328 32-32 32h-32v192h128v-352zM1024 544h-128v64h32c17.672 0 32 14.328 32 32v32c0 17.672-14.328 32-32 32h-32v64h128v-224z" />
<glyph unicode="&#xe901;" glyph-name="acorn" horiz-adv-x="896" d="M0 639.938c0 0.012 0.004 0.026 0.004 0.038 0 0.008-0.004 0.012-0.004 0.020v-0.058zM448 0c94.094 45.734 352 164.254 352 512h-704c0-347.746 257.906-466.266 352-512zM895.996 639.976c0-0.012 0.004-0.026 0.004-0.038v0.058c0-0.008-0.004-0.012-0.004-0.020zM704 831.922h-201c6.75 18.746 17 36.246 30.25 51.996 11.25 12.996 10.75 31.996-1.25 43.746l-22.5 22.746c-6.25 6.25-15.5 10.25-24 9.5-8.75-0.5-17-4.25-22.75-10.75-29.5-33.496-49-73.992-58.75-117.238h-212c-105.988 0-191.972-85.964-191.996-191.946 0.008-35.234 28.754-63.976 63.996-63.976h768c35.242 0 63.988 28.742 63.996 63.976-0.024 105.982-86.008 191.946-191.996 191.946z" />
<glyph unicode="&#xe902;" glyph-name="address-book" d="M768 960h-576c-70.692 0-128-57.308-128-128v-768c0-70.692 57.308-128 128-128h576c70.692 0 128 57.308 128 128v768c0 70.692-57.308 128-128 128zM480 704c70.696 0 128-57.308 128-128s-57.304-128-128-128c-70.688 0-128 57.308-128 128s57.312 128 128 128zM672 192h-384c-17.672 0-32 14.328-32 32 0 88.368 71.64 160 160 160h128c88.368 0 160-71.632 160-160 0-17.672-14.328-32-32-32zM992 832h-32v-192h32c17.672 0 32 14.328 32 32v128c0 17.672-14.328 32-32 32zM992 576h-32v-192h32c17.672 0 32 14.328 32 32v128c0 17.672-14.328 32-32 32zM992 320h-32v-192h32c17.672 0 32 14.328 32 32v128c0 17.672-14.328 32-32 32z" />
<glyph unicode="&#xe903;" glyph-name="address-card" horiz-adv-x="1152" d="M1024 896h-896c-70.692 0-128-57.308-128-128v-640c0-70.692 57.308-128 128-128h896c70.692 0 128 57.308 128 128v640c0 70.692-57.308 128-128 128zM352 704c70.692 0 128-57.308 128-128s-57.308-128-128-128-128 57.308-128 128 57.308 128 128 128zM544 192h-384c-17.672 0-32 14.328-32 32 0 88.368 71.632 160 160 160h128c88.368 0 160-71.632 160-160 0-17.672-14.328-32-32-32zM992 320h-256c-17.672 0-32 14.328-32 32s14.328 32 32 32h256c17.672 0 32-14.328 32-32s-14.328-32-32-32zM992 448h-256c-17.672 0-32 14.328-32 32s14.328 32 32 32h256c17.672 0 32-14.328 32-32s-14.328-32-32-32zM992 576h-256c-17.672 0-32 14.328-32 32s14.328 32 32 32h256c17.672 0 32-14.328 32-32s-14.328-32-32-32z" />
<glyph unicode="&#xe904;" glyph-name="air-conditioner" horiz-adv-x="1152" d="M1056 960h-960c-52.8 0-96-43.204-96-96v-256c0-52.796 43.2-96 96-96h960c52.8 0 96 43.204 96 96v256c0 52.796-43.2 96-96 96zM1024 640h-896v64h896v-64zM416 112c0-44.124-35.876-80-80-80s-80 35.876-80 80c0 32.75 19.624 61.876 50.032 74.188 24.562 9.936 36.406 37.936 26.468 62.5-9.968 24.562-37.844 36.312-62.532 26.5-66.812-27.064-109.968-91.126-109.968-163.188 0-97.062 78.938-176 176-176s176 78.938 176 176v336h-96v-336zM882.032 339.188c-24.688 9.812-52.564-1.938-62.532-26.5-9.938-24.564 1.906-52.564 26.468-62.5 30.408-12.312 50.032-41.438 50.032-74.188 0-44.124-35.876-80-80-80s-80 35.876-80 80v272h-96v-272c0-97.062 78.938-176 176-176s176 78.938 176 176c0 72.062-43.156 136.124-109.968 163.188z" />
<glyph unicode="&#xe905;" glyph-name="air-freshener" horiz-adv-x="768" d="M608.274 191.982h-160.186v63.994h263.944c47.886 0 73.574 56.238 42.188 92.358l-142.18 163.624h72.656c43.894 0 67.442 51.55 38.67 84.66l-300.24 345.528c-20.69 23.808-57.694 23.806-78.378-0.008l-300.122-345.53c-28.76-33.11-5.212-84.65 38.678-84.65h72.6l-142.132-163.634c-31.374-36.122-5.684-92.348 42.194-92.348h263.972v-63.994h-160.186c-53.082 0-96.112-42.978-96.112-95.994v-63.996c0-53.014 43.030-95.992 96.112-95.992h448.522c53.082 0 96.112 42.978 96.112 95.992v63.996c0 53.016-43.030 95.994-96.112 95.994zM384.014 847.934c26.538 0 48.056-21.492 48.056-47.998s-21.518-47.996-48.056-47.996c-26.54 0-48.056 21.492-48.056 47.996s21.516 47.998 48.056 47.998zM608.274 31.992h-448.522v63.996h448.522v-63.996z" />
<glyph unicode="&#xe906;" glyph-name="airplay" horiz-adv-x="1152" d="M960 896h-768c-105.876 0-192-86.124-192-192v-384c0-105.876 86.124-192 192-192h26.48c2.962 3.782 5.062 8.046 8.52 11.5l112.816 116.5h-147.816c-35.312 0-64 28.688-64 64v384c0 35.312 28.688 64 64 64h768c35.312 0 64-28.688 64-64v-384c0-35.312-28.688-64-64-64h-147.68l113.43-117.25c3.21-3.21 5.144-7.234 7.918-10.75h26.332c105.876 0 192 86.124 192 192v384c0 105.876-86.124 192-192 192zM615.106 367.782c-10.814 10.812-24.946 16.218-39.052 16.218-14.108 0-28.186-5.406-38.89-16.218l-264.926-273.532c-34.696-34.704-10.128-94.25 39.078-94.25h529.368c49.206 0 73.774 59.546 39.078 94.25l-264.656 273.532z" />
<glyph unicode="&#xe907;" glyph-name="alarm-clock" d="M322.114 908.43l-291.818-243.18c-18.952 29.758-30.296 64.852-30.296 102.75 0 106.040 85.96 192 192 192 50.382 0 95.864-19.828 130.114-51.57zM832 960c-50.382 0-95.864-19.828-130.114-51.57l291.818-243.18c18.952 29.758 30.296 64.852 30.296 102.75 0 106.040-85.96 192-192 192zM960 383.998c0-100.608-33.57-193.146-89.562-267.928l70.818-70.818c12.496-12.496 18.744-28.874 18.744-45.254 0-16.378-6.248-32.758-18.746-45.256v0c-12.498-12.494-28.874-18.742-45.252-18.742-16.38 0-32.758 6.248-45.254 18.744l-70.818 70.818c-74.782-55.992-167.32-89.562-267.93-89.562-100.606 0-193.148 33.562-267.93 89.562l-70.816-70.818c-12.498-12.496-28.876-18.744-45.254-18.744s-32.754 6.246-45.25 18.74v0c-12.5 12.498-18.75 28.88-18.75 45.26s6.248 32.76 18.746 45.256l70.812 70.814c-55.992 74.782-89.558 167.32-89.558 267.93 0 247.422 200.578 448 448 448 256.92 0 448-208.008 448-448.002zM688.006 255.966c0 14.594-6.63 28.996-19.192 38.408l-108.814 81.626v216c0 26.5-21.5 48-48 48s-48-21.5-48-48v-240c0-15.124 7.124-29.312 19.188-38.376l128-96c8.656-6.5 18.75-9.624 28.782-9.624 26.396 0 48.036 21.334 48.036 47.966z" />
<glyph unicode="&#xe908;" glyph-name="alarm-exclamation" d="M192 960c-106 0-192-85.988-192-191.976 0.25-36.496 10.75-71.992 30.5-102.488l292 243.222c-35.5 32.996-82 51.242-130.5 51.242zM832 960c-48.5 0-95-18.246-130.25-51.242l291.75-243.222c19.75 30.496 30.25 65.992 30.5 102.488 0 105.988-86 191.976-192 191.976zM870.5 116.102c58.25 77.242 89.5 171.232 89.5 267.97 0 245.708-192.732 447.942-448 447.942-247.5 0-448-200.472-448-447.944 0-96.738 31.5-190.726 89.5-267.968l-70.832-71.012c-12.444-12.484-18.668-28.824-18.668-45.166 0-17.6 13.87-63.922 64-63.922 16.428 0 32.858 6.252 45.328 18.76l70.672 70.852c79.376-59.742 173.688-89.614 268-89.614s188.624 29.872 268 89.614l70.886-70.942c12.488-12.448 28.832-18.672 45.178-18.672 17.666 0 63.936 13.876 63.936 63.99 0 16.424-6.254 32.848-18.762 45.314l-70.738 70.798zM464 592c0 26.5 21.5 48 48 48s48-21.5 48-48v-224c0-26.5-21.5-48-48-48s-48 21.5-48 48v224zM512 128c-35.348 0-64 28.656-64 64s28.652 64 64 64 64-28.656 64-64-28.652-64-64-64z" />
<glyph unicode="&#xe909;" glyph-name="alarm-plus" d="M192 960c-106 0-192-85.984-192-191.976 0.25-36.492 10.75-71.992 30.5-102.492l292 243.226c-35.5 32.992-82 51.242-130.5 51.242zM832 960c-48.5 0-95-18.25-130.25-51.242l291.75-243.226c19.75 30.5 30.25 66 30.5 102.492 0 105.992-86 191.976-192 191.976zM870.5 116.102c58.25 77.242 89.5 171.226 89.5 267.968 0 245.9-192.832 447.944-448 447.944-247.5 0-448-200.468-448-447.944 0-96.742 31.5-190.726 89.5-267.968l-70.834-71.020c-12.444-12.48-18.666-28.82-18.666-45.16 0-16.312 6.202-32.626 18.608-45.102h0.002c12.476-12.546 28.932-18.82 45.39-18.82 16.428 0 32.858 6.252 45.33 18.76l70.67 70.85c79.374-59.742 173.688-89.614 268-89.614s188.624 29.872 268 89.614l70.888-70.942c12.486-12.444 28.83-18.668 45.176-18.668 16.32 0 32.642 6.206 45.124 18.618v0c12.54 12.472 18.812 28.92 18.812 45.368 0 16.424-6.252 32.848-18.76 45.314l-70.74 70.802zM688.004 336h-128.004v-128c0-26.39-21.602-48-47.996-48-26.402 0-48.004 21.61-48.004 48v128h-127.996c-26.402 0-48.004 21.61-48.004 48 0 26.406 21.602 48 48.004 48h127.996v128c0 26.406 21.602 48 48.004 48 26.394 0 47.996-21.594 47.996-48v-128h128.004c26.394 0 47.996-21.594 47.996-48 0-26.39-21.602-48-47.996-48z" />
<glyph unicode="&#xe90a;" glyph-name="alarm-snooze" d="M192 960c-106 0-192-85.99-192-191.976 0.25-36.496 10.75-71.992 30.5-102.488l292 243.22c-35.5 32.996-82 51.244-130.5 51.244zM832 960c-48.5 0-95-18.248-130.25-51.244l291.75-243.22c19.75 30.496 30.25 65.992 30.5 102.488 0 105.986-86 191.976-192 191.976zM512 832.016c-274.71 0-448-224.4-448-447.946 0-96.738 31.5-190.726 89.5-267.968l-70.838-71.036c-12.44-12.478-18.662-28.814-18.662-45.15 0-16.31 6.202-32.62 18.608-45.094v0c12.478-12.548 28.938-18.822 45.398-18.822 16.434 0 32.87 6.254 45.344 18.768l70.648 70.846c79.376-59.742 173.69-89.614 268.002-89.614s188.624 29.872 267.998 89.614l70.91-116.276c12.482-12.442 28.822-18.664 45.162-18.664 16.316 0 32.632 6.202 45.108 18.61v0c12.548 12.476 18.822 28.93 18.822 45.386 0 16.43-6.254 32.858-18.766 45.33l-70.734 116.102c58.25 77.242 89.5 171.23 89.5 267.968 0 247.47-200.5 447.946-448 447.946zM687.994 544.092c0-10.678-3.57-21.31-10.494-30.038l-193.75-241.97h156.25c17.75 0 32-14.248 32-31.996v-31.996c0-17.748-14.25-31.996-32-31.996h-256c-37.982 0-47.994 34.268-47.994 47.952 0 10.678 3.57 21.31 10.494 30.038l193.498 241.97h-155.998c-17.75 0-32 14.248-32 31.996v31.996c0 17.748 14.25 31.996 32 31.996h256c37.982 0 47.994-34.268 47.994-47.952z" />
<glyph unicode="&#xe90b;" glyph-name="album" horiz-adv-x="896" d="M448 512c-35.25 0-64-28.75-64-64s28.75-64 64-64 64 28.75 64 64-28.75 64-64 64zM768 896h-640c-70.4 0-128-57.6-128-128v-640c0-70.4 57.6-128 128-128h640c70.4 0 128 57.6 128 128v640c0 70.4-57.6 128-128 128zM448 128c-176.75 0-320 143.25-320 320s143.25 320 320 320 320-143.25 320-320-143.25-320-320-320z" />
<glyph unicode="&#xe90c;" glyph-name="album-collection" d="M992.064 752c0 26.5-21.502 48-48.006 48h-864.114c-26.504 0-48.006-21.5-48.006-48v-48h960.126v48zM960.060 912c0 26.5-21.502 48-48.006 48h-800.106c-26.502 0-48.006-21.5-48.006-48v-48h896.118v48zM512.002 308.75c-33.254 0-60.008-20-59.758-44.25s27.004-43.5 59.758-43.5c32.754 0 59.508 19.5 59.758 43.5s-26.504 44.25-59.758 44.25zM960.060 640h-896.118c-48.532 0-65.964-43.648-63.758-69.75l47.208-517.868c6.008-65.918 61.288-116.382 127.484-116.382h674.25c66.198 0 121.476 50.464 127.486 116.382l47.206 517.868c2.212 26.16-15.648 69.75-63.758 69.75zM512.002 14.25c-188.526 0-348.796 109-358.548 250.25-10.002 149.25 150.27 276.75 358.548 276.75s368.548-127.5 358.546-276.75c-9.75-141.25-170.022-250.25-358.546-250.25z" />
<glyph unicode="&#xe90d;" glyph-name="alicorn" horiz-adv-x="1280" d="M1264.042 896h-200.506c11.75 12.25 20.75 27.25 24.25 44.75 2 10-5.75 19.25-15.75 19.25h-240.008c-141.504 0-256.008-114.5-256.008-256h-0.25c-127.754 0-208.256 73.498-255.258 180.496-6.604 15.036-27.186 15.47-34.186 0.614-19.386-41.148-30.318-86.764-30.318-135.36 0-134 102.004-266.25 256.010-295.5v-6.25c-153.756 0-267.51 99.25-305.262 218-11.25-8.5-21.5-17.75-30.75-28.25v2.25c-97.004 0-176.006-79-176.006-176v-112c0-17.75 14.25-32 32.002-32h32c17.75 0 32.002 14.25 32.002 32v112c0 26.5 13.75 48.75 33.5 63.25-0.25-5-1.5-10-1.5-15.25 0-55.25 23.752-104.75 61.002-139.75l-51.528-137.994c-8.992-24.080-10.466-50.322-4.224-75.256l43.692-174.54c7.13-28.482 32.726-48.46 62.086-48.46h65.97c41.622 0 72.172 39.102 62.1 79.488l-42.592 170.762 47.5 127.25 204.26-44.75v-268.75c0-35.346 28.654-64 64.002-64h64.002c35.2 0 64.002 28.8 64.002 64v323.5c39.252 40.5 64.002 95.5 64.002 156.5 0 0.5-0.25 0.75-0.25 1.25v205l32-14.25 37.752-75.5c14.91-29.818 50.226-43.178 81.14-30.694l65.016 26.256c24.234 9.786 40.1 33.304 40.1 59.438v142l184.756 73.25c13.252 8.75 7 29.25-8.75 29.25zM960.032 768c-17.75 0-32 14.25-32 32s14.25 32 32 32c17.75 0 32.002-14.25 32.002-32s-14.252-32-32.002-32z" />
<glyph unicode="&#xe90e;" glyph-name="alien" horiz-adv-x="896" d="M448 960c-247.5 0-448-175.99-448-464.972 0-223.486 268.5-448.972 389.75-539.716 34.5-25.75 82-25.75 116.5 0 121.25 90.744 389.75 316.23 389.75 539.716 0 288.982-200.5 464.972-448 464.972zM352 320.040h-64c-88.25 0-160 71.744-160 159.99 0 17.748 14.25 31.998 32 31.998h64c88.25 0 160-71.746 160-159.99 0-17.75-14.25-31.998-32-31.998zM608 320.040h-64c-17.75 0-32 14.248-32 31.998 0 88.244 71.75 159.99 160 159.99h64c17.75 0 32-14.25 32-31.998 0-88.246-71.75-159.99-160-159.99z" />
<glyph unicode="&#xe90f;" glyph-name="alien-8bit" horiz-adv-x="1152" d="M1120 704h-64c-17.75 0-32-14.25-32-32v-160h-64v96c0 17.75-14.25 32-32 32h-96v128h96c17.75 0 32 14.25 32 32v64c0 17.75-14.25 32-32 32h-64c-17.75 0-32-14.25-32-32v-32h-96c-17.75 0-32-14.25-32-32v-96h-256v96c0 17.75-14.25 32-32 32h-96v32c0 17.75-14.25 32-32 32h-64c-17.75 0-32-14.25-32-32v-64c0-17.75 14.25-32 32-32h96v-128h-96c-17.75 0-32-14.25-32-32v-96h-64v160c0 17.75-14.25 32-32 32h-64c-17.75 0-32-14.25-32-32v-256c0-17.75 14.25-32 32-32h96v-160c0-17.75 14.25-32 32-32h96v-160c0-17.75 14.25-32 32-32h192c17.75 0 32 14.25 32 32v64c0 17.75-14.25 32-32 32h-96v64h384v-64h-96c-17.75 0-32-14.25-32-32v-64c0-17.75 14.25-32 32-32h192c17.75 0 32 14.25 32 32v160h96c17.75 0 32 14.25 32 32v160h96c17.75 0 32 14.25 32 32v256c0 17.75-14.25 32-32 32zM448 320h-128v192h128v-192zM832 320h-128v192h128v-192z" />
<glyph unicode="&#xe910;" glyph-name="align-center" horiz-adv-x="896" d="M832 640h-768c-35.346 0-64-28.654-64-64v0c0-35.346 28.654-64 64-64h768c35.346 0 64 28.654 64 64v0c0 35.346-28.654 64-64 64zM832 128h-768c-35.346 0-64-28.654-64-64v0c0-35.346 28.654-64 64-64h768c35.346 0 64 28.654 64 64v0c0 35.346-28.654 64-64 64zM256 768h384c35.346 0 64 28.654 64 64v0c0 35.346-28.654 64-64 64h-384c-35.346 0-64-28.654-64-64v0c0-35.346 28.654-64 64-64zM640 256c35.346 0 64 28.654 64 64v0c0 35.346-28.654 64-64 64h-384c-35.346 0-64-28.654-64-64v0c0-35.346 28.654-64 64-64h384z" />
<glyph unicode="&#xe911;" glyph-name="align-justify" horiz-adv-x="896" d="M832 128h-768c-35.346 0-64-28.654-64-64v0c0-35.346 28.654-64 64-64h768c35.346 0 64 28.654 64 64v0c0 35.346-28.654 64-64 64zM832 384h-768c-35.346 0-64-28.654-64-64v0c0-35.346 28.654-64 64-64h768c35.346 0 64 28.654 64 64v0c0 35.346-28.654 64-64 64zM832 640h-768c-35.346 0-64-28.654-64-64v0c0-35.346 28.654-64 64-64h768c35.346 0 64 28.654 64 64v0c0 35.346-28.654 64-64 64zM832 896h-768c-35.346 0-64-28.654-64-64v0c0-35.346 28.654-64 64-64h768c35.346 0 64 28.654 64 64v0c0 35.346-28.654 64-64 64z" />
<glyph unicode="&#xe912;" glyph-name="align-left" horiz-adv-x="896" d="M832 128h-768c-35.348 0-64-28.652-64-64s28.652-64 64-64h768c35.348 0 64 28.652 64 64s-28.652 64-64 64zM64 512h768c35.348 0 64 28.652 64 64s-28.652 64-64 64h-768c-35.348 0-64-28.652-64-64s28.652-64 64-64zM64 768h448c35.348 0 64 28.652 64 64s-28.652 64-64 64h-448c-35.348 0-64-28.652-64-64s28.652-64 64-64zM64 256h448c35.348 0 64 28.652 64 64s-28.652 64-64 64h-448c-35.348 0-64-28.652-64-64s28.652-64 64-64z" />
<glyph unicode="&#xe913;" glyph-name="align-right" horiz-adv-x="896" d="M0 64c0-35.348 28.652-64 64-64h768c35.348 0 64 28.652 64 64s-28.652 64-64 64h-768c-35.348 0-64-28.652-64-64zM896 576c0 35.348-28.652 64-64 64h-768c-35.348 0-64-28.652-64-64s28.652-64 64-64h768c35.348 0 64 28.652 64 64zM896 832c0 35.348-28.652 64-64 64h-448c-35.348 0-64-28.652-64-64s28.652-64 64-64h448c35.348 0 64 28.652 64 64zM896 320c0 35.348-28.652 64-64 64h-448c-35.348 0-64-28.652-64-64s28.652-64 64-64h448c35.348 0 64 28.652 64 64z" />
<glyph unicode="&#xe914;" glyph-name="align-slash" horiz-adv-x="1280" d="M255.994 127.996c-35.344 0-64-28.652-64-64 0-35.344 28.656-63.996 64-63.996h722.16l-163.308 127.996h-558.852zM255.994 255.996h395.54l-163.308 127.996h-232.232c-35.344 0-64-28.652-64-64 0-35.344 28.656-63.996 64-63.996zM1261.62 21.796l-298.81 234.2h29.188c0.008 0 0.012 0.004 0.020 0.004h31.98c35.348 0 64 28.652 64 64s-28.652 64-64 64h-224.508l-163.296 127.992h355.804c0.016 0 0.024 0.008 0.040 0.008h31.96c35.348 0 64 28.652 64 64s-28.652 64-64 64h-551.132l-163.308 128h714.44c35.348 0 64 28.652 64 64s-28.652 64-64 64h-768c-26.73 0-49.52-16.43-59.098-39.704l-119.272 93.486c-8.814 6.874-19.25 10.218-29.564 10.218-14.25 0-28.374-6.312-37.812-18.376-16.374-20.874-12.75-51.062 8.126-67.406l1183.992-927.984c21-16.406 51.124-12.656 67.374 8.156 16.376 20.876 12.75 51.064-8.124 67.406zM255.998 512h64v3.816l-117.992 92.48c-5.784-9.62-10.008-20.254-10.008-32.296 0-35.348 28.652-64 64-64z" />
<glyph unicode="&#xe915;" glyph-name="alt" d="M944 736c44.188 0 80 35.812 80 80s-35.812 80-80 80h-160c-25.376 0-49.25-12.062-64.312-32.438l-520.064-703.562h-119.624c-44.188 0-80-35.812-80-80s35.812-80 80-80h160c25.376 0 49.25 12.062 64.312 32.438l520.064 703.562h119.624zM944 160h-224c-44.184 0-80-35.816-80-80s35.816-80 80-80h224c44.184 0 80 35.816 80 80s-35.816 80-80 80z" />
<glyph unicode="&#xe916;" glyph-name="ampersand" horiz-adv-x="768" d="M747.058 133.968l-318.686 348.564 73.624 59.468c47 37.938 74 94.406 74 154.906 0 109.782-89.312 199.094-199.12 199.094h-81.752c-109.812 0-199.124-89.312-199.124-199.094 0-56.688 21.062-110.968 59.312-152.874l40.188-43.908-109.438-88.406c-54.686-44.156-86.062-109.812-86.062-180.124 0-127.688 103.876-231.594 231.562-231.594h114.938c83.184 0 161.246 37.906 212.684 102.344l69.75-76.312c15.812-17.282 37.374-26.032 59.062-26.032 19.312 0 38.626 6.938 54 20.968 32.562 29.814 34.876 80.408 5.062 113zM295.124 736h81.752c21.562 0 39.124-17.532 39.124-39.094 0-11.874-5.25-22.968-14.5-30.406l-81.312-65.656-46.75 51.094c-11.25 12.344-17.438 28.28-17.438 44.968 0 21.562 17.562 39.094 39.124 39.094zM439.122 208.938c-20.934-30.626-55.56-48.938-92.622-48.938h-114.938c-39.438 0-71.562 32.124-71.562 71.594 0 21.718 9.688 42.030 26.562 55.656l117.064 94.562 146.37-160.062c-4-3.782-7.624-8.062-10.874-12.812zM754.11 386.93c24.87 36.5 15.436 86.278-21.060 111.152-36.624 24.934-86.308 15.434-111.178-21.032l-43.47-63.764 110.946-121.348 64.762 94.992z" />
<glyph unicode="&#xe917;" glyph-name="amp-guitar" d="M384 192c-17.672 0-32-14.328-32-32s14.328-32 32-32 32 14.328 32 32-14.328 32-32 32zM512 192c-17.672 0-32-14.328-32-32s14.328-32 32-32 32 14.328 32 32-14.328 32-32 32zM320 224c17.672 0 32 14.328 32 32s-14.328 32-32 32-32-14.328-32-32 14.328-32 32-32zM256 320c17.672 0 32 14.328 32 32s-14.328 32-32 32-32-14.328-32-32 14.328-32 32-32zM928 768h-104.832c-44.214 53.684-171.562 192-311.168 192s-266.954-138.316-311.168-192h-104.832c-53.020 0-96-42.98-96-96v-640c0-53.020 42.98-96 96-96h832c53.020 0 96 42.98 96 96v640c0 53.020-42.98 96-96 96zM832 656c26.508 0 48-21.492 48-48s-21.492-48-48-48-48 21.492-48 48 21.492 48 48 48zM512 864c60.812 0 128.278-48.050 179.418-96h-359.012c51.052 47.946 118.504 96 179.594 96zM688 608c0-26.508-21.492-48-48-48s-48 21.492-48 48 21.492 48 48 48 48-21.492 48-48zM432 608c0-26.508-21.492-48-48-48s-48 21.492-48 48 21.492 48 48 48 48-21.492 48-48zM192 656c26.508 0 48-21.492 48-48s-21.492-48-48-48-48 21.492-48 48 21.492 48 48 48zM896 64h-768v384h768v-384zM640 192c-17.672 0-32-14.328-32-32s14.328-32 32-32 32 14.328 32 32-14.328 32-32 32zM256 128c17.672 0 32 14.328 32 32s-14.328 32-32 32-32-14.328-32-32 14.328-32 32-32zM768 192c-17.672 0-32-14.328-32-32s14.328-32 32-32 32 14.328 32 32-14.328 32-32 32zM384 320c17.672 0 32 14.328 32 32s-14.328 32-32 32-32-14.328-32-32 14.328-32 32-32zM512 320c17.672 0 32 14.328 32 32s-14.328 32-32 32-32-14.328-32-32 14.328-32 32-32zM448 224c17.672 0 32 14.328 32 32s-14.328 32-32 32-32-14.328-32-32 14.328-32 32-32zM576 224c17.672 0 32 14.328 32 32s-14.328 32-32 32-32-14.328-32-32 14.328-32 32-32zM768 320c17.672 0 32 14.328 32 32s-14.328 32-32 32-32-14.328-32-32 14.328-32 32-32zM704 224c17.672 0 32 14.328 32 32s-14.328 32-32 32-32-14.328-32-32 14.328-32 32-32zM640 320c17.672 0 32 14.328 32 32s-14.328 32-32 32-32-14.328-32-32 14.328-32 32-32z" />
<glyph unicode="&#xe918;" glyph-name="anchor" horiz-adv-x="1152" d="M1142.626 310.624l-127.998 128c-12.5 12.5-32.75 12.5-45.25 0l-127.998-128c-20.070-20.136-5.86-54.624 22.624-54.624h54.91c-28.624-110.098-127.978-192-246.906-192h-32v416h95.998c17.676 0 32 14.328 32 32v64c0 17.672-14.324 32-32 32h-54.104c51.842 34.382 86.104 93.132 86.104 160 0 106.040-85.96 192-191.998 192s-191.996-85.96-191.996-192c0-66.868 34.262-125.618 86.104-160h-54.104c-17.672 0-32-14.328-32-32v-64c0-17.672 14.328-32 32-32h95.998v-416h-32c-118.928 0-218.282 81.902-246.906 192h54.91c28.518 0 42.666 34.512 22.624 54.624l-127.998 128c-12.5 12.5-32.75 12.5-45.25 0l-127.998-128c-20.070-20.136-5.858-54.624 22.626-54.624h69.78c30.612-181.32 188.312-320 378.212-320h191.998c189.898 0 347.6 138.68 378.212 320h69.78c28.52 0 42.668 34.512 22.626 54.624zM576.008 832c35.29 0 64-28.71 64-64s-28.71-64-64-64-63.998 28.71-63.998 64 28.71 64 63.998 64z" />
<glyph unicode="&#xe919;" glyph-name="angel" horiz-adv-x="1152" d="M416.004 672c0-88.5 71.498-160 159.996-160s159.996 71.5 159.996 160-71.498 160-159.996 160-159.996-71.5-159.996-160zM369.006 757.25c8.25 19.75 19.75 37.75 33.25 54.25-11.75 8-18.25 15.75-18.25 20.5 0 16 67.998 64 191.994 64s191.994-48 191.994-64c0-4.5-6.5-12.25-18.25-20.5 13.25-16.75 24.75-34.5 33.25-54.25 30.498 21 48.998 46.75 48.998 74.75 0 70.5-114.496 128-255.992 128s-255.992-57.5-255.992-128c0-28 18.5-53.75 48.998-74.75zM1143.482 53.75l-76.248 157.25c-13.248 27-13.248 59.25 0 86.25 9.5 19.5 17.25 33.25 23.75 44.25 19 33 29 53 29 106.5 0 102.25-93.748 192-200.744 192-49.748 0-97.998-20.5-132.746-56.25l-145.246-146.75c-20.75 6.75-42.498 10.75-64.998 10.75-22.75 0-44.248-4-64.998-10.75l-145.246 146.5c-34.998 36-83.496 56.5-132.996 56.5-106.996 0-200.994-89.75-200.994-192 0-53.5 10-73.5 29-106.5 6.5-11 14.25-24.5 23.75-44 13.248-27 13.248-59.25 0-86.25l-76.248-157.5c-12.75-25.75-11-55.5 4-79.75 14.998-23.75 40.498-38 68.498-38h990.218c27.75 0 53.25 14.25 68.248 38 15 24.25 16.75 54.25 4 79.75zM390.756 333.5l-150.746-301.5h-135.496l66.748 137.25c26 53.25 26 117 0 170.25-10.75 22.25-19.748 37.75-26.998 50-14.5 25-16.25 28-16.25 58.5 0 49.5 50.998 96 104.746 96 24.25 0 47-9.75 64.498-27.75l130.246-131.25c-14.498-15-26.998-32.25-36.748-51.5zM911.99 32l-150.746 301.5c-9.75 19.25-22.25 36.5-36.748 51.5l130.496 131.5c17.248 17.75 39.998 27.5 64.248 27.5 53.998 0 104.746-46.5 104.746-96 0-30.5-1.75-33.5-16.25-58.5-7.25-12.25-15.998-28-26.998-50-26-53.25-26-117 0-170.25l66.748-137.25h-135.496z" />
<glyph unicode="&#xe91a;" glyph-name="angle" horiz-adv-x="896" d="M625.186 192h98.27c-14.41 74.364-41.332 144.144-78.134 207.628l-80.668-51.854c27.36-48.070 47.9-100.392 60.532-155.774zM427.322 510.458c38.782-31.622 73.016-68.43 102.47-108.966l80.832 51.966c-39.13 54.756-86.246 103.222-139.664 144.066l-43.638-87.066zM832.018 128h-664.438l337.688 675.376c15.812 31.624 3 70.062-28.624 85.874-31.626 15.782-70 3-85.876-28.624l-384-768c-9.938-19.844-8.874-43.408 2.812-62.282 11.688-18.844 32.25-30.344 54.438-30.344h768c35.376 0 64 28.656 64 64s-28.624 64-64 64z" />
<glyph unicode="&#xe91b;" glyph-name="angle-90" horiz-adv-x="896" d="M625.168 192h98.27c-14.488 74.778-41.652 144.918-78.774 208.68l-82.206-49.324c28.398-49.066 49.756-102.57 62.71-159.356zM527.246 404.868l82.626 49.574c-43 59.94-95.498 112.436-155.442 155.436l-49.574-82.62c46.702-34.458 87.93-75.688 122.39-122.39zM832 128h-704v704c0 35.346-28.654 64-64 64v0c-35.346 0-64-28.654-64-64v-768c0-35.346 28.654-64 64-64h768c35.346 0 64 28.654 64 64v0c0 35.346-28.654 64-64 64zM400.692 644.656c-63.77 37.122-133.906 64.286-208.692 78.778v-98.266c56.79-12.954 110.3-34.312 159.372-62.718l49.32 82.206z" />
<glyph unicode="&#xe91c;" glyph-name="angle-down" horiz-adv-x="768" d="M743.030 501.89l-303.998-287.956c-15.438-14.622-35.25-21.934-55.032-21.934s-39.594 7.312-55.032 21.934l-303.998 287.956c-32.062 30.37-33.436 80.988-3.030 113.046 30.374 32.12 81.030 33.494 113.092 3.062l248.968-235.84 248.968 235.84c32.030 30.494 82.686 29.12 113.092-3.062 30.406-32.058 29.032-82.676-3.030-113.046z" />
<glyph unicode="&#xe91d;" glyph-name="angle-left" horiz-adv-x="512" d="M426.060 198.996c30.406-32.062 29.032-82.684-3.030-113.060-15.47-14.686-35.282-21.936-55.032-21.936-21.186 0-42.344 8.374-58.062 25l-287.998 303.99c-29.25 30.812-29.25 79.186 0 109.998l287.998 303.992c30.376 32.124 81.032 33.498 113.094 3.062 32.062-30.374 33.436-80.998 3.030-113.060l-235.874-248.992 235.874-248.994z" />
<glyph unicode="&#xe91e;" glyph-name="angle-right" horiz-adv-x="512" d="M144.002 64c-19.75 0-39.562 7.25-55.032 21.936-32.062 30.372-33.436 80.992-3.030 113.052l235.874 248.978-235.874 248.978c-30.406 32.060-29.032 82.68 3.030 113.052 32.032 30.498 82.656 29.122 113.094-3.062l287.998-303.974c29.25-30.808 29.25-79.18 0-109.99l-287.998-303.972c-15.718-16.624-36.876-24.998-58.062-24.998z" />
<glyph unicode="&#xe91f;" glyph-name="angles-down" horiz-adv-x="768" d="M329.002 405.906c15.436-14.624 35.186-21.938 55-21.938s39.562 7.314 55 21.938l304.004 287.976c32.124 30.368 33.436 80.992 3.062 113.056-30.438 32.186-81.13 33.562-113.066 3.062l-249-235.86-249 235.86c-32 30.438-82.818 29.062-113.068-3.062-30.374-32.062-29.062-82.688 3.064-113.056l304.004-287.976zM633.002 426.032l-249-235.86-249 235.86c-32 30.436-82.818 29.062-113.068-3.064-30.374-32.062-29.062-82.686 3.064-113.054l304.004-287.976c15.436-14.626 35.186-21.938 55-21.938s39.562 7.312 55 21.938l304.004 287.976c32.124 30.368 33.436 80.992 3.062 113.054-30.438 32.188-81.13 33.564-113.066 3.064z" />
<glyph unicode="&#xe920;" glyph-name="angles-left" horiz-adv-x="896" d="M190.172 448l235.856 249c30.432 32 29.058 82.812-3.064 113.062-32.058 30.376-82.678 29.062-113.054-3.062l-287.972-304c-14.626-15.438-21.938-35.188-21.938-55s7.312-39.562 21.938-55l287.972-304c30.376-32.124 80.996-33.438 113.054-3.062 32.184 30.436 33.56 81.124 3.064 113.062l-235.856 249zM809.996 199l-235.856 249 235.856 249c30.434 32 29.058 82.812-3.062 113.062-32.058 30.376-82.68 29.064-113.056-3.062l-287.976-304c-14.62-15.438-21.934-35.188-21.934-55s7.314-39.562 21.934-55l287.976-304c30.376-32.124 80.998-33.438 113.056-3.062 32.184 30.438 33.558 81.124 3.062 113.062z" />
<glyph unicode="&#xe921;" glyph-name="angles-right" horiz-adv-x="896" d="M512.030 448c0 19.812-7.312 39.562-21.932 55l-287.978 304.002c-30.374 32.126-80.996 33.438-113.054 3.064-32.184-30.438-33.56-81.126-3.062-113.064l235.854-249.002-235.854-249.002c-30.434-32-29.060-82.814 3.062-113.064 32.058-30.374 82.68-29.062 113.054 3.064l287.978 304.002c14.62 15.438 21.932 35.188 21.932 55zM874.062 503l-287.972 304.002c-30.376 32.126-80.996 33.438-113.056 3.064-32.182-30.438-33.558-81.126-3.062-113.064l235.856-249.002-235.856-249.002c-30.434-32-29.058-82.814 3.062-113.064 32.060-30.374 82.68-29.062 113.056 3.064l287.972 304.002c14.626 15.438 21.938 35.188 21.938 55s-7.312 39.562-21.938 55z" />
<glyph unicode="&#xe922;" glyph-name="angles-up" horiz-adv-x="768" d="M135.002 469.968l249 235.86 249-235.86c32-30.428 82.816-29.054 113.066 3.064 30.374 32.062 29.062 82.686-3.062 113.062l-304.004 287.968c-15.438 14.626-35.188 21.938-55 21.938s-39.564-7.312-55-21.938l-304.004-287.968c-32.126-30.376-33.438-81-3.064-113.062 30.438-32.18 81.13-33.556 113.068-3.064zM439.002 490.094c-15.438 14.624-35.188 21.938-55 21.938s-39.564-7.314-55-21.938l-304.004-287.97c-32.126-30.374-33.438-81-3.064-113.062 30.438-32.18 81.13-33.554 113.068-3.062l249 235.86 249-235.86c32-30.43 82.816-29.054 113.066 3.062 30.374 32.064 29.062 82.688-3.062 113.064l-304.004 287.968z" />
<glyph unicode="&#xe923;" glyph-name="angle-up" horiz-adv-x="768" d="M746.060 281.020c-15.718-16.624-36.874-24.998-58.062-24.998-19.75 0-39.562 7.25-55.030 21.936l-248.968 235.864-248.968-235.864c-32.094-30.436-82.718-29.060-113.092 3.062-30.406 32.062-29.032 82.684 3.030 113.058l303.998 287.986c30.876 29.248 79.188 29.248 110.064 0l303.998-287.986c32.062-30.374 33.436-80.996 3.030-113.058z" />
<glyph unicode="&#xe924;" glyph-name="ankh" horiz-adv-x="640" d="M592 448h-89.25c42.25 68 73.25 148.75 73.25 224 0 176.75-114.5 288-256 288s-256-111.25-256-288c0-75.25 31-156 73.25-224h-89.25c-26.5 0-48-21.5-48-48v-64c0-26.5 21.5-48 48-48h192v-304c0-26.5 21.5-48 48-48h64c26.5 0 48 21.5 48 48v304h192c26.5 0 48 21.5 48 48v64c0 26.5-21.5 48-48 48zM320 800c59.25 0 96-49 96-128 0-69.25-54.25-156.25-96-201.75-41.75 45.5-96 132.5-96 201.75 0 79 36.75 128 96 128z" />
<glyph unicode="&#xe925;" glyph-name="aperture" d="M126.032 732.492c-58.828-79.672-94.032-177.852-94.032-284.492 0-44.398 6.508-87.192 17.79-128h314.402l-238.16 412.492zM565.602 924.832c-17.618 1.96-35.462 3.168-53.602 3.168-133.972 0-254.996-55.004-342.070-143.516l157.32-272.476 238.352 412.824zM951.796 640c-58.432 133.64-175.976 235.102-319.57 272.21l-157.164-272.21h476.734zM974.21 576h-314.402l238.16-412.492c58.828 79.672 94.032 177.852 94.032 284.492 0 44.398-6.508 87.192-17.79 128zM72.204 256c58.432-133.64 175.976-235.102 319.57-272.21l157.164 272.21h-476.734zM458.398-28.832c17.618-1.96 35.462-3.168 53.602-3.168 133.972 0 254.996 55.004 342.070 143.516l-157.32 272.476-238.352-412.824z" />
<glyph unicode="&#xe926;" glyph-name="apple-core" horiz-adv-x="768" d="M575.902 896v64h-64c-88.362 0-160.008-71.632-160.008-160v-64h64.004c88.372 0 160.004 71.632 160.004 160zM575.876 352c0 125.856 66.256 235.964 165.582 298.196-33.758 33.090-77.63 53.804-133.556 53.804-64 0-160.004-32-223.98-64-64.028 32-160.032 63.988-224.032 63.992-56.128 0.004-100.104-20.574-133.89-53.616 99.488-62.196 165.876-172.4 165.876-298.376 0-120.214-60.356-226.234-152.326-289.738 54.962-74.722 129.028-126.262 216.328-126.262 64 0 96 32 128.004 32 32 0 64-32 128.004-32 87.516 0 161.672 51.308 216.638 126.020-92.152 63.476-152.648 169.62-152.648 289.98z" />
<glyph unicode="&#xe927;" glyph-name="apple-crate" d="M636.5 575.998h319.5c10.5 79-10.25 205.25-107.75 222.75-36.25 6-103.75-12.25-145-35.25-34 19-84.75 33.75-122.25 35.5 3.75-4.5 7.75-8.25 11-13.25 41.75-60.25 51.5-144.5 44.5-209.75zM421 858.998c22.75 24.5 29 64 26.5 100.5-25.75 1.75-71.25 0.25-100-26.5-33-33.25-27.5-92.75-26.5-100.5 37-2.5 75.5 3.75 100 26.5zM804.5 858.998c22.5 24.5 28.75 64 26.5 100.5-26 1.75-71.5 0.25-100.25-26.5-33-33.25-27.5-92.75-26.25-100.5 36.75-2.5 75.5 3.75 100 26.5zM572.5 575.998c10.5 79-10.25 205.25-107.5 222.75-36.25 6-103.75-12.25-145-35.25-41.25 23-108.75 41.25-145 35.25-97.25-17.5-118-144.5-107.5-222.75h505zM992 511.998h-960c-17.75 0-32-14.25-32-32v-224h1024v224c0 17.75-14.25 32-32 32zM128 351.998c-17.75 0-32 14.25-32 32s14.25 32 32 32 32-14.25 32-32-14.25-32-32-32zM896 351.998c-17.75 0-32 14.25-32 32s14.25 32 32 32 32-14.25 32-32-14.25-32-32-32zM0-32.002c0-17.75 14.25-32 32-32h960c17.75 0 32 14.25 32 32v224h-1024v-224zM896 95.998c17.75 0 32-14.25 32-32s-14.25-32-32-32-32 14.25-32 32 14.25 32 32 32zM128 95.998c17.75 0 32-14.25 32-32s-14.25-32-32-32-32 14.25-32 32 14.25 32 32 32z" />
<glyph unicode="&#xe928;" glyph-name="apple-whole" horiz-adv-x="896" d="M672.028 704c-64.002 0-160.006-32-223.984-64-64.026 32-160.028 63.988-224.030 63.992-160.006 0.008-223.188-164.91-224.008-319.992-1.062-199.95 127.988-448 319.996-448 64.002 0 96.002 32 128.004 32 32 0 64.002-32 128.004-32 192.006 0 320.806 245.672 319.986 448-0.618 152.844-63.962 320-223.968 320zM640.026 896v64h-64.002c-88.362 0-160.004-71.632-160.004-160v-64h64.002c88.37 0 160.004 71.632 160.004 160z" />
<glyph unicode="&#xe929;" glyph-name="archway" horiz-adv-x="1152" d="M1120 64h-32v704h-1024v-704h-32c-17.75 0-32-14.25-32-32v-64c0-17.75 14.25-32 32-32h320c17.75 0 32 14.25 32 32v352c0 106 86 192 192 192s192-86 192-192v-352c0-17.75 14.25-32 32-32h320c17.75 0 32 14.25 32 32v64c0 17.75-14.25 32-32 32zM1120 960h-1088c-17.75 0-32-14.25-32-32v-64c0-17.75 14.25-32 32-32h1088c17.75 0 32 14.25 32 32v64c0 17.75-14.25 32-32 32z" />
<glyph unicode="&#xe92a;" glyph-name="arrow-down" horiz-adv-x="896" d="M823.094 326l-320-304c-15.438-14.688-35.25-22-55.094-22s-39.656 7.312-55.094 22l-320 304c-32.032 30.438-33.344 81.062-2.906 113.124 30.468 31.876 81.156 33.252 113.094 2.876l184.906-175.64v549.64c0 44.188 35.812 80 80 80s80-35.812 80-80v-549.64l184.906 175.64c31.968 30.376 82.656 29.062 113.094-2.876 30.436-32.062 29.124-82.686-2.906-113.124z" />
<glyph unicode="&#xe92b;" glyph-name="arrow-down-1-9" d="M639.996 576c0-35.376 28.624-64 64-64h128c35.374 0 64 28.624 64 64s-28.626 64-64 64v192.032c0 22.374-11.688 43.062-30.75 54.686-19.064 11.564-42.814 12.376-62.688 2.126l-64-33.188c-31.376-16.25-43.626-54.874-27.376-86.258 11.376-22.008 33.688-34.57 56.814-34.57v-94.828c-35.376 0-64-28.624-64-64zM783.996 448.89c-97.204 0-176-78.796-176-176 0-72.874 44.292-135.398 107.426-162.132l-15.364-16.008c-21.438-22.312-20.688-57.75 1.624-79.126 10.814-10.436 24.814-15.624 38.75-15.624 14.688 0 29.438 5.75 40.376 17.25 139.222 145.062 179.192 170.782 179.192 255.64 0 97.204-78.802 176-176.004 176zM783.996 224.89c-26.47 0-48 21.532-48 48s21.53 48 48 48 48.004-21.53 48.004-48-21.536-48-48.004-48zM432.026 319.438c-17.344 0-34.594-7-47.218-20.766l-64.808-70.796v604.062c0 35.406-28.658 64.062-64 64.062s-64-28.656-64-64.062v-604.064l-64.81 70.798c-23.906 26.016-64.406 27.828-90.436 3.938-26.060-23.906-27.81-64.438-3.938-90.532l175.996-192.188c24.25-26.516 70.124-26.516 94.374 0l175.996 192.188c23.872 26.094 22.122 66.626-3.936 90.532-12.282 11.266-27.782 16.828-43.22 16.828z" />
<glyph unicode="&#xe92c;" glyph-name="arrow-down-9-1" d="M432.026 319.438c-17.344 0-34.594-7-47.218-20.766l-64.808-70.796v604.062c0 35.406-28.658 64.062-64 64.062s-64-28.656-64-64.062v-604.064l-64.81 70.798c-23.906 26.016-64.406 27.828-90.436 3.938-26.060-23.906-27.81-64.438-3.938-90.532l175.996-192.188c24.25-26.516 70.124-26.516 94.374 0l175.996 192.188c23.872 26.094 22.122 66.626-3.936 90.532-12.282 11.266-27.782 16.828-43.22 16.828zM715.422 557.868l-15.364-16.008c-21.438-22.314-20.688-57.75 1.624-79.126 10.814-10.438 24.814-15.624 38.75-15.624 14.688 0 29.438 5.75 40.376 17.25 139.222 145.062 179.192 170.78 179.192 255.64 0 97.204-78.802 176-176.004 176s-176-78.796-176-176c0-72.876 44.292-135.398 107.426-162.132zM783.996 768c26.468 0 48.004-21.532 48.004-48s-21.536-48-48.004-48-48 21.532-48 48 21.53 48 48 48zM831.996 127.11v192.030c0 22.376-11.688 43.064-30.75 54.688-19.064 11.562-42.814 12.376-62.688 2.126l-64-33.188c-31.376-16.25-43.626-54.876-27.376-86.258 11.376-22.008 33.688-34.57 56.814-34.57v-94.828c-35.376 0-64-28.626-64-64s28.624-64 64-64h128c35.374 0 64 28.624 64 64s-28.626 64-64 64z" />
<glyph unicode="&#xe92d;" glyph-name="arrow-down-arrow-up" horiz-adv-x="896" d="M863.182 683.922l-175.996 192.188c-24.25 26.522-70.124 26.522-94.374 0l-175.996-192.188c-23.872-26.094-22.122-66.626 3.938-90.532 26.030-23.89 66.53-22.078 90.436 3.946l64.81 70.788v-604.062c0-35.406 28.656-64.062 64-64.062s64 28.656 64 64.062v604.062l64.808-70.788c22.844-24.906 63.254-28.868 90.438-3.946 26.058 23.906 27.808 64.438 3.936 90.532zM384.808 298.672l-64.808-70.796v604.062c0 35.406-28.658 64.062-64 64.062s-64-28.656-64-64.062v-604.064l-64.81 70.798c-22.844 24.906-63.254 28.86-90.436 3.938-26.060-23.906-27.81-64.438-3.938-90.532l175.996-192.188c24.25-26.516 70.124-26.516 94.374 0l175.996 192.188c23.872 26.094 22.122 66.626-3.936 90.532-26.032 23.89-66.532 22.078-90.438-3.938z" />
<glyph unicode="&#xe92e;" glyph-name="arrow-down-a-z" d="M479.182 212.080c23.872 26.094 22.122 66.626-3.936 90.532-27.098 24.844-67.524 21.038-90.438-3.946l-64.808-70.79v604.064c0 35.406-28.658 64.062-64 64.062s-64-28.656-64-64.062v-604.064l-64.81 70.79c-23.906 26.024-64.406 27.836-90.436 3.946-26.060-23.906-27.81-64.438-3.938-90.532l175.996-192.188c24.25-26.522 70.124-26.522 94.374 0l175.996 192.188zM896 128h-101.5l146.75 146.75c18.312 18.312 23.78 45.812 13.874 69.75s-33.25 39.5-59.124 39.5h-256c-35.344 0-64-28.624-64-64s28.656-64 64-64h101.5l-146.75-146.75c-18.314-18.312-23.782-45.812-13.876-69.75s33.25-39.5 59.126-39.5h256c35.342 0 64 28.624 64 64s-28.658 64-64 64zM985.226 541.376l-159.984 321.906c-21.684 43.624-92.802 43.624-114.486 0l-159.984-321.906c-15.812-31.814-3-70.478 28.622-86.384 31.746-15.844 70.086-2.952 85.866 28.798l14.31 28.788h176.858l14.31-28.788c12.348-24.852 47.948-47.744 85.866-28.798 31.622 15.906 44.434 54.57 28.622 86.384zM735.566 625.25l32.434 65.258 32.432-65.258h-64.866z" />
<glyph unicode="&#xe92f;" glyph-name="arrow-down-big-small" d="M832 320h-192c-35.2 0-64-28.796-64-64v-192c0-35.204 28.8-64 64-64h192c35.198 0 64 28.796 64 64v192c0 35.204-28.802 64-64 64zM960 896h-320c-35.348 0-64-28.656-64-64v-320c0-35.344 28.652-64 64-64h320c35.346 0 64 28.656 64 64v320c0 35.344-28.654 64-64 64zM384.808 298.672l-64.808-70.796v604.062c0 35.406-28.658 64.062-64 64.062s-64-28.656-64-64.062v-604.064l-64.81 70.798c-12.624 13.766-29.874 20.766-47.218 20.766-15.438 0-30.938-5.564-43.218-16.828-26.060-23.906-27.81-64.438-3.938-90.532l175.996-192.188c24.25-26.516 70.124-26.516 94.374 0l175.996 192.188c23.872 26.094 22.122 66.626-3.936 90.532-26.032 23.89-66.532 22.078-90.438-3.938z" />
<glyph unicode="&#xe930;" glyph-name="arrow-down-from-dotted-line" horiz-adv-x="896" d="M640 768.002c35.348 0 64 28.656 64 64s-28.652 64-64 64-64-28.656-64-64 28.652-64 64-64zM448 768.002c35.348 0 64 28.656 64 64s-28.652 64-64 64-64-28.656-64-64 28.652-64 64-64zM832 768.002c35.348 0 64 28.656 64 64s-28.652 64-64 64-64-28.656-64-64 28.652-64 64-64zM146.75 274.752l256-256c25-25 65.5-25 90.5 0l256 256c25 25 25 65.5 0 90.5s-65.5 25-90.5 0l-146.75-146.75v357.5c0 35.374-28.624 64-64 64s-64-28.626-64-64v-357.5l-146.75 146.75c-12.5 12.5-28.874 18.75-45.25 18.75s-32.75-6.25-45.25-18.75c-25-25-25-65.5 0-90.5zM256 768.002c35.348 0 64 28.656 64 64s-28.652 64-64 64-64-28.656-64-64 28.652-64 64-64zM64 768.002c35.348 0 64 28.656 64 64s-28.652 64-64 64-64-28.656-64-64 28.652-64 64-64z" />
<glyph unicode="&#xe931;" glyph-name="arrow-down-from-line" horiz-adv-x="768" d="M594.75 365.25l-146.75-146.75v357.5c0 35.376-28.624 64-64 64s-64-28.624-64-64v-357.5l-146.75 146.75c-12.5 12.5-28.874 18.75-45.25 18.75s-32.75-6.25-45.25-18.75c-25-25-25-65.5 0-90.5l256-256c25-25 65.5-25 90.5 0l256 256c25 25 25 65.5 0 90.5s-65.5 25-90.5 0zM64 768h640c35.376 0 64 28.624 64 64s-28.624 64-64 64h-640c-35.376 0-64-28.624-64-64s28.624-64 64-64z" />
<glyph unicode="&#xe932;" glyph-name="arrow-down-left" horiz-adv-x="768" d="M712.562 800c-31.25 31.25-81.874 31.25-113.124 0l-407.438-407.438v222.876c0 44.186-35.812 80-80 80s-80-35.814-80-80v-416c0-44.188 35.812-80 80-80h416c44.188 0 80 35.812 80 80s-35.812 80-80 80h-222.876l407.438 407.436c31.25 31.25 31.25 81.876 0 113.126z" />
<glyph unicode="&#xe933;" glyph-name="arrow-down-left-and-arrow-up-right-to-center" d="M109.25-45.25l242.75 242.75v-101.5c0-35.376 28.626-64 64-64s64 28.624 64 64v256c0 8.328-1.696 16.624-4.93 24.446-6.48 15.664-18.956 28.148-34.624 34.624-7.82 3.234-16.118 4.93-24.446 4.93h-256c-35.374 0-64-28.624-64-64s28.626-64 64-64h101.5l-242.75-242.75c-25-25-25-65.5 0-90.5s65.5-25 90.5 0zM548.926 519.562c6.484-15.68 18.956-28.156 34.64-34.64 7.812-3.226 16.11-4.922 24.434-4.922h256c35.376 0 64 28.624 64 64s-28.624 64-64 64h-101.5l242.75 242.75c25 25 25 65.5 0 90.5-24.986 24.986-65.486 25.014-90.5 0l-242.75-242.75v101.5c0 35.374-28.624 64-64 64s-64-28.626-64-64v-256c0-8.328 1.696-16.626 4.926-24.438z" />
<glyph unicode="&#xe934;" glyph-name="arrow-down-long" horiz-adv-x="640" d="M18.75 301.25c25.014 25.014 65.514 24.986 90.5 0l146.75-146.75v741.5c0 35.376 28.624 64 64 64s64-28.624 64-64v-741.5l146.75 146.75c25 25 65.5 25 90.5 0s25-65.5 0-90.5l-256-256c-25-25-65.5-25-90.5 0l-256 256c-25 25-25 65.5 0 90.5z" />
<glyph unicode="&#xe935;" glyph-name="arrow-down-right" horiz-adv-x="768" d="M656 695.438c-44.188 0-80-35.814-80-80v-222.876l-407.438 407.438c-31.25 31.25-81.874 31.25-113.124 0s-31.25-81.876 0-113.124l407.436-407.438h-222.874c-44.188 0-80-35.814-80-80s35.812-80 80-80h416c44.188 0 80 35.812 80 80v416c0 44.186-35.812 80-80 80z" />
<glyph unicode="&#xe936;" glyph-name="arrow-down-short-wide" horiz-adv-x="1152" d="M640 512h191.996c35.346 0 64 28.656 64 64s-28.654 64-64 64h-191.996c-35.348 0-64-28.656-64-64s28.652-64 64-64zM640 256h319.996c35.346 0 64 28.656 64 64s-28.654 64-64 64h-319.996c-35.348 0-64-28.656-64-64s28.652-64 64-64zM640 768h64c35.346 0 64 28.656 64 64s-28.654 64-64 64h-64c-35.348 0-64-28.656-64-64s28.652-64 64-64zM1087.996 128h-447.996c-35.348 0-64-28.656-64-64s28.652-64 64-64h447.996c35.346 0 64 28.656 64 64s-28.654 64-64 64zM384.808 298.672l-64.808-70.796v604.062c0 35.406-28.658 64.062-64 64.062s-64-28.656-64-64.062v-604.064l-64.81 70.798c-12.624 13.766-29.874 20.766-47.218 20.766-15.438 0-30.938-5.564-43.218-16.828-26.060-23.906-27.81-64.438-3.938-90.532l175.996-192.188c24.25-26.516 70.124-26.516 94.374 0l175.996 192.188c23.872 26.094 22.122 66.626-3.936 90.532-26.032 23.89-66.532 22.078-90.438-3.938z" />
<glyph unicode="&#xe937;" glyph-name="arrow-down-small-big" d="M640 576h192c35.346 0 64 28.656 64 64v192c0 35.204-28.802 64-64 64h-192c-35.348 0-64-28.656-64-64v-192c0-35.344 28.652-64 64-64zM960 448h-320c-35.348 0-64-28.656-64-64v-320c0-35.344 28.652-64 64-64h320c35.346 0 64 28.656 64 64v320c0 35.344-28.654 64-64 64zM384.808 298.672l-64.808-70.796v604.062c0 35.406-28.658 64.062-64 64.062s-64-28.656-64-64.062v-604.064l-64.81 70.798c-12.624 13.766-29.874 20.766-47.218 20.766-15.438 0-30.938-5.564-43.218-16.828-26.060-23.906-27.81-64.438-3.938-90.532l175.996-192.188c24.25-26.516 70.124-26.516 94.374 0l175.996 192.188c23.872 26.094 22.122 66.626-3.936 90.532-26.032 23.89-66.532 22.078-90.438-3.938z" />
<glyph unicode="&#xe938;" glyph-name="arrow-down-square-triangle" d="M640.010 512h256.004c35.348 0 64 28.656 64 64v256c0 35.344-28.652 64-64 64h-256.004c-35.346 0-64-28.656-64-64v-256c0-35.344 28.654-64 64-64zM984.264 82.25l-166.254 274.25c-22.25 36.75-77.5 36.75-99.75 0l-166.5-274.25c-22-36.5 5.5-82.25 50-82.25h332.5c44.504 0 72.004 45.75 50.004 82.25zM384.808 298.672l-64.808-70.796v604.062c0 35.406-28.658 64.062-64 64.062s-64-28.656-64-64.062v-604.064l-64.81 70.798c-22.844 24.906-63.254 28.86-90.436 3.938-26.060-23.906-27.81-64.438-3.938-90.532l175.996-192.188c24.25-26.516 70.124-26.516 94.374 0l175.996 192.188c23.872 26.094 22.122 66.626-3.936 90.532-26.032 23.89-66.532 22.078-90.438-3.938z" />
<glyph unicode="&#xe939;" glyph-name="arrow-down-to-bracket" horiz-adv-x="896" d="M896 128v128c0 35.348-28.656 64-64 64s-64-28.652-64-64v-128c0-35.348-28.656-64-64-64h-512c-35.344 0-64 28.652-64 64v128c0 35.348-28.656 64-64 64s-64-28.652-64-64v-128c0-106.040 85.96-192 192-192h512c106.040 0 192 85.96 192 192zM493.25 274.75l256 256c25.016 25.016 24.984 65.516 0 90.5-25 25-65.5 25-90.5 0l-146.75-146.75v421.5c0 35.376-28.624 64-64 64s-64-28.624-64-64v-421.5l-146.75 146.75c-25 25-65.5 25-90.5 0s-25-65.5 0-90.5l256-256c25-25 65.5-25 90.5 0z" />
<glyph unicode="&#xe93a;" glyph-name="arrow-down-to-dotted-line" horiz-adv-x="896" d="M256 128c-35.348 0-64-28.656-64-64s28.652-64 64-64 64 28.656 64 64-28.652 64-64 64zM448 128c-35.348 0-64-28.656-64-64s28.652-64 64-64 64 28.656 64 64-28.652 64-64 64zM64 128c-35.348 0-64-28.656-64-64s28.652-64 64-64 64 28.656 64 64-28.652 64-64 64zM146.75 498.752l256-256c25-25 65.5-25 90.5 0l256 256c25 25 25 65.5 0 90.5s-65.5 25-90.5 0l-146.75-146.75v357.5c0 35.374-28.624 64-64 64s-64-28.626-64-64v-357.5l-146.75 146.75c-12.5 12.5-28.874 18.75-45.25 18.75s-32.75-6.25-45.25-18.75c-25-25-25-65.5 0-90.5zM640 128c-35.348 0-64-28.656-64-64s28.652-64 64-64 64 28.656 64 64-28.652 64-64 64zM832 128c-35.348 0-64-28.656-64-64s28.652-64 64-64 64 28.656 64 64-28.652 64-64 64z" />
<glyph unicode="&#xe93b;" glyph-name="arrow-down-to-line" horiz-adv-x="768" d="M594.75 621.25l-146.75-146.75v357.5c0 35.376-28.624 64-64 64s-64-28.624-64-64v-357.5l-146.75 146.75c-12.5 12.5-28.874 18.75-45.25 18.75s-32.75-6.25-45.25-18.75c-25-25-25-65.5 0-90.5l256-256c25-25 65.5-25 90.5 0l256 256c25 25 25 65.5 0 90.5s-65.5 25-90.5 0zM704 128h-640c-35.376 0-64-28.624-64-64s28.624-64 64-64h640c35.376 0 64 28.624 64 64s-28.624 64-64 64z" />
<glyph unicode="&#xe93c;" glyph-name="arrow-down-to-square" horiz-adv-x="896" d="M228.754 462.61c-26.058-23.906-27.808-64.438-3.938-90.532l175.996-192.188c24.25-26.514 70.126-26.514 94.376 0l175.996 192.188c23.87 26.094 22.12 66.626-3.938 90.532-27.43 25.148-67.8 20.734-90.438-3.938l-64.808-70.796v508.062c0 35.406-28.656 64.062-64 64.062s-64-28.656-64-64.062v-508.064l-64.808 70.798c-23.906 26.016-64.406 27.828-90.438 3.938zM768 704h-160v-128h160v-512h-640v512h160v128h-160c-70.562 0-128-57.438-128-128v-512c0-70.562 57.438-128 128-128h640c70.562 0 128 57.438 128 128v512c0 70.562-57.438 128-128 128z" />
<glyph unicode="&#xe93d;" glyph-name="arrow-down-triangle-square" d="M384.808 298.672l-64.808-70.796v604.062c0 35.406-28.658 64.062-64 64.062s-64-28.656-64-64.062v-604.064l-64.81 70.798c-22.844 24.906-63.254 28.86-90.436 3.938-26.060-23.906-27.81-64.438-3.938-90.532l175.996-192.188c24.25-26.516 70.124-26.516 94.374 0l175.996 192.188c23.872 26.094 22.122 66.626-3.936 90.532-26.032 23.89-66.532 22.078-90.438-3.938zM984.264 594.21l-166.254 274.228c-22.25 36.75-77.5 36.75-99.75 0l-166.5-274.228c-22-36.5 5.5-82.242 50-82.242h332.5c44.504 0 72.004 45.742 50.004 82.242zM896.014 383.968h-256.004c-35.346 0-64-28.656-64-64v-255.968c0-35.344 28.654-64 64-64h256.004c35.348 0 64 28.656 64 64v255.968c0 35.344-28.652 64-64 64z" />
<glyph unicode="&#xe93e;" glyph-name="arrow-down-wide-short" horiz-adv-x="1152" d="M831.996 384h-191.996c-35.348 0-64-28.656-64-64s28.652-64 64-64h191.996c35.346 0 64 28.656 64 64s-28.654 64-64 64zM1087.996 896h-447.996c-35.348 0-64-28.656-64-64s28.652-64 64-64h447.996c35.346 0 64 28.656 64 64s-28.654 64-64 64zM704 128h-64c-35.348 0-64-28.656-64-64s28.652-64 64-64h64c35.346 0 64 28.656 64 64s-28.654 64-64 64zM959.996 640h-319.996c-35.348 0-64-28.656-64-64s28.652-64 64-64h319.996c35.346 0 64 28.656 64 64s-28.654 64-64 64zM384.808 298.672l-64.808-70.796v604.062c0 35.406-28.658 64.062-64 64.062s-64-28.656-64-64.062v-604.064l-64.81 70.798c-12.624 13.766-29.874 20.766-47.218 20.766-15.438 0-30.938-5.564-43.218-16.828-26.060-23.906-27.81-64.438-3.938-90.532l175.996-192.188c24.25-26.516 70.124-26.516 94.374 0l175.996 192.188c23.872 26.094 22.122 66.626-3.936 90.532-26.032 23.89-66.532 22.078-90.438-3.938z" />
<glyph unicode="&#xe93f;" glyph-name="arrow-down-z-a" d="M208.812 19.892c24.25-26.522 70.124-26.522 94.374 0l175.996 192.188c23.872 26.094 22.122 66.626-3.936 90.532-26.032 23.89-66.532 22.078-90.438-3.946l-64.808-70.79v604.064c0 35.406-28.658 64.062-64 64.062s-64-28.656-64-64.062v-604.064l-64.81 70.79c-12.624 13.766-29.874 20.774-47.218 20.774-15.438 0-30.938-5.57-43.218-16.828-26.060-23.906-27.81-64.438-3.938-90.532l175.996-192.188zM640 768h101.5l-146.75-146.75c-18.314-18.312-23.782-45.812-13.876-69.75s33.25-39.5 59.126-39.5h256c35.342 0 64 28.624 64 64s-28.658 64-64 64h-101.5l146.75 146.75c18.312 18.312 23.78 45.812 13.874 69.75s-33.25 39.5-59.124 39.5h-256c-35.344 0-64-28.624-64-64s28.656-64 64-64zM985.226 93.376l-159.984 321.906c-21.684 43.624-92.802 43.624-114.486 0l-159.984-321.906c-15.812-31.814-3-70.478 28.622-86.384 31.746-15.844 70.086-2.952 85.866 28.798l14.31 28.788h176.858l14.31-28.788c12.348-24.852 47.948-47.744 85.866-28.798 31.622 15.906 44.434 54.57 28.622 86.384zM735.566 177.25l32.434 65.258 32.432-65.258h-64.866z" />
<glyph unicode="&#xe940;" glyph-name="arrow-left" horiz-adv-x="896" d="M896.008 448c0-44.188-35.812-80-80-80h-549.648l175.648-184.876c30.438-32.062 29.124-82.686-2.906-113.124-15.47-14.688-35.282-22-55.094-22-21.156 0-42.282 8.376-58 24.876l-304 320c-29.344 30.874-29.344 79.374 0 110.248l304 320c30.468 31.938 81.156 33.188 113.094 2.876 32.030-30.438 33.344-81.062 2.906-113.124l-175.648-184.876h549.648c44.188 0 80-35.812 80-80z" />
<glyph unicode="&#xe941;" glyph-name="arrow-left-from-line" horiz-adv-x="896" d="M365.25 237.25l-146.75 146.75h357.5c35.376 0 64 28.624 64 64s-28.624 64-64 64h-357.5l146.75 146.75c12.5 12.5 18.75 28.874 18.75 45.25s-6.25 32.75-18.75 45.25c-25 25-65.5 25-90.5 0l-256-256c-25-25-25-65.5 0-90.5l256-256c25-25 65.5-25 90.5 0s25 65.5 0 90.5zM768 768v-640c0-35.376 28.626-64 64-64s64 28.624 64 64v640c0 35.376-28.624 64-64 64s-64-28.624-64-64z" />
<glyph unicode="&#xe942;" glyph-name="arrow-left-long" d="M18.368 493.25l256 256c25 25 65.5 25 90.5 0s25-65.5 0-90.5l-146.75-146.75h741.5c35.374 0 64-28.624 64-64s-28.626-64-64-64h-741.5l146.75-146.75c25-25 25-65.5 0-90.5-24.986-24.986-65.486-25.014-90.5 0l-256 256c-25 25-25 65.5 0 90.5z" />
<glyph unicode="&#xe943;" glyph-name="arrow-left-rotate" d="M95.996 928c35.34 0 63.988-28.648 63.988-63.984v-90.626c89.734 97.032 216.47 154.61 352.016 154.61 264.688 0 480-215.312 480-480s-215.312-480-480-480c-104.938 0-204.5 33.188-288.062 96.062-35.314 26.564-42.438 76.688-15.876 112 26.626 35.314 76.812 42.438 112 15.876 55.626-41.814 122-63.938 191.938-63.938 176.438 0 320 143.562 320 320s-143.562 320-320 320c-101.508 0-195.882-48.188-255.886-128h0.238c-0.004 0-0.008-0.016-0.012-0.016h127.672c35.34 0 63.988-28.656 63.988-63.992 0-35.344-28.652-63.992-63.992-63.992h-288.016c-17.676 0-33.676 7.156-45.254 18.734s-18.738 27.578-18.738 45.258v288.016c0 35.344 28.652 63.992 63.996 63.992z" />
<glyph unicode="&#xe944;" glyph-name="arrow-left-to-line" horiz-adv-x="896" d="M621.25 749.25c-25 25-65.5 25-90.5 0l-256-256c-25-25-25-65.5 0-90.5l256-256c25-25 65.5-25 90.5 0 12.5 12.5 18.75 28.874 18.75 45.25s-6.25 32.75-18.75 45.25l-146.75 146.75h357.5c35.376 0 64 28.624 64 64s-28.624 64-64 64h-357.5l146.75 146.75c25 25 25 65.5 0 90.5zM64 832c-35.376 0-64-28.624-64-64v-640c0-35.376 28.624-64 64-64s64 28.624 64 64v640c0 35.376-28.624 64-64 64z" />
<glyph unicode="&#xe945;" glyph-name="arrow-pointer" horiz-adv-x="640" d="M636.898 351.048c-7.062-18.688-24.938-31.032-44.906-31.032h-210.040l90.298-189.636c18.992-39.882 2.062-87.61-37.816-106.612h-0.002c-39.89-19.006-87.636-2.070-106.634 37.826l-93.234 195.81-150.002-176.494c-9.282-10.938-22.75-16.906-36.562-16.906-5.564 0-11.156 0.968-16.562 2.938-18.876 6.936-31.438 24.938-31.438 45.064v736.034c0 18.876 11.062 36.002 28.25 43.752 17.25 7.688 37.406 4.688 51.498-7.75l543.994-480.022c14.968-13.22 20.218-34.314 13.156-52.972z" />
<glyph unicode="&#xe946;" glyph-name="arrow-right" horiz-adv-x="896" d="M874 392.876l-304-320c-15.718-16.5-36.844-24.876-58-24.876-19.812 0-39.624 7.312-55.094 22-32.030 30.438-33.344 81.062-2.906 113.124l175.648 184.876h-549.648c-44.188 0-80 35.812-80 80s35.812 80 80 80h549.648l-175.648 184.876c-30.438 32.062-29.124 82.686 2.906 113.124 32 30.376 82.656 29.062 113.094-2.876l304-320c29.344-30.874 29.344-79.374 0-110.248z" />
<glyph unicode="&#xe947;" glyph-name="arrow-right-arrow-left" d="M64 608h741.5l-114.75-114.75c-25-25-25-65.5 0-90.5 12.5-12.5 28.874-18.75 45.25-18.75s32.75 6.25 45.25 18.75l224 224c25 25 25 65.5 0 90.5l-224 224c-25 25-65.5 25-90.5 0s-25-65.5 0-90.5l114.75-114.75h-741.5c-35.376 0-64-28.624-64-64s28.624-64 64-64zM960 288h-741.5l114.75 114.75c25 25 25 65.5 0 90.5s-65.5 25-90.5 0l-224-224c-25-25-25-65.5 0-90.5l224-224c12.5-12.5 28.874-18.75 45.25-18.75s32.75 6.25 45.25 18.75c25 25 25 65.5 0 90.5l-114.75 114.75h741.5c35.376 0 64 28.624 64 64s-28.624 64-64 64z" />
<glyph unicode="&#xe948;" glyph-name="arrow-right-from-bracket" d="M320 128h-128c-35.348 0-64 28.656-64 64v512c0 35.344 28.652 64 64 64h128c35.348 0 64 28.656 64 64s-28.652 64-64 64h-128c-106.040 0-192-85.96-192-192v-512c0-106.040 85.96-192 192-192h128c35.348 0 64 28.656 64 64s-28.652 64-64 64zM1005.25 493.25l-256 256c-25.016 25.016-65.516 24.984-90.5 0-25-25-25-65.5 0-90.5l146.75-146.75h-421.5c-35.376 0-64-28.624-64-64s28.624-64 64-64h421.5l-146.75-146.75c-25-25-25-65.5 0-90.5s65.5-25 90.5 0l256 256c25 25 25 65.5 0 90.5z" />
<glyph unicode="&#xe949;" glyph-name="arrow-right-from-line" horiz-adv-x="896" d="M530.75 658.75l146.75-146.75h-357.5c-35.376 0-64-28.624-64-64s28.624-64 64-64h357.5l-146.75-146.75c-12.5-12.5-18.75-28.874-18.75-45.25s6.25-32.75 18.75-45.25c25-25 65.5-25 90.5 0l256 256c25 25 25 65.5 0 90.5l-256 256c-25 25-65.5 25-90.5 0s-25-65.5 0-90.5zM128 128v640c0 35.376-28.624 64-64 64s-64-28.624-64-64v-640c0-35.376 28.624-64 64-64s64 28.624 64 64z" />
<glyph unicode="&#xe94a;" glyph-name="arrow-right-long" d="M1005.25 402.75l-256-256c-25.014-25.014-65.514-24.986-90.5 0-25 25-25 65.5 0 90.5l146.75 146.75h-741.5c-35.376 0-64 28.624-64 64s28.624 64 64 64h741.5l-146.75 146.75c-25 25-25 65.5 0 90.5s65.5 25 90.5 0l256-256c25-25 25-65.5 0-90.5z" />
<glyph unicode="&#xe94b;" glyph-name="arrow-right-to-bracket" d="M832 896h-128c-35.348 0-64-28.656-64-64s28.652-64 64-64h128c35.348 0 64-28.656 64-64v-512c0-35.344-28.652-64-64-64h-128c-35.348 0-64-28.656-64-64s28.652-64 64-64h128c106.040 0 192 85.96 192 192v512c0 106.040-85.96 192-192 192zM685.25 493.25l-256 256c-25.016 25.016-65.516 24.984-90.5 0-25-25-25-65.5 0-90.5l146.75-146.75h-421.5c-35.376 0-64-28.624-64-64s28.624-64 64-64h421.5l-146.75-146.75c-25-25-25-65.5 0-90.5s65.5-25 90.5 0l256 256c25 25 25 65.5 0 90.5z" />
<glyph unicode="&#xe94c;" glyph-name="arrow-right-to-line" horiz-adv-x="896" d="M274.75 658.75l146.75-146.75h-357.5c-35.376 0-64-28.624-64-64s28.624-64 64-64h357.5l-146.75-146.75c-12.5-12.5-18.75-28.874-18.75-45.25s6.25-32.75 18.75-45.25c25-25 65.5-25 90.5 0l256 256c25 25 25 65.5 0 90.5l-256 256c-25 25-65.5 25-90.5 0s-25-65.5 0-90.5zM768 768v-640c0-35.376 28.624-64 64-64s64 28.624 64 64v640c0 35.376-28.624 64-64 64s-64-28.624-64-64z" />
<glyph unicode="&#xe94d;" glyph-name="arrow-rotate-forward" d="M992 864.008v-288.016c0-17.68-7.16-33.68-18.738-45.258s-27.578-18.734-45.254-18.734h-288.016c-35.34 0-63.992 28.648-63.992 63.992 0 35.336 28.648 63.992 63.988 63.992h127.672c-0.004 0-0.008 0.016-0.012 0.016h0.238c-60.004 79.812-154.378 128-255.886 128-176.438 0-320-143.562-320-320s143.562-320 320-320c69.938 0 136.312 22.124 191.938 63.938 35.186 26.562 85.374 19.436 112-15.876 26.562-35.312 19.436-85.438-15.876-112-83.562-62.874-183.124-96.062-288.062-96.062-264.688 0-480 215.312-480 480s215.312 480 480 480c135.546 0 262.282-57.578 352.016-154.61v90.626c0 35.336 28.648 63.984 63.988 63.984 35.344 0 63.996-28.648 63.996-63.992z" />
<glyph unicode="&#xe94e;" glyph-name="arrows-cross" horiz-adv-x="896" d="M891.074 856.438c-6.484 15.68-18.956 28.156-34.64 34.64-7.812 3.226-16.11 4.922-24.434 4.922h-256c-35.374 0-64-28.624-64-64s28.626-64 64-64h101.5l-658.75-658.75c-25-25-25-65.5 0-90.5 24.984-24.984 65.484-25.016 90.5 0l658.75 658.75v-101.5c0-35.376 28.626-64 64-64s64 28.624 64 64v256c0 8.328-1.696 16.624-4.926 24.438zM312.25 493.25l90.5 90.5-293.5 293.5c-25 25-65.5 25-90.5 0-24.984-24.984-25.016-65.484 0-90.5l293.5-293.5zM832 384c-35.374 0-64-28.624-64-64v-101.5l-184.25 184.25-90.5-90.5 184.25-184.25h-101.5c-35.374 0-64-28.624-64-64s28.626-64 64-64h256c8.328 0 16.626 1.696 24.438 4.922 15.68 6.484 28.156 18.96 34.64 34.64 3.226 7.814 4.922 16.11 4.922 24.438v256c0 35.376-28.624 64-64 64z" />
<glyph unicode="&#xe94f;" glyph-name="arrows-from-dotted-line" horiz-adv-x="896" d="M448 512.046c-35.348 0-64-28.658-64-64.004s28.652-64.006 64-64.006 64 28.658 64 64.006-28.652 64.004-64 64.004zM64 512.046c-35.348 0-64-28.658-64-64.004s28.652-64.006 64-64.006 64 28.658 64 64.006-28.652 64.004-64 64.004zM320 448.042c0 35.346-28.652 64.004-64 64.004s-64-28.658-64-64.004 28.652-64.006 64-64.006 64 28.658 64 64.006zM832 512.046c-35.348 0-64-28.658-64-64.004s28.652-64.006 64-64.006 64 28.658 64 64.006-28.652 64.004-64 64.004zM640 512.046c-35.348 0-64-28.658-64-64.004s28.652-64.006 64-64.006 64 28.658 64 64.006-28.652 64.004-64 64.004zM320 704.062c16.376 0 32.75 6.25 45.25 18.752l18.75 18.75v-101.508c0-35.378 28.624-64.004 64-64.004s64 28.626 64 64.004v101.508l18.75-18.75c12.5-12.502 28.874-18.752 45.25-18.752 36.558 0 64 29.894 64 64.004 0 16.376-6.25 32.754-18.75 45.254l-127.918 127.932c-16.090 16.144-35.444 18.748-45.334 18.748-9.794 0-29.188-2.552-45.33-18.748l-127.918-127.932c-12.5-12.5-18.75-28.878-18.75-45.254 0-34.108 27.462-64.004 64-64.004zM576 192.020c-16.376 0-32.75-6.25-45.25-18.752l-18.75-18.75v101.508c0 35.378-28.624 64.004-64 64.004s-64-28.626-64-64.004v-101.508l-18.75 18.75c-12.5 12.502-28.874 18.752-45.25 18.752-36.558 0-64-29.894-64-64.004 0-16.376 6.25-32.754 18.75-45.254l127.918-127.932c16.020-16.086 35.62-18.83 45.332-18.83 9.694 0 29.308 2.742 45.332 18.83l127.918 127.932c12.5 12.5 18.75 28.878 18.75 45.254 0 34.108-27.462 64.004-64 64.004z" />
<glyph unicode="&#xe950;" glyph-name="arrows-from-line" horiz-adv-x="896" d="M320 704.062c16.376 0 32.75 6.25 45.25 18.75l18.75 18.75v-101.5c0-35.382 28.624-64.016 64-64.016s64 28.634 64 64.016v101.5l18.75-18.75c12.5-12.5 28.874-18.75 45.25-18.75 36.558 0 64 29.892 64 64 0 16.384-6.25 32.758-18.75 45.258l-127.918 127.93c-16.090 16.148-35.446 18.75-45.332 18.75-9.796 0-29.192-2.546-45.332-18.75l-127.918-127.93c-12.5-12.5-18.75-28.874-18.75-45.258 0-34.108 27.46-64 64-64zM576 192.024c-16.376 0-32.75-6.258-45.25-18.758l-18.75-18.75v101.516c0 35.374-28.624 64-64 64s-64-28.626-64-64v-101.516l-18.75 18.75c-12.5 12.5-28.874 18.758-45.25 18.758-36.558 0-64-29.9-64-64.008 0-16.376 6.25-32.75 18.75-45.25l127.918-127.938c16.020-16.078 35.622-18.828 45.332-18.828 9.696 0 29.308 2.742 45.332 18.828l127.918 127.938c12.5 12.5 18.75 28.874 18.75 45.25 0 34.108-27.46 64.008-64 64.008zM832 512.046h-768c-35.376 0-64-28.624-64-64s28.624-64 64-64h768c35.376 0 64 28.626 64 64s-28.624 64-64 64z" />
<glyph unicode="&#xe951;" glyph-name="arrows-left-right" d="M1005.25 402.75l-192-192c-12.5-12.5-28.876-18.75-45.25-18.75s-32.75 6.25-45.25 18.75c-25 25-25 65.5 0 90.5l82.75 82.75h-587l82.75-82.75c25-25 25-65.5 0-90.5-12.5-12.5-28.876-18.75-45.25-18.75s-32.75 6.25-45.25 18.75l-192 192c-25 25-25 65.5 0 90.5l192 192c25 25 65.5 25 90.5 0s25-65.5 0-90.5l-82.75-82.75h587l-82.75 82.75c-25 25-25 65.5 0 90.5s65.5 25 90.5 0l192-192c25-25 25-65.5 0-90.5z" />
<glyph unicode="&#xe952;" glyph-name="arrows-maximize" horiz-adv-x="896" d="M832 512c35.376 0 64 28.624 64 64v256c0 8.328-1.696 16.624-4.926 24.438-6.484 15.68-18.956 28.156-34.64 34.64-7.812 3.226-16.11 4.922-24.434 4.922h-256c-35.376 0-64-28.624-64-64s28.624-64 64-64h101.5l-229.5-229.5-229.5 229.5h101.5c35.376 0 64 28.624 64 64s-28.624 64-64 64h-256c-8.324 0-16.622-1.696-24.434-4.922-15.684-6.484-28.156-18.96-34.64-34.64-3.23-7.814-4.926-16.11-4.926-24.438v-256c0-35.376 28.624-64 64-64s64 28.624 64 64v101.5l229.5-229.5-229.5-229.5v101.5c0 35.376-28.624 64-64 64s-64-28.624-64-64v-256c0-8.328 1.696-16.624 4.922-24.438 6.484-15.68 18.96-28.156 34.64-34.64 7.814-3.226 16.11-4.922 24.438-4.922h256c35.376 0 64 28.624 64 64s-28.624 64-64 64h-101.5l229.5 229.5 229.5-229.5h-101.5c-35.376 0-64-28.624-64-64s28.624-64 64-64h256c8.328 0 16.624 1.696 24.438 4.922 15.68 6.484 28.156 18.96 34.64 34.64 3.226 7.814 4.922 16.11 4.922 24.438v256c0 35.376-28.624 64-64 64s-64-28.624-64-64v-101.5l-229.5 229.5 229.5 229.5v-101.5c0-35.376 28.624-64 64-64z" />
<glyph unicode="&#xe953;" glyph-name="arrows-minimize" d="M408.446 379.070c-7.82 3.234-16.118 4.93-24.446 4.93h-256c-35.374 0-64-28.624-64-64s28.626-64 64-64h101.5l-210.75-210.75c-25-25-25-65.5 0-90.5s65.5-25 90.5 0l210.75 210.75v-101.5c0-35.376 28.626-64 64-64s64 28.624 64 64v256c0 8.328-1.696 16.624-4.93 24.446-6.48 15.664-18.956 28.148-34.624 34.624zM615.566 516.922c7.812-3.226 16.11-4.922 24.434-4.922h256c35.376 0 64 28.624 64 64s-28.624 64-64 64h-101.5l210.75 210.75c25 25 25 65.5 0 90.5-24.984 24.984-65.484 25.016-90.5 0l-210.75-210.75v101.5c0 35.376-28.624 64-64 64s-64-28.624-64-64v-256c0-8.328 1.696-16.624 4.926-24.438 6.484-15.68 18.956-28.156 34.64-34.64zM384 896c-35.374 0-64-28.624-64-64v-101.5l-210.75 210.75c-25 25-65.5 25-90.5 0s-25-65.5 0-90.5l210.75-210.75h-101.5c-35.374 0-64-28.624-64-64s28.626-64 64-64h256c8.328 0 16.626 1.696 24.446 4.93 15.664 6.476 28.148 18.96 34.624 34.624 3.234 7.822 4.93 16.118 4.93 24.446v256c0 35.376-28.624 64-64 64zM794.5 256h101.5c35.376 0 64 28.624 64 64s-28.624 64-64 64h-256c-8.328 0-16.624-1.696-24.438-4.922-15.68-6.484-28.156-18.96-34.64-34.64-3.226-7.814-4.922-16.11-4.922-24.438v-256c0-35.376 28.626-64 64-64s64 28.624 64 64v101.5l210.75-210.75c25-25 65.5-25 90.5 0 24.984 24.984 25.016 65.484 0 90.5l-210.75 210.75z" />
<glyph unicode="&#xe954;" glyph-name="arrows-repeat" d="M330.392 640h347.118l-82.75-82.75c-25-25-25-65.5 0-90.5 24.984-24.984 65.484-25.016 90.496 0l191.996 192c25 25 25 65.5 0 90.5l-191.996 192c-24.996 25-65.496 25-90.496 0s-25-65.5 0-90.5l82.75-82.75h-347.118c-148.652 0-280.086-94.75-327.086-235.75-11.188-33.562 6.938-69.812 40.5-80.938 6.688-2.25 13.532-3.312 20.218-3.312 26.814 0 51.782 16.938 60.716 43.75 29.53 88.688 112.188 148.25 205.652 148.25zM980.196 444.688c-6.686 2.25-13.53 3.312-20.218 3.312-26.812 0-51.782-16.938-60.718-43.75-29.528-88.688-112.184-148.25-205.65-148.25h-347.116l82.75 82.75c25 25 25 65.5 0 90.5-24.984 24.984-65.484 25.016-90.5 0l-191.992-192c-25-25-25-65.5 0-90.5l191.992-192c25-25 65.5-25 90.5 0s25 65.5 0 90.5l-82.75 82.75h347.116c148.654 0 280.086 94.75 327.086 235.75 11.188 33.562-6.936 69.812-40.5 80.938z" />
<glyph unicode="&#xe955;" glyph-name="arrows-repeat-1" d="M528.002 320c26.5 0 48 21.5 48 48v160c0 26.626-21.612 47.998-48.022 47.998-5.092 0-10.212-0.806-15.166-2.436l-48-16c-20.116-6.746-32.82-25.444-32.82-45.544 0-26.68 21.644-48.018 48.008-48.018v-96c0-26.5 21.5-48 48-48zM1024.002 384.020c0 35.374-28.782 63.98-64.024 63.98-26.812 0-51.782-16.938-60.718-43.75-29.528-88.688-112.184-148.25-205.65-148.25h-501.608c-35.344 0-64-28.624-64-64 0-16.376 6.25-32.75 18.75-45.25l191.992-192c12.5-12.5 28.874-18.75 45.25-18.75 34.106 0 64 27.462 64 64 0 16.376-6.25 32.75-18.75 45.25l-82.75 82.75h347.116c261.91 0 330.392 238.386 330.392 256.020zM330.392 640h501.61c35.344 0 64 28.624 64 64 0 16.376-6.25 32.75-18.75 45.25l-191.992 192c-12.5 12.5-28.876 18.75-45.25 18.75-34.108 0-64-27.462-64-64 0-16.376 6.25-32.75 18.75-45.25l82.75-82.75h-347.118c-261.908 0-330.392-238.386-330.392-256.020 0-35.374 28.784-63.98 64.024-63.98 26.814 0 51.782 16.938 60.72 43.75 29.526 88.688 112.184 148.25 205.648 148.25z" />
<glyph unicode="&#xe956;" glyph-name="arrows-retweet" horiz-adv-x="1280" d="M333.246 256c-17.674 0-32 14.326-32 32l0.004 325.5 82.75-82.75c25-25 65.5-25 90.5 0s25 65.5 0 90.5l-192 192c-12.5 12.5-28.876 18.75-45.25 18.75s-32.75-6.25-45.25-18.75l-192-192c-25-25-25-65.5 0-90.5s65.5-25 90.5 0l82.75 82.75-0.004-357.498c0-70.694 57.308-128.002 128-128.002h293.16c56.742 0 85.42 68.37 45.656 108.848v0c-12.034 12.252-28.486 19.152-45.658 19.152h-261.158zM1242.5 365.25c-25 25-65.5 25-90.5 0l-82.75-82.75 0.004 357.498c0 70.694-57.308 128.002-128 128.002h-293.16c-56.742 0-85.42-68.37-45.656-108.848v0c12.034-12.252 28.486-19.152 45.658-19.152h261.158c17.674 0 32-14.326 32-32l-0.004-325.5-82.75 82.75c-25 25-65.5 25-90.5 0s-25-65.5 0-90.5l192-192c12.5-12.5 28.874-18.75 45.25-18.75s32.75 6.25 45.25 18.75l192 192c25 25 25 65.5 0 90.5z" />
<glyph unicode="&#xe957;" glyph-name="arrows-rotate" d="M928.008 928c-35.336 0-63.992-28.648-63.992-63.984v-90.626c-89.754 97.024-216.47 154.61-352.016 154.61-206.156 0-388.938-131.188-454.876-326.376-14.156-41.874 8.314-87.248 50.188-101.436 8.47-2.876 17.126-4.188 25.594-4.188 33.376 0 64.532 21 75.782 54.376 43.968 130.186 165.844 217.624 303.312 217.624 101.508 0 195.864-48.188 255.86-128l-95.876-0.016c-35.336 0-63.984-28.648-63.984-63.984 0-35.344 28.648-64 63.992-64h256.016c17.68 0 33.68 7.156 45.258 18.734s18.734 27.578 18.734 45.258v288.016c0 35.336-28.648 63.992-63.992 63.992zM916.688 395.812c-42.064 14.25-87.25-8.374-101.406-50.25-43.906-130.124-165.814-217.562-303.282-217.562-101.508 0-195.864 48.188-255.86 128l95.876 0.016c35.336 0 63.984 28.648 63.984 63.984 0 35.344-28.648 64-63.992 64h-256.016c-17.68 0-33.68-7.156-45.258-18.734s-18.734-27.578-18.734-45.258v-288.016c0-35.336 28.648-63.992 63.992-63.992 35.336 0 63.992 28.648 63.992 63.984v90.626c89.754-97.024 216.47-154.61 352.016-154.61 206.188 0 389 131.188 454.906 326.438 14.126 41.812-8.374 87.25-50.218 101.374z" />
<glyph unicode="&#xe958;" glyph-name="arrows-to-dotted-line" horiz-adv-x="896" d="M64 512c-35.348 0-64-28.656-64-64s28.652-64 64-64 64 28.656 64 64-28.652 64-64 64zM320 448c0 35.344-28.652 64-64 64s-64-28.656-64-64 28.652-64 64-64 64 28.656 64 64zM384 448c0-35.344 28.652-64 64-64s64 28.656 64 64-28.652 64-64 64-64-28.656-64-64zM832 512c-35.348 0-64-28.656-64-64s28.652-64 64-64 64 28.656 64 64-28.652 64-64 64zM640 512c-35.348 0-64-28.656-64-64s28.652-64 64-64 64 28.656 64 64-28.652 64-64 64zM402.75 594.75c12.5-12.5 28.874-18.75 45.25-18.75s32.75 6.25 45.25 18.75l128 128c12.5 12.5 18.75 28.874 18.75 45.25 0 34.106-27.462 64-64 64-16.376 0-32.75-6.25-45.25-18.75l-18.75-18.75v101.5c0 35.376-28.624 64-64 64s-64-28.624-64-64v-101.5l-18.75 18.75c-12.5 12.5-28.874 18.75-45.25 18.75-36.558 0-64-29.894-64-64 0-16.376 6.25-32.75 18.75-45.25l128-128zM493.25 301.25c-12.5 12.5-28.874 18.75-45.25 18.75s-32.75-6.25-45.25-18.75l-128-128c-12.5-12.5-18.75-28.874-18.75-45.25 0-34.106 27.462-64 64-64 16.376 0 32.75 6.25 45.25 18.75l18.75 18.75v-101.5c0-35.376 28.624-64 64-64s64 28.624 64 64v101.5l18.75-18.75c12.5-12.5 28.874-18.75 45.25-18.75 36.558 0 64 29.894 64 64 0 16.376-6.25 32.75-18.75 45.25l-128 128z" />
<glyph unicode="&#xe959;" glyph-name="arrows-to-line" horiz-adv-x="896" d="M402.75 594.75c12.5-12.5 28.874-18.75 45.25-18.75s32.75 6.25 45.25 18.75l128 128c12.5 12.5 18.75 28.874 18.75 45.25 0 34.11-27.46 64-64 64-16.376 0-32.75-6.25-45.25-18.75l-18.75-18.75v101.5c0 35.376-28.624 64-64 64s-64-28.624-64-64v-101.5l-18.75 18.75c-12.5 12.5-28.874 18.75-45.25 18.75-36.558 0-64-29.89-64-64 0-16.376 6.25-32.75 18.75-45.25l128-128zM493.25 301.25c-12.5 12.5-28.874 18.75-45.25 18.75s-32.75-6.25-45.25-18.75l-128-128c-12.5-12.5-18.75-28.874-18.75-45.25 0-34.11 27.46-64 64-64 16.376 0 32.75 6.25 45.25 18.75l18.75 18.75v-101.5c0-35.376 28.624-64 64-64s64 28.624 64 64v101.5l18.75-18.75c12.5-12.5 28.874-18.75 45.25-18.75 36.558 0 64 29.89 64 64 0 16.376-6.25 32.75-18.75 45.25l-128 128zM832 512.046h-768c-35.376 0-64-28.624-64-64s28.624-64 64-64h768c35.376 0 64 28.626 64 64s-28.624 64-64 64z" />
<glyph unicode="&#xe95a;" glyph-name="arrows-up-down" horiz-adv-x="512" d="M493.25 237.25c12.5-12.5 18.75-28.874 18.75-45.25s-6.25-32.75-18.75-45.25l-192-192c-25-25-65.5-25-90.5 0l-192 192c-25 25-25 65.5 0 90.5s65.5 25 90.5 0l82.75-82.75v587l-82.75-82.75c-25-25-65.5-25-90.5 0s-25 65.5 0 90.5l192 192c25 25 65.5 25 90.5 0l192-192c12.5-12.5 18.75-28.874 18.75-45.25s-6.25-32.75-18.75-45.25c-25-25-65.5-25-90.5 0l-82.75 82.75v-587l82.75 82.75c25 25 65.5 25 90.5 0z" />
<glyph unicode="&#xe95b;" glyph-name="arrows-up-down-left-right" d="M1024 448c0-16.376-6.25-32.75-18.75-45.25l-144-144c-12.5-12.5-28.874-18.75-45.25-18.75-36.558 0-64 29.894-64 64 0 16.376 6.25 32.75 18.75 45.25l34.75 34.75h-229.5v-229.5l34.75 34.75c12.5 12.5 28.874 18.75 45.25 18.75 36.558 0 64-29.894 64-64 0-16.376-6.25-32.75-18.75-45.25l-144-144c-12.5-12.5-28.874-18.75-45.25-18.75s-32.75 6.25-45.25 18.75l-144 144c-12.5 12.5-18.75 28.874-18.75 45.25 0 34.106 27.462 64 64 64 16.376 0 32.75-6.25 45.25-18.75l34.75-34.75v229.5h-229.5l34.75-34.75c12.5-12.5 18.75-28.874 18.75-45.25 0-34.106-27.462-64-64-64-16.376 0-32.75 6.25-45.25 18.75l-144 144c-12.5 12.5-18.75 28.874-18.75 45.25s6.25 32.75 18.75 45.25l144 144c12.5 12.5 28.874 18.75 45.25 18.75 36.558 0 64-29.894 64-64 0-16.376-6.25-32.75-18.75-45.25l-34.75-34.75h229.5v229.5l-34.75-34.75c-12.5-12.5-28.874-18.75-45.25-18.75-36.558 0-64 29.894-64 64 0 16.376 6.25 32.75 18.75 45.25l144 144c12.5 12.5 28.874 18.75 45.25 18.75s32.75-6.25 45.25-18.75l144-144c12.5-12.5 18.75-28.874 18.75-45.25 0-34.106-27.462-64-64-64-16.376 0-32.75 6.25-45.25 18.75l-34.75 34.75v-229.5h229.5l-34.75 34.75c-12.5 12.5-18.75 28.874-18.75 45.25 0 34.106 27.462 64 64 64 16.376 0 32.75-6.25 45.25-18.75l144-144c12.5-12.5 18.75-28.874 18.75-45.25z" />
<glyph unicode="&#xe95c;" glyph-name="arrow-trend-down" horiz-adv-x="1152" d="M1152 192c0-41.802-35.262-64-64-64h-320c-35.376 0-64 28.656-64 64s28.624 64 64 64h165.5l-293.5 293.5-210.75-210.75c-12.5-12.5-28.874-18.75-45.25-18.75s-32.75 6.25-45.25 18.75l-320 320c-12.5 12.5-18.75 28.874-18.75 45.25 0 36.558 29.894 64 64 64 16.376 0 32.75-6.25 45.25-18.75l274.75-274.75 210.75 210.75c12.5 12.5 28.874 18.75 45.25 18.75s32.75-6.25 45.25-18.75l338.75-338.75v165.5c0 35.344 28.624 64 64 64s64-28.656 64-64v-320z" />
<glyph unicode="&#xe95d;" glyph-name="arrow-trend-up" horiz-adv-x="1152" d="M1152 704v-320c0-35.344-28.624-64-64-64s-64 28.656-64 64v165.5l-338.75-338.75c-12.5-12.5-28.874-18.75-45.25-18.75s-32.75 6.25-45.25 18.75l-210.75 210.75-274.75-274.75c-12.5-12.5-28.874-18.75-45.25-18.75-36.558 0-64 29.894-64 64 0 16.376 6.25 32.75 18.75 45.25l320 320c12.5 12.5 28.874 18.75 45.25 18.75s32.75-6.25 45.25-18.75l210.75-210.75 293.5 293.5h-165.5c-35.376 0-64 28.656-64 64s28.624 64 64 64h320c33.55 0 64-26.744 64-64z" />
<glyph unicode="&#xe95e;" glyph-name="arrow-turn-down" horiz-adv-x="768" d="M678.718 182.624l-240-225c-15.374-14.436-35.062-21.624-54.718-21.624s-39.344 7.188-54.718 21.624l-240 225c-32.22 30.25-33.876 80.876-3.658 113.064 30.22 32.25 80.844 33.874 113.094 3.688l105.282-98.696v599.32h-224c-44.188 0-80 35.812-80 80s35.812 80 80 80h304c44.188 0 80-35.812 80-80v-679.32l105.282 98.696c32.25 30.186 82.874 28.562 113.092-3.688 30.22-32.188 28.564-82.812-3.656-113.064z" />
<glyph unicode="&#xe95f;" glyph-name="arrow-turn-up" horiz-adv-x="768" d="M682.374 600.312c-30.218-32.25-80.842-33.874-113.092-3.688l-105.282 98.696v-679.32c0-44.188-35.812-80-80-80h-304c-44.188 0-80 35.812-80 80s35.812 80 80 80h224v599.32l-105.282-98.696c-32.25-30.186-82.874-28.562-113.094 3.688-30.218 32.188-28.562 82.812 3.658 113.064l240 225c15.374 14.436 35.062 21.624 54.718 21.624s39.344-7.188 54.718-21.624l240-225c32.22-30.252 33.876-80.876 3.656-113.064z" />
<glyph unicode="&#xe960;" glyph-name="arrow-up" horiz-adv-x="896" d="M826 456.876c-15.72-16.5-36.844-24.876-58-24.876-19.814 0-39.626 7.312-55.094 22l-184.906 175.64v-549.64c0-44.188-35.814-80-80-80s-80 35.812-80 80v549.64l-184.906-175.64c-31.97-30.376-82.626-29.062-113.094 2.876-30.438 32.062-29.126 82.686 2.906 113.124l320 304c30.874 29.376 79.312 29.376 110.188 0l320-304c32.030-30.438 33.342-81.062 2.906-113.124z" />
<glyph unicode="&#xe961;" glyph-name="arrow-up-1-9" d="M639.996 576.002c0-35.376 28.624-64 64-64h128c35.374 0 64 28.624 64 64s-28.626 64-64 64v192.032c0 22.374-11.688 43.062-30.75 54.686-19.064 11.564-42.814 12.376-62.688 2.126l-64-33.188c-31.376-16.25-43.626-54.874-27.376-86.258 11.376-22.008 33.688-34.57 56.814-34.57v-94.828c-35.376 0-64-28.626-64-64zM783.996 448.892c-97.204 0-176-78.796-176-176 0-72.874 44.292-135.398 107.426-162.132l-15.364-16.008c-21.438-22.312-20.688-57.75 1.624-79.126 10.814-10.436 24.814-15.624 38.75-15.624 14.688 0 29.438 5.75 40.376 17.25 139.222 145.062 179.192 170.782 179.192 255.64 0 97.204-78.802 176-176.004 176zM783.996 224.892c-26.47 0-48 21.532-48 48s21.53 48 48 48 48.004-21.53 48.004-48-21.536-48-48.004-48zM79.972 576.568c17.344 0 34.594 7 47.218 20.766l64.81 70.796v-604.062c0-35.406 28.656-64.062 64-64.062s64 28.656 64 64.062v604.062l64.808-70.796c23.906-26.016 64.406-27.828 90.438-3.938 26.058 23.906 27.808 64.438 3.936 90.532l-175.996 192.188c-24.25 26.514-70.124 26.514-94.374 0l-175.996-192.188c-23.872-26.094-22.122-66.626 3.938-90.532 12.28-11.266 27.78-16.828 43.218-16.828z" />
<glyph unicode="&#xe962;" glyph-name="arrow-up-9-1" d="M475.246 593.394c26.058 23.906 27.808 64.438 3.936 90.532l-175.996 192.188c-24.25 26.514-70.124 26.514-94.374 0l-175.996-192.188c-23.872-26.094-22.122-66.626 3.938-90.532 26.030-23.89 66.53-22.078 90.436 3.938l64.81 70.796v-604.062c0-35.406 28.656-64.062 64-64.062s64 28.656 64 64.062v604.062l64.808-70.796c12.624-13.766 29.874-20.766 47.218-20.766 15.438 0 30.938 5.562 43.22 16.828zM715.422 557.868l-15.364-16.008c-21.438-22.314-20.688-57.75 1.624-79.126 10.814-10.438 24.814-15.624 38.75-15.624 14.688 0 29.438 5.75 40.376 17.25 139.222 145.062 179.192 170.78 179.192 255.64 0 97.204-78.802 176-176.004 176s-176-78.796-176-176c0-72.876 44.292-135.398 107.426-162.132zM783.996 768c26.468 0 48.004-21.532 48.004-48s-21.536-48-48.004-48-48 21.532-48 48 21.53 48 48 48zM831.996 127.11v192.030c0 22.376-11.688 43.064-30.75 54.688-19.064 11.562-42.814 12.376-62.688 2.126l-64-33.188c-31.376-16.25-43.626-54.876-27.376-86.258 11.376-22.008 33.688-34.57 56.814-34.57v-94.828c-35.376 0-64-28.626-64-64s28.624-64 64-64h128c35.374 0 64 28.624 64 64s-28.626 64-64 64z" />
<glyph unicode="&#xe963;" glyph-name="arrow-up-arrow-down" horiz-adv-x="896" d="M36.754 593.39c27.182-24.922 67.592-20.96 90.436 3.946l64.81 70.788v-604.062c0-35.406 28.656-64.062 64-64.062s64 28.656 64 64.062v604.062l64.808-70.788c23.906-26.024 64.406-27.836 90.438-3.946 26.058 23.906 27.808 64.438 3.936 90.532l-175.996 192.188c-24.25 26.522-70.124 26.522-94.374 0l-175.996-192.188c-23.872-26.094-22.122-66.626 3.938-90.532zM420.754 302.61c-26.060-23.906-27.81-64.438-3.938-90.532l175.996-192.188c24.25-26.514 70.124-26.514 94.374 0l175.996 192.188c23.872 26.094 22.122 66.626-3.936 90.532-27.184 24.922-67.594 20.968-90.438-3.938l-64.808-70.796v604.062c0 35.406-28.658 64.062-64 64.062s-64-28.656-64-64.062v-604.064l-64.81 70.798c-23.906 26.016-64.406 27.828-90.436 3.938z" />
<glyph unicode="&#xe964;" glyph-name="arrow-up-a-z" d="M303.186 876.11c-24.25 26.522-70.124 26.522-94.374 0l-175.996-192.188c-23.872-26.094-22.122-66.626 3.938-90.532 26.030-23.89 66.53-22.078 90.436 3.946l64.81 70.788v-604.062c0-35.406 28.656-64.062 64-64.062s64 28.656 64 64.062v604.062l64.808-70.788c22.914-24.984 63.34-28.79 90.438-3.946 26.058 23.906 27.808 64.438 3.936 90.532l-175.996 192.188zM896 128h-101.5l146.75 146.75c18.312 18.312 23.78 45.812 13.874 69.75s-33.25 39.5-59.124 39.5h-256c-35.344 0-64-28.624-64-64s28.656-64 64-64h101.5l-146.75-146.75c-18.314-18.312-23.782-45.812-13.876-69.75s33.25-39.5 59.126-39.5h256c35.342 0 64 28.624 64 64s-28.658 64-64 64zM985.226 541.376l-159.984 321.906c-21.684 43.624-92.802 43.624-114.486 0l-159.984-321.906c-15.812-31.814-3-70.478 28.622-86.384 31.746-15.844 70.086-2.952 85.866 28.798l14.31 28.788h176.858l14.31-28.788c12.348-24.852 47.948-47.744 85.866-28.798 31.622 15.906 44.434 54.57 28.622 86.384zM735.566 625.25l32.434 65.258 32.432-65.258h-64.866z" />
<glyph unicode="&#xe965;" glyph-name="arrow-up-big-small" d="M832 320h-192c-35.2 0-64-28.796-64-64v-192c0-35.204 28.8-64 64-64h192c35.198 0 64 28.796 64 64v192c0 35.204-28.802 64-64 64zM960 896h-320c-35.348 0-64-28.656-64-64v-320c0-35.344 28.652-64 64-64h320c35.346 0 64 28.656 64 64v320c0 35.344-28.654 64-64 64zM303.186 876.11c-24.25 26.522-70.124 26.522-94.374 0l-175.996-192.188c-23.872-26.094-22.122-66.626 3.938-90.532 26.030-23.89 66.53-22.078 90.436 3.946l64.81 70.788v-604.062c0-35.406 28.656-64.062 64-64.062s64 28.656 64 64.062v604.062l64.808-70.788c12.624-13.766 29.874-20.774 47.218-20.774 15.438 0 30.938 5.57 43.22 16.828 26.058 23.906 27.808 64.438 3.936 90.532l-175.996 192.188z" />
<glyph unicode="&#xe966;" glyph-name="arrow-up-from-bracket" horiz-adv-x="896" d="M768 256.066v-128c0-35.348-28.656-64-64-64h-512c-35.344 0-64 28.652-64 64v128c0 35.348-28.656 64-64 64s-64-28.652-64-64v-128c0-106.038 85.96-192 192-192h512c106.040 0 192 85.962 192 192v128c0 35.348-28.656 64-64 64s-64-28.652-64-64zM402.75 941.316l-256-256c-25.016-25.016-24.984-65.516 0-90.5 25-25 65.5-25 90.5 0l146.75 146.75v-421.5c0-35.374 28.624-64 64-64s64 28.626 64 64v421.5l146.75-146.75c25-25 65.5-25 90.5 0s25 65.5 0 90.5l-256 256c-25 25-65.5 25-90.5 0z" />
<glyph unicode="&#xe967;" glyph-name="arrow-up-from-dotted-line" horiz-adv-x="896" d="M256 128c-35.348 0-64-28.656-64-64s28.652-64 64-64 64 28.656 64 64-28.652 64-64 64zM448 128c-35.348 0-64-28.656-64-64s28.652-64 64-64 64 28.656 64 64-28.652 64-64 64zM64 128c-35.348 0-64-28.656-64-64s28.652-64 64-64 64 28.656 64 64-28.652 64-64 64zM749.25 621.25l-256 256c-25 25-65.5 25-90.5 0l-256-256c-25-25-25-65.5 0-90.5s65.5-25 90.5 0l146.75 146.75v-357.5c0-35.376 28.624-64 64-64s64 28.624 64 64v357.5l146.75-146.75c12.5-12.5 28.874-18.75 45.25-18.75s32.75 6.25 45.25 18.75c25 25 25 65.5 0 90.5zM640 128c-35.348 0-64-28.656-64-64s28.652-64 64-64 64 28.656 64 64-28.652 64-64 64zM832 128c-35.348 0-64-28.656-64-64s28.652-64 64-64 64 28.656 64 64-28.652 64-64 64z" />
<glyph unicode="&#xe968;" glyph-name="arrow-up-from-line" horiz-adv-x="768" d="M173.25 530.75l146.75 146.75v-357.5c0-35.376 28.624-64 64-64s64 28.624 64 64v357.5l146.75-146.75c12.5-12.5 28.874-18.75 45.25-18.75s32.75 6.25 45.25 18.75c25 25 25 65.5 0 90.5l-256 256c-25 25-65.5 25-90.5 0l-256-256c-25-25-25-65.5 0-90.5s65.5-25 90.5 0zM704 128h-640c-35.376 0-64-28.624-64-64s28.624-64 64-64h640c35.376 0 64 28.624 64 64s-28.624 64-64 64z" />
<glyph unicode="&#xe969;" glyph-name="arrow-up-from-square" horiz-adv-x="896" d="M271.68 640.55c17.79 0 35.252 7.42 47.512 20.786l64.808 70.788v-412.124c0-35.406 28.656-64.062 64-64.062s64 28.656 64 64.062v412.124l64.808-70.788c12.642-13.762 29.924-20.752 47.254-20.752 35.29 0 63.938 28.614 63.938 64.052 0 15.466-5.56 30.982-16.816 43.286l-175.996 192.188c-12.126 13.262-29.656 19.892-47.188 19.892s-35.062-6.63-47.188-19.892l-175.996-192.188c-11.256-12.304-16.816-27.82-16.816-43.286 0-35.376 28.692-64.086 63.68-64.086zM768 576h-160v-128h160v-384h-640v384h160v128h-160c-70.562 0-128-57.438-128-128v-384c0-70.562 57.438-128 128-128h640c70.562 0 128 57.438 128 128v384c0 70.562-57.438 128-128 128z" />
<glyph unicode="&#xe96a;" glyph-name="arrow-up-left" horiz-adv-x="768" d="M712.562 119.438c-15.624-15.626-36.094-23.438-56.562-23.438s-40.938 7.812-56.562 23.438l-407.438 407.438v-222.876c0-44.188-35.812-80-80-80s-80 35.812-80 80v416c0 44.188 35.812 80 80 80h416c44.188 0 80-35.812 80-80s-35.812-80-80-80h-222.876l407.438-407.438c31.25-31.25 31.25-81.874 0-113.124z" />
<glyph unicode="&#xe96b;" glyph-name="arrow-up-left-from-circle" d="M666.516 288c24.996 25 24.996 65.532 0 90.524l-448.016 453.492h165.504c35.34 0 63.988 28.656 63.988 63.992 0 35.344-28.648 63.992-63.992 63.992h-320c-17.688 0-33.68-7.156-45.258-18.734-11.586-11.578-18.742-27.578-18.742-45.258v-320.008c0-35.344 28.648-63.992 63.988-63.992h0.004c35.34 0 63.992 28.648 63.992 63.992v165.508l448.016-453.508c24.996-24.984 65.52-24.992 90.516 0zM576 832c-35.376 0-64-28.624-64-64s28.624-64 64-64c176.438 0 320-143.562 320-320s-143.562-320-320-320-320 143.562-320 320c0 35.376-28.624 64-64 64s-64-28.624-64-64c0-247 201-448 448-448s448 201 448 448-201 448-448 448z" />
<glyph unicode="&#xe96c;" glyph-name="arrow-up-long" horiz-adv-x="640" d="M621.018 594.75c-25.014-25.014-65.514-24.986-90.5 0l-146.75 146.75v-741.5c0-35.376-28.624-64-64-64s-64 28.624-64 64v741.5l-146.75-146.75c-25-25-65.5-25-90.5 0s-25 65.5 0 90.5l256 256c25 25 65.5 25 90.5 0l256-256c25-25 25-65.5 0-90.5z" />
<glyph unicode="&#xe96d;" glyph-name="arrow-up-right" horiz-adv-x="768" d="M656 800h-416c-44.188 0-80-35.812-80-80s35.812-80 80-80h222.874l-407.436-407.438c-31.25-31.25-31.25-81.874 0-113.124 15.624-15.626 36.094-23.438 56.562-23.438s40.938 7.812 56.562 23.438l407.438 407.438v-222.876c0-44.188 35.812-80 80-80s80 35.812 80 80v416c0 44.188-35.812 80-80 80z" />
<glyph unicode="&#xe96e;" glyph-name="arrow-up-right-and-arrow-down-left-from-center" d="M354.75 381.25l-226.75-226.75v101.5c0 35.376-28.624 64-64 64s-64-28.624-64-64v-256c0-8.328 1.696-16.624 4.93-24.446 6.48-15.664 18.956-28.148 34.624-34.624 7.822-3.234 16.118-4.93 24.446-4.93h256c35.376 0 64 28.624 64 64s-28.624 64-64 64h-101.5l226.75 226.75c25 25 25 65.5 0 90.5s-65.5 25-90.5 0zM1019.074 920.438c-6.484 15.68-18.956 28.156-34.64 34.64-7.812 3.226-16.11 4.922-24.434 4.922h-256c-35.376 0-64-28.624-64-64s28.624-64 64-64h101.5l-226.75-226.75c-25-25-25-65.5 0-90.5 24.986-24.986 65.486-25.014 90.5 0l226.75 226.75v-101.5c0-35.376 28.624-64 64-64s64 28.624 64 64v256c0 8.328-1.696 16.624-4.926 24.438z" />
<glyph unicode="&#xe96f;" glyph-name="arrow-up-right-from-square" d="M768 320c-35.348 0-64-28.656-64-64v-192h-576v575.992h192c35.348 0 64 28.648 64 64s-28.652 64-64 64h-192c-70.692 0-128-57.304-128-128v-575.992c0-70.688 57.308-128 128-128h576c70.692 0 128 57.312 128 128v192c0 35.344-28.652 64-64 64zM1005.258 941.266c-11.578 11.578-27.57 18.734-45.258 18.734h-320c-35.344 0-63.992-28.648-63.992-63.992 0-35.336 28.648-63.992 63.988-63.992h165.504l-448.016-453.492c-24.996-24.992-24.996-65.524 0-90.524 24.996-24.992 65.52-24.984 90.516 0l448.016 453.508v-165.508c0-35.344 28.652-63.992 63.992-63.992h0.004c35.34 0 63.988 28.648 63.988 63.992v320.008c0 17.68-7.156 33.68-18.742 45.258z" />
<glyph unicode="&#xe970;" glyph-name="arrow-up-short-wide" horiz-adv-x="1152" d="M1087.996 128h-447.996c-35.348 0-64-28.656-64-64s28.652-64 64-64h447.996c35.346 0 64 28.656 64 64s-28.654 64-64 64zM640 768h64c35.346 0 64 28.656 64 64s-28.654 64-64 64h-64c-35.348 0-64-28.656-64-64s28.652-64 64-64zM640 512h191.996c35.346 0 64 28.656 64 64s-28.654 64-64 64h-191.996c-35.348 0-64-28.656-64-64s28.652-64 64-64zM640 256h319.996c35.346 0 64 28.656 64 64s-28.654 64-64 64h-319.996c-35.348 0-64-28.656-64-64s28.652-64 64-64zM303.186 876.11c-24.25 26.522-70.124 26.522-94.374 0l-175.996-192.188c-23.872-26.094-22.122-66.626 3.938-90.532 12.28-11.258 27.78-16.828 43.218-16.828 17.344 0 34.594 7.008 47.218 20.774l64.81 70.788v-604.062c0-35.406 28.656-64.062 64-64.062s64 28.656 64 64.062v604.062l64.808-70.788c23.906-26.024 64.406-27.836 90.438-3.946 26.058 23.906 27.808 64.438 3.936 90.532l-175.996 192.188z" />
<glyph unicode="&#xe971;" glyph-name="arrow-up-small-big" d="M960 448h-320c-35.348 0-64-28.656-64-64v-320c0-35.344 28.652-64 64-64h320c35.346 0 64 28.656 64 64v320c0 35.344-28.654 64-64 64zM640 576h192c35.198 0 64 28.796 64 64v192c0 35.204-28.802 64-64 64h-192c-35.2 0-64-28.796-64-64v-192c0-35.204 28.8-64 64-64zM303.186 876.11c-24.25 26.522-70.124 26.522-94.374 0l-175.996-192.188c-23.872-26.094-22.122-66.626 3.938-90.532 26.030-23.89 66.53-22.078 90.436 3.946l64.81 70.788v-604.062c0-35.406 28.656-64.062 64-64.062s64 28.656 64 64.062v604.062l64.808-70.788c12.624-13.766 29.874-20.774 47.218-20.774 15.438 0 30.938 5.57 43.22 16.828 26.058 23.906 27.808 64.438 3.936 90.532l-175.996 192.188z" />
<glyph unicode="&#xe972;" glyph-name="arrow-up-square-triangle" d="M640.010 512h256.004c35.348 0 64 28.656 64 64v256c0 35.344-28.652 64-64 64h-256.004c-35.346 0-64-28.656-64-64v-256c0-35.344 28.654-64 64-64zM303.186 876.11c-24.25 26.522-70.124 26.522-94.374 0l-175.996-192.188c-23.872-26.094-22.122-66.626 3.938-90.532 26.030-23.89 66.53-22.078 90.436 3.946l64.81 70.788v-604.062c0-35.406 28.656-64.062 64-64.062s64 28.656 64 64.062v604.062l64.808-70.788c22.844-24.906 63.254-28.868 90.438-3.946 26.058 23.906 27.808 64.438 3.936 90.532l-175.996 192.188zM984.264 82.25l-166.254 274.25c-22.25 36.75-77.5 36.75-99.75 0l-166.5-274.25c-22-36.5 5.5-82.25 50-82.25h332.5c44.504 0 72.004 45.75 50.004 82.25z" />
<glyph unicode="&#xe973;" glyph-name="arrow-up-to-dotted-line" horiz-adv-x="896" d="M640 768.002c35.348 0 64 28.656 64 64s-28.652 64-64 64-64-28.656-64-64 28.652-64 64-64zM448 768.002c35.348 0 64 28.656 64 64s-28.652 64-64 64-64-28.656-64-64 28.652-64 64-64zM832 768.002c35.348 0 64 28.656 64 64s-28.652 64-64 64-64-28.656-64-64 28.652-64 64-64zM749.25 397.25l-256 256c-25 25-65.5 25-90.5 0l-256-256c-25-25-25-65.5 0-90.5s65.5-25 90.5 0l146.75 146.75v-357.5c0-35.376 28.624-64 64-64s64 28.624 64 64v357.5l146.75-146.75c12.5-12.5 28.874-18.75 45.25-18.75s32.75 6.25 45.25 18.75c25 25 25 65.5 0 90.5zM256 768.002c35.348 0 64 28.656 64 64s-28.652 64-64 64-64-28.656-64-64 28.652-64 64-64zM64 768.002c35.348 0 64 28.656 64 64s-28.652 64-64 64-64-28.656-64-64 28.652-64 64-64z" />
<glyph unicode="&#xe974;" glyph-name="arrow-up-to-line" horiz-adv-x="768" d="M173.25 274.75l146.75 146.75v-357.5c0-35.376 28.624-64 64-64s64 28.624 64 64v357.5l146.75-146.75c12.5-12.5 28.874-18.75 45.25-18.75s32.75 6.25 45.25 18.75c25 25 25 65.5 0 90.5l-256 256c-25 25-65.5 25-90.5 0l-256-256c-25-25-25-65.5 0-90.5s65.5-25 90.5 0zM64 768h640c35.376 0 64 28.624 64 64s-28.624 64-64 64h-640c-35.376 0-64-28.624-64-64s28.624-64 64-64z" />
<glyph unicode="&#xe975;" glyph-name="arrow-up-triangle-square" d="M303.186 876.11c-24.25 26.522-70.124 26.522-94.374 0l-175.996-192.188c-23.872-26.094-22.122-66.626 3.938-90.532 26.030-23.89 66.53-22.078 90.436 3.946l64.81 70.788v-604.062c0-35.406 28.656-64.062 64-64.062s64 28.656 64 64.062v604.062l64.808-70.788c22.844-24.906 63.254-28.868 90.438-3.946 26.058 23.906 27.808 64.438 3.936 90.532l-175.996 192.188zM896.014 383.968h-256.004c-35.346 0-64-28.656-64-64v-255.968c0-35.344 28.654-64 64-64h256.004c35.348 0 64 28.656 64 64v255.968c0 35.344-28.652 64-64 64zM984.264 594.21l-166.254 274.228c-22.25 36.75-77.5 36.75-99.75 0l-166.5-274.228c-22-36.5 5.5-82.242 50-82.242h332.5c44.504 0 72.004 45.742 50.004 82.242z" />
<glyph unicode="&#xe976;" glyph-name="arrow-up-wide-short" horiz-adv-x="1152" d="M831.996 384h-191.996c-35.348 0-64-28.656-64-64s28.652-64 64-64h191.996c35.346 0 64 28.656 64 64s-28.654 64-64 64zM704 128h-64c-35.348 0-64-28.656-64-64s28.652-64 64-64h64c35.346 0 64 28.656 64 64s-28.654 64-64 64zM959.996 640h-319.996c-35.348 0-64-28.656-64-64s28.652-64 64-64h319.996c35.346 0 64 28.656 64 64s-28.654 64-64 64zM1087.996 896h-447.996c-35.348 0-64-28.656-64-64s28.652-64 64-64h447.996c35.346 0 64 28.656 64 64s-28.654 64-64 64zM303.186 876.11c-24.25 26.522-70.124 26.522-94.374 0l-175.996-192.188c-23.872-26.094-22.122-66.626 3.938-90.532 12.28-11.258 27.78-16.828 43.218-16.828 17.344 0 34.594 7.008 47.218 20.774l64.81 70.788v-604.062c0-35.406 28.656-64.062 64-64.062s64 28.656 64 64.062v604.062l64.808-70.788c23.906-26.024 64.406-27.836 90.438-3.946 26.058 23.906 27.808 64.438 3.936 90.532l-175.996 192.188z" />
<glyph unicode="&#xe977;" glyph-name="arrow-up-z-a" d="M303.186 876.11c-24.25 26.522-70.124 26.522-94.374 0l-175.996-192.188c-23.872-26.094-22.122-66.626 3.938-90.532 26.030-23.89 66.53-22.078 90.436 3.946l64.81 70.788v-604.062c0-35.406 28.656-64.062 64-64.062s64 28.656 64 64.062v604.062l64.808-70.788c12.624-13.766 29.874-20.774 47.218-20.774 15.438 0 30.938 5.57 43.22 16.828 26.058 23.906 27.808 64.438 3.936 90.532l-175.996 192.188zM640 768h101.5l-146.75-146.75c-18.314-18.312-23.782-45.812-13.876-69.75s33.25-39.5 59.126-39.5h256c35.342 0 64 28.624 64 64s-28.658 64-64 64h-101.5l146.75 146.75c18.312 18.312 23.78 45.812 13.874 69.75s-33.25 39.5-59.124 39.5h-256c-35.344 0-64-28.624-64-64s28.656-64 64-64zM985.226 93.376l-159.984 321.906c-21.684 43.624-92.802 43.624-114.486 0l-159.984-321.906c-15.812-31.814-3-70.478 28.622-86.384 31.746-15.844 70.086-2.952 85.866 28.798l14.31 28.788h176.858l14.31-28.788c12.348-24.852 47.948-47.744 85.866-28.798 31.622 15.906 44.434 54.57 28.622 86.384zM735.566 177.25l32.434 65.258 32.432-65.258h-64.866z" />
<glyph unicode="&#xe978;" glyph-name="asterisk" horiz-adv-x="896" d="M834.102 223.404v0c-26.138-45.27-84.954-59.26-128.674-30.608l-178.882 117.228 11.474-214.168c2.79-52.090-38.696-95.856-90.86-95.856h-0.008c-52.164 0-93.65 43.766-90.86 95.856l11.474 214.168-179.002-117.308c-43.656-28.608-102.382-14.64-128.48 30.562l-0.074 0.126c-26.030 45.086-8.994 102.782 37.354 126.496l191.724 98.1-191.724 98.1c-46.348 23.714-63.384 81.41-37.354 126.496v0c26.138 45.27 84.954 59.26 128.674 30.608l178.882-117.228-11.474 214.168c-2.79 52.090 38.696 95.856 90.86 95.856h0.008c52.164 0 93.65-43.766 90.86-95.856l-11.474-214.168 178.882 117.228c43.72 28.652 102.536 14.662 128.674-30.608v0c26.030-45.086 8.994-102.782-37.354-126.496l-191.724-98.1 191.724-98.1c46.348-23.714 63.384-81.41 37.354-126.496z" />
<glyph unicode="&#xe979;" glyph-name="at" d="M415.564 918.538c-186.904-36.634-337.378-187.322-374.050-374.22-55.284-281.756 137.292-532.338 398.154-571.968 38.018-5.776 72.33 24.522 72.33 62.976v1.584c0 31.486-22.88 57.494-53.672 62.232-168.69 25.952-298.328 172.264-298.328 348.31 0 205.836 177.22 371.020 386.876 350.708 183.076-17.736 317.124-182.502 317.124-366.436v-32.326c0-44.176-35.874-80.092-80-80.092s-80 35.916-80 80.092v240.274c0 17.694-14.342 32.036-32.036 32.036h-63.964c-14.598 0-26.406-9.984-30.25-23.362-49.694 24.306-108.476 32.768-172.114 10.212-77.5-27.468-136.248-97.814-147.442-179.27-18.966-138.014 87.648-256.092 221.806-256.092 52.872 0 100.816 19.104 139.134 49.776 48.006-62.598 130.466-97.38 218.81-74.976 92.556 23.474 154.056 111.882 154.056 207.37v42.086c0 296.562-269.674 531.212-576.434 471.086zM479.998 351.342c-52.934 0-96 43.116-96 96.11s43.066 96.11 96 96.11 96-43.116 96-96.11-43.066-96.11-96-96.11z" />
<glyph unicode="&#xe97a;" glyph-name="atom" d="M512 512c-35.258 0-64.014-28.75-64.014-64s28.756-64 64.014-64c35.258 0 64.014 28.75 64.014 64s-28.756 64-64.014 64zM940.342 704c-21.754 39-81.016 101.5-232.55 83.75-43.008 102.5-108.524 172.25-195.792 172.25s-152.784-69.75-195.792-172.25c-151.534 17.5-210.796-44.75-232.55-83.75-32.758-58.75-30.008-146.25 50.26-256-80.268-109.75-83.018-197.25-50.26-256 58.262-104.75 203.294-87.25 232.55-83.75 43.008-102.5 108.524-172.25 195.792-172.25s152.784 69.75 195.792 172.25c29.256-3.5 174.288-21 232.55 83.75 32.758 58.75 30.008 146.25-50.26 256 80.268 109.75 83.018 197.25 50.26 256zM190.68 256c-8.002 14.5-0.25 49.5 30.006 96.5 13.754-13 28.258-25.75 43.76-38.25 3.252-27.5 8.002-54.25 13.504-80.25-49.262-1.75-79.768 8.75-87.27 22zM264.446 581.75c-15.502-12.5-30.006-25.25-43.76-38.25-30.256 47-38.008 82-30.006 96.5 6.752 12.25 32.758 23 75.766 23 3.502 0 7.752-0.75 11.504-0.75-5.752-26.75-10.252-53.5-13.504-80.5zM512 832c19.004 0 44.51-27 67.764-74.5-22.504-7.5-45.010-16-67.764-25.75-22.754 9.75-45.26 18.25-67.764 25.75 23.254 47.5 48.76 74.5 67.764 74.5zM512 64c-19.004 0-44.51 27-67.764 74.5 22.504 7.5 45.010 16 67.764 25.75 22.754-9.75 45.26-18.25 67.764-25.75-23.254-47.5-48.76-74.5-67.764-74.5zM512 288c-88.27 0-160.034 71.75-160.034 160s71.764 160 160.034 160 160.034-71.75 160.034-160-71.764-160-160.034-160zM833.32 256c-7.252-13.25-38.008-23.75-87.27-22 5.502 26 10.252 52.75 13.504 80.25 15.502 12.5 30.006 25.25 43.76 38.25 30.256-47 38.008-82 30.006-96.5zM803.314 543.5c-13.754 13-28.258 25.75-43.76 38.25-3.252 27-7.752 53.75-13.504 80.5 3.752 0 8.002 0.75 11.504 0.75 43.008 0 69.014-10.75 75.766-23 8.002-14.5 0.25-49.5-30.006-96.5z" />
<glyph unicode="&#xe97b;" glyph-name="atom-simple" horiz-adv-x="896" d="M801.766 447.994c95.004-152.758 132.506-310.268 44.502-398.272-82.754-82.756-231.76-58.504-398.268 45.252-167.258-104.006-315.764-127.758-398.268-45.252-88.004 88.004-50.502 245.514 44.502 398.272-95.004 152.76-132.506 310.268-44.502 398.274s245.512 50.502 398.268-44.504c152.506 95.006 310.264 132.508 398.268 44.504 88.004-88.006 50.502-245.514-44.502-398.274zM334.744 176.478c-52.252 43.004-100.754 88.006-158.256 157.76-49.752-94.506-61.004-169.26-36.252-194.012 24.752-24.75 99.754-13.5 194.508 36.252zM176.488 561.752c47.252 57.752 100.254 110.756 158.256 158.258-115.166 60.834-175.876 54.386-194.508 35.752-24.752-24.752-13.5-99.506 36.252-194.010zM646.010 447.994c-56.754 75.004-123.256 142.008-198.010 198.762-74.754-56.754-141.256-123.758-197.76-198.762 51.754-68.004 108.006-129.506 197.76-198.010 68.004 52.002 129.506 108.256 198.010 198.010zM512.002 447.994c0-35.252-28.75-64.004-64.002-64.004s-64.002 28.752-64.002 64.004 28.75 64.004 64.002 64.004 64.002-28.752 64.002-64.004zM755.764 755.762c-18.722 18.722-79.844 24.818-194.508-35.752 58.002-47.502 111.004-100.506 158.256-158.258 49.752 94.504 61.004 169.258 36.252 194.010zM719.512 334.238c-57.752-70.004-106.254-114.756-158.256-157.76 94.754-49.752 169.756-61.002 194.508-36.252 24.752 24.752 13.5 99.506-36.252 194.012z" />
<glyph unicode="&#xe97c;" glyph-name="audio-description" horiz-adv-x="1152" d="M341.672 400h84.656l-42.328 84.656-42.328-84.656zM1024 896h-896c-70.692 0-128-57.304-128-128v-640c0-70.692 57.308-128 128-128h896c70.692 0 128 57.308 128 128v640c0 70.696-57.308 128-128 128zM549.438 261.062c-6.876-3.438-14.188-5.062-21.376-5.062-17.624 0-34.562 9.718-43 26.532l-18.734 37.468h-164.656l-18.734-37.468c-11.814-23.72-40.626-33.408-64.376-21.47-23.75 11.876-33.374 40.688-21.5 64.406l144 288c16.25 32.5 69.626 32.5 85.876 0l144-288c11.874-23.718 2.25-52.53-21.5-64.406zM768 256h-112c-26.5 0-48 21.5-48 48v288c0 26.5 21.5 48 48 48h112c105.876 0 192-86.124 192-192s-86.124-192-192-192zM768 544h-64v-192h64c52.938 0 96 43.062 96 96s-43.062 96-96 96z" />
<glyph unicode="&#xe97d;" glyph-name="audio-description-slash" horiz-adv-x="1280" d="M1261.622 21.794l-61.466 48.176c9.246 17.566 15.844 36.734 15.844 58.026v640.004c0 70.694-57.308 128-128 128h-896.002c-13.288 0-25.914-2.352-37.914-6.144l-76.456 59.926c-8.814 6.874-19.25 10.218-29.564 10.218-14.25 0-28.374-6.312-37.812-18.376-16.374-20.874-12.75-51.058 8.126-67.402l1183.994-927.988c21-16.406 51.124-12.656 67.374 8.156 16.376 20.872 12.75 51.060-8.124 67.404zM928.434 282.938l-89.064 69.806c49.446 3.84 88.63 44.84 88.63 95.254 0 52.938-43.062 96-96 96h-64v-135.316l-96 75.242v108.074c0 26.5 21.5 48 48 48h112c105.874 0 192-86.124 192-192 0-70.574-38.692-131.696-95.566-165.060zM613.436 261.060c-6.874-3.438-14.186-5.062-21.374-5.062-17.626 0-34.562 9.718-43 26.53l-18.734 37.47h-164.658l-18.734-37.47c-11.812-23.718-40.624-33.406-64.374-21.468-23.75 11.874-33.376 40.688-21.5 64.406l84.972 169.946-282.036 221.052v-588.468c0-70.69 57.31-128 128-128h786.122l-349.148 273.658c-4.16-5.074-9.282-9.466-15.536-12.594zM405.67 399.998h62.098l-44.612 34.968-17.486-34.968z" />
<glyph unicode="&#xe97e;" glyph-name="austral-sign" horiz-adv-x="896" d="M832 320h-92.582l-26.434 64h119.016c35.344 0 64 28.656 64 64s-28.656 64-64 64h-171.886l-138.176 334.532c-12.376 29.936-41.562 49.468-73.938 49.468s-61.562-19.532-73.938-49.468l-138.176-334.532h-171.886c-35.344 0-64-28.656-64-64s28.656-64 64-64h119.016l-26.434-64h-92.582c-35.344 0-64-28.656-64-64s28.656-64 64-64h39.71l-33.648-81.468c-16.874-40.814 2.564-87.594 43.406-104.47 40.75-16.874 87.594 2.564 104.47 43.406l58.874 142.532h342.376l58.874-142.532c12.75-30.844 42.532-49.5 73.97-49.5 10.186 0 20.53 1.97 30.5 6.094 40.844 16.876 60.28 63.656 43.406 104.47l-33.648 81.468h39.71c35.344 0 64 28.656 64 64s-28.656 64-64 64zM448 606.438l39.008-94.438h-78.016l39.008 94.438zM329.684 320l26.438 64h183.756l26.438-64h-236.632z" />
<glyph unicode="&#xe97f;" glyph-name="avocado" d="M1024.002 675.364c0 144.104-112.89 284.638-281.072 284.638-78.41 0-157.432-31.474-216.116-90.35l-0.332-0.332c-62.074-62.278-140.528-103.926-225.216-127.136-70.54-19.336-301.266-123.84-301.266-395.596 0-226.816 184.708-410.586 410.126-410.586 104.738 0 209.474 40.084 289.382 120.256 135.298 135.726 85.116 260.034 231.966 407.364l8.714 8.742c55.876 56.056 83.814 129.528 83.814 203zM638.998 430.68c0-121.472-117.262-238.678-238.152-238.678-109.026 0-144.988 87.17-144.988 145.316 0 121.506 117.272 238.684 238.144 238.684 109.032 0 144.996-87.174 144.996-145.322z" />
<glyph unicode="&#xe980;" glyph-name="award" horiz-adv-x="768" d="M576.032 243.39c27.968 16.176 35.062 60.082 57.75 82.774 22.702 22.7 66.608 29.782 82.796 57.75 15.962 27.574 0.32 69.066 8.734 100.558 8.148 30.458 42.688 58.5 42.688 91.528 0 33.004-34.532 61.032-42.672 91.468-8.414 31.492 7.234 72.986-8.718 100.56-16.172 27.96-60.078 35.054-82.766 57.754-22.704 22.698-29.79 66.604-57.75 82.792-27.578 15.958-69.078 0.316-100.562 8.738-30.462 8.146-58.5 42.688-91.532 42.688-33 0-61.032-34.54-91.468-42.672-31.486-8.418-72.986 7.234-100.556-8.718-27.96-16.176-35.054-60.082-57.75-82.774-22.694-22.7-66.608-29.782-82.788-57.75-15.97-27.574-0.328-69.066-8.742-100.558-8.15-30.458-42.696-58.5-42.696-91.528 0-33.004 34.546-61.032 42.68-91.468 8.414-31.492-7.242-72.986 8.71-100.56 16.188-27.96 60.086-35.054 82.774-57.754 22.704-22.698 29.79-66.604 57.75-82.792 27.578-15.958 69.070-0.316 100.562-8.738 30.462-8.146 58.5-42.688 91.524-42.688 33 0 61.040 34.54 91.476 42.672 31.492 8.418 72.978-7.234 100.556 8.718zM224 576c0 88.542 71.624 160 160 160s160-71.458 160-160c0-88.332-71.624-160-160-160s-160 71.668-160 160zM3.438 93.562c-6.5-16.374-3.564-34.968 7.75-48.5 11.312-13.5 29.062-19.78 46.25-16.28l90.374 18.062 42.876-84.532c8.25-16.374 24.5-26.312 42.688-26.312 0.686 0 1.312 0.032 2 0.062 19 0.75 35.312 12.156 42.5 29.75l67.156 164.156c-107.422 9.278-204.024 56.242-276.322 127.896l-65.272-164.302zM699.29 257.86c-72.298-71.652-168.9-118.614-276.322-127.892l67.156-164.156c7.188-17.594 23.5-29 42.5-29.75 0.688-0.030 1.314-0.062 2-0.062 18.188 0 34.438 9.938 42.688 26.282l42.876 84.562 90.374-18.062c17.188-3.5 34.938 2.78 46.25 16.28 11.312 13.532 14.25 32.126 7.75 48.5l-65.272 164.298z" />
<glyph unicode="&#xe981;" glyph-name="award-simple" horiz-adv-x="768" d="M527.016 232.188c-7.164 0-14.52 0.374-21.888 0.784-4.992 0.282-9.996 0.594-14.89 0.594-3.316 0-5.020-0.176-5.37-0.176-0.056 0-0.078 0.004-0.064 0.016-3.214-1.226-11.308-6.558-16.69-10.098-20.072-13.214-47.556-31.308-84.114-31.308-36.57 0-64.066 18.098-84.14 31.312-5.454 3.59-13.696 9.016-16.064 9.938-0.168 0.036-1.754 0.336-6.108 0.336-4.892 0-9.888-0.312-14.88-0.59-7.35-0.406-14.686-0.782-21.84-0.782-11.694 0-27.604 1.024-44.46 6.528l-55.028-264.14c-5.452-26.188 21.716-47.11 45.638-35.148l196.882 98.44 196.882-98.44c23.922-11.962 51.090 8.96 45.638 35.148l-55.024 264.116c-16.86-5.51-32.782-6.53-44.48-6.53zM736 608c0 30.254-31.652 55.946-39.118 83.848-7.71 28.866 6.634 66.902-7.992 92.18-14.824 25.628-55.070 32.132-75.866 52.94-20.814 20.806-27.306 61.056-52.938 75.892-25.282 14.628-63.32 0.292-92.184 8.012-27.922 7.464-53.624 39.128-83.902 39.128-30.25 0-55.946-31.66-83.848-39.114-28.86-7.718-66.902 6.63-92.172-7.992-25.632-14.828-32.136-55.078-52.938-75.878-20.804-20.806-61.058-27.298-75.89-52.938-14.64-25.274-0.3-63.308-8.016-92.176-7.468-27.922-39.136-53.624-39.136-83.902 0-30.254 31.668-55.946 39.124-83.844 7.712-28.87-6.64-66.902 7.986-92.18 14.836-25.632 55.078-32.132 75.874-52.94 20.812-20.81 27.306-61.056 52.938-75.896 25.282-14.624 63.312-0.288 92.184-8.008 27.922-7.468 53.624-39.132 83.894-39.132 30.25 0 55.954 31.66 83.856 39.118 28.866 7.714 66.894-6.634 92.172 7.992 25.636 14.828 32.14 55.074 52.936 75.874 20.814 20.808 61.060 27.302 75.9 52.938 14.632 25.278 0.292 63.312 8.008 92.18 7.468 27.918 39.128 53.624 39.128 83.898zM384 448c-88.376 0-160 71.668-160 160 0 88.542 71.624 160 160 160s160-71.458 160-160c0-88.332-71.624-160-160-160z" />
<glyph unicode="&#xe982;" glyph-name="axe" horiz-adv-x="1280" d="M480.38 552.876l135.75-135.752-462.348-462.376c-24.992-24.996-65.518-24.998-90.512-0.002l-45.27 45.27c-24.994 24.992-24.994 65.516 0 90.508l462.38 462.352zM1279.254 640v-64c0-247.424-200.576-448-448-448h-64v228.532l-301.25 301.25c-24.992 24.992-24.99 65.512 0.004 90.502l192.996 192.966c12.5 12.5 28.876 18.75 45.25 18.75s32.75-6.25 45.25-18.75l59.626-59.626 59.63 59.63c24.994 24.994 65.516 24.994 90.51 0l45.24-45.24c24.994-24.994 24.994-65.516 0-90.51l-59.63-59.63 105.874-105.874h228.5zM1144.818 511.968h-75.876c-32.5-78.562-95.124-141.156-173.688-173.656v-75.906c125.188 25.532 224.064 124.406 249.564 249.562z" />
</font>
</defs>
</svg>
