<?xml version="1.0" standalone="no"?>
<!DOCTYPE svg PUBLIC "-//W3C//DTD SVG 1.1//EN" "http://www.w3.org/Graphics/SVG/1.1/DTD/svg11.dtd" >
<svg xmlns="http://www.w3.org/2000/svg">
<metadata>Generated by IcoMoon</metadata>
<defs>
<font id="hicons-regular" horiz-adv-x="1024">
<font-face units-per-em="1024" ascent="960" descent="-64" />
<missing-glyph horiz-adv-x="1024" />
<glyph unicode="&#x20;" horiz-adv-x="512" d="" />
<glyph unicode="&#xe900;" glyph-name="abacus" horiz-adv-x="1152" d="M1024 896h-896c-70.692 0-128-57.308-128-128v-640c0-70.692 57.308-128 128-128h896c70.692 0 128 57.308 128 128v640c0 70.692-57.308 128-128 128zM256 432h-32c-17.672 0-32-14.328-32-32v-32c0-17.672 14.328-32 32-32h32v-48h-32c-17.672 0-32-14.328-32-32v-32c0-17.672 14.328-32 32-32h32v-96h-128c-17.674 0-32 14.326-32 32v352h160v-48zM256 704h-32c-17.672 0-32-14.328-32-32v-32c0-17.672 14.328-32 32-32h32v-64h-160v224c0 17.674 14.326 32 32 32h128v-96zM512 432h-32c-17.672 0-32-14.328-32-32v-32c0-17.672 14.328-32 32-32h32v-48h-32c-17.672 0-32-14.328-32-32v-32c0-17.672 14.328-32 32-32h32v-96h-192v96h32c17.672 0 32 14.328 32 32v32c0 17.672-14.328 32-32 32h-32v48h32c17.672 0 32 14.328 32 32v32c0 17.672-14.328 32-32 32h-32v48h192v-48zM512 704h-32c-17.672 0-32-14.328-32-32v-32c0-17.672 14.328-32 32-32h32v-64h-192v64h32c17.672 0 32 14.328 32 32v32c0 17.672-14.328 32-32 32h-32v96h192v-96zM832 288h-32c-17.672 0-32-14.328-32-32v-32c0-17.672 14.328-32 32-32h32v-96h-256v96h32c17.672 0 32 14.328 32 32v32c0 17.672-14.328 32-32 32h-32v48h32c17.672 0 32 14.328 32 32v32c0 17.672-14.328 32-32 32h-32v48h256v-192zM832 704h-32c-17.672 0-32-14.328-32-32v-32c0-17.672 14.328-32 32-32h32v-64h-256v64h32c17.672 0 32 14.328 32 32v32c0 17.672-14.328 32-32 32h-32v96h256v-96zM1024 96h-128v96h32c17.672 0 32 14.328 32 32v32c0 17.672-14.328 32-32 32h-32v192h160v-352c0-17.674-14.326-32-32-32zM1056 544h-160v64h32c17.672 0 32 14.328 32 32v32c0 17.672-14.328 32-32 32h-32v96h128c17.674 0 32-14.326 32-32v-224z" />
<glyph unicode="&#xe901;" glyph-name="acorn" horiz-adv-x="896" d="M895.992 640c-0.038 105.972-86.012 191.922-191.992 191.922h-192.39c7.398 14.062 18.070 29.882 34.328 46.14 18.75 18.75 18.75 49.126 0 67.876s-49.126 18.75-67.876 0c-41.508-41.508-60.59-83.086-69.698-114.016h-216.364c-105.98 0-191.954-85.95-191.992-191.922h-0.008v-64c0-35.344 28.652-64 64-64h32c0-347.746 257.906-466.266 352-512 66.082 32.118 352 141.754 352 512h32c35.348 0 64 28.656 64 64v64h-0.008zM448 106.738c-177.898 86.466-256 248.668-256 405.262h512c0-149.578-70.574-315.132-256-405.262zM800 608h-703.996l0.004 31.964c0.020 52.912 43.082 95.958 95.992 95.958h512c52.91 0 95.976-43.046 96-95.922v-32z" />
<glyph unicode="&#xe902;" glyph-name="address-book" d="M544 384h-128c-88.36 0-160-71.632-160-160 0-17.672 14.328-32 32-32h384c17.672 0 32 14.328 32 32 0 88.368-71.632 160-160 160zM480 448c70.696 0 128 57.308 128 128s-57.304 128-128 128c-70.688 0-128-57.308-128-128s57.312-128 128-128zM992 320h-32v-192h32c17.672 0 32 14.328 32 32v128c0 17.672-14.328 32-32 32zM992 832h-32v-192h32c17.672 0 32 14.328 32 32v128c0 17.672-14.328 32-32 32zM992 576h-32v-192h32c17.672 0 32 14.328 32 32v128c0 17.672-14.328 32-32 32zM768 960h-576c-70.692 0-128-57.304-128-128v-768c0-70.692 57.308-128 128-128h576c70.692 0 128 57.308 128 128v768c0 70.696-57.308 128-128 128zM800 64c0-17.672-14.328-32-32-32h-576c-17.672 0-32 14.328-32 32v768c0 17.676 14.328 32 32 32h576c17.672 0 32-14.324 32-32v-768z" />
<glyph unicode="&#xe903;" glyph-name="address-card" horiz-adv-x="1152" d="M416 448c70.692 0 128 57.308 128 128 0 70.696-57.308 128-128 128s-128-57.304-128-128c0-70.692 57.308-128 128-128zM928 496h-192c-26.5 0-48-21.5-48-48s21.5-48 48-48h192c26.5 0 48 21.5 48 48s-21.5 48-48 48zM480 384h-128c-88.368 0-160-71.632-160-160 0-17.672 14.328-32 32-32h384c17.672 0 32 14.328 32 32 0 88.368-71.632 160-160 160zM928 656h-192c-26.5 0-48-21.5-48-48s21.5-48 48-48h192c26.5 0 48 21.5 48 48s-21.5 48-48 48zM1024 896h-896c-70.692 0-128-57.308-128-128v-640c0-70.692 57.308-128 128-128h896c70.692 0 128 57.308 128 128v640c0 70.692-57.308 128-128 128zM1056 128c0-17.644-14.356-32-32-32h-896c-17.644 0-32 14.356-32 32v640c0 17.644 14.356 32 32 32h896c17.644 0 32-14.356 32-32v-640z" />
<glyph unicode="&#xe904;" glyph-name="air-conditioner" horiz-adv-x="1152" d="M928 704h-704c-17.672 0-32-14.328-32-32v-32c0-17.672 14.328-32 32-32h704c17.672 0 32 14.328 32 32v32c0 17.672-14.328 32-32 32zM1024 960h-896c-70.398 0-128-57.594-128-128v-256c0-70.398 57.602-128 128-128h896c70.402 0 128 57.602 128 128v256c0 70.406-57.598 128-128 128zM1056 576c0-17.344-14.652-32-32-32h-896c-17.344 0-32 14.656-32 32v256c0 17.344 14.656 32 32 32h896c17.348 0 32-14.656 32-32v-256zM416 112c0-44.124-35.876-80-80-80s-80 35.876-80 80c0 32.75 19.624 61.876 50.032 74.188 24.562 9.936 36.406 37.936 26.468 62.5-9.968 24.562-37.844 36.312-62.532 26.5-66.812-27.064-109.968-91.126-109.968-163.188 0-97.062 78.938-176 176-176s176 78.938 176 176v272h-96v-272zM882.032 339.188c-24.688 9.812-52.564-1.938-62.532-26.5-9.938-24.564 1.906-52.564 26.468-62.5 30.408-12.312 50.032-41.438 50.032-74.188 0-44.124-35.876-80-80-80s-80 35.876-80 80v208h-96v-208c0-97.062 78.938-176 176-176s176 78.938 176 176c0 72.062-43.156 136.124-109.968 163.188z" />
<glyph unicode="&#xe905;" glyph-name="air-freshener" horiz-adv-x="768" d="M754.218 348.368l-142.176 163.632h72.654c43.896 0 67.442 51.554 38.67 84.668l-300.24 345.55c-10.298 11.856-24.74 17.782-39.182 17.782-14.448 0-28.894-5.93-39.194-17.79l-300.636-346.144c-28.56-32.882-5.174-84.066 38.408-84.066h73.382l-142.13-163.644c-31.376-36.126-5.686-92.356 42.194-92.356h263.972v-64h-160.188c-53.080 0-96.112-42.98-96.112-96v-64c0-53.020 43.032-96 96.112-96h448.524c53.080 0 96.112 42.98 96.112 96v64c0 53.020-43.032 96-96.112 96h-160.188v64h263.944c47.884 0 73.574 56.242 42.186 92.368zM608.276 96v-64h-448.524v64h448.524zM144.18 352l176.334 203.032c17.998 20.718 3.262 52.968-24.2 52.968h-114.598l202.232 232.844 202.314-232.844h-114.666c-27.466 0-42.198-32.254-24.196-52.972l176.404-203.028h-479.624zM384.014 736c-26.538 0-48.056-21.492-48.056-48s21.518-48 48.056-48c26.538 0 48.056 21.492 48.056 48s-21.518 48-48.056 48z" />
<glyph unicode="&#xe906;" glyph-name="airplay" horiz-adv-x="1152" d="M976 896h-800c-97.062 0-176-78.938-176-176v-416c0-97.062 78.938-176 176-176 26.5 0 48 21.5 48 48s-21.5 48-48 48c-44.124 0-80 35.876-80 80v416c0 44.124 35.876 80 80 80h800c44.124 0 80-35.876 80-80v-416c0-44.124-35.876-80-80-80-26.5 0-48-21.5-48-48s21.5-48 48-48c97.062 0 176 78.938 176 176v416c0 97.062-78.938 176-176 176zM643.832 387.868c-37.25 37.508-98.254 37.508-135.758 0l-224.008-224.072c-60.004-60.264-17.504-163.796 68.004-163.796h447.77c85.254 0 128.508 103.532 67.754 163.796l-223.762 224.072zM352.070 96.032l224.008 224.062 224.012-224.062h-448.020z" />
<glyph unicode="&#xe907;" glyph-name="alarm-clock" d="M192 960c-106.040 0-192-85.96-192-192 0-37.898 11.344-72.992 30.296-102.75l291.818 243.18c-34.25 31.742-79.732 51.57-130.114 51.57zM832 960c-50.382 0-95.864-19.828-130.114-51.57l291.818-243.18c18.952 29.758 30.296 64.852 30.296 102.75 0 106.040-85.96 192-192 192zM512.028 832c-247.422 0-448-200.578-448-448 0-106.414 37.264-204.032 99.242-280.882l-85.18-85.18c-9.376-9.376-14.062-21.656-14.062-33.938 0-25.58 20.596-48 48-48 12.28 0 24.562 4.688 33.936 14.062l85.18 85.18c76.852-61.976 174.47-99.242 280.884-99.242s204.030 37.266 280.882 99.242l85.18-85.18c9.374-9.374 21.656-14.062 33.938-14.062 27.418 0 48 22.42 48 48 0 12.282-4.688 24.562-14.064 33.938l-85.178 85.18c61.976 76.85 99.242 174.468 99.242 280.882 0 247.422-200.578 448-448 448zM512.028 32c-194.094 0-352 157.906-352 352s157.906 352 352 352 352-157.906 352-352-157.906-352-352-352zM560.028 376v216c0 26.5-21.5 48-48 48s-48-21.5-48-48v-240c0-15.124 7.124-29.312 19.186-38.376l128-96c8.658-6.5 18.75-9.624 28.782-9.624 26.396 0 48.036 21.328 48.036 47.966 0 14.594-6.63 28.996-19.192 38.408l-108.812 81.626z" />
<glyph unicode="&#xe908;" glyph-name="alarm-exclamation" d="M192 960c-106.040 0-192-85.96-192-192 0-37.898 11.344-72.992 30.296-102.75l291.818 243.18c-34.25 31.742-79.732 51.57-130.114 51.57zM512.028 832c-247.422 0-448-200.578-448-448 0-106.414 37.264-204.032 99.242-280.882l-85.18-85.18c-9.376-9.376-14.062-21.656-14.062-33.938 0-27.418 22.42-48 48-48 12.28 0 24.562 4.688 33.936 14.062l85.18 85.18c76.852-61.976 174.47-99.242 280.884-99.242s204.030 37.266 280.882 99.242l85.18-85.18c9.374-9.374 21.656-14.062 33.938-14.062 25.58 0 48 20.596 48 48 0 12.282-4.688 24.562-14.064 33.938l-85.178 85.18c61.976 76.85 99.242 174.468 99.242 280.882 0 247.422-200.578 448-448 448zM512.028 32c-194.094 0-352 157.906-352 352s157.906 352 352 352 352-157.906 352-352-157.906-352-352-352zM832 960c-50.382 0-95.864-19.828-130.114-51.57l291.818-243.18c18.952 29.758 30.296 64.852 30.296 102.75 0 106.040-85.96 192-192 192zM512.028 256c-35.348 0-64-28.656-64-64s28.652-64 64-64 64 28.656 64 64-28.654 64-64 64zM512.028 320c26.5 0 48 21.5 48 48v224c0 26.5-21.5 48-48 48s-48-21.5-48-48v-224c0-26.5 21.5-48 48-48z" />
<glyph unicode="&#xe909;" glyph-name="alarm-plus" d="M192 960c-106.040 0-192-85.96-192-192 0-37.898 11.344-72.992 30.296-102.75l291.818 243.18c-34.25 31.742-79.732 51.57-130.114 51.57zM656.028 432h-96v96c0 26.5-21.5 48-48 48s-48-21.5-48-48v-96h-96c-26.5 0-48-21.5-48-48s21.5-48 48-48h96v-96c0-26.5 21.5-48 48-48s48 21.5 48 48v96h96c26.5 0 48 21.5 48 48s-21.5 48-48 48zM512.028 832c-247.422 0-448-200.578-448-448 0-106.414 37.264-204.032 99.242-280.882l-85.18-85.18c-9.376-9.376-14.062-21.656-14.062-33.938 0-25.58 20.596-48 48-48 12.28 0 24.562 4.688 33.936 14.062l85.18 85.18c76.852-61.976 174.47-99.242 280.884-99.242s204.030 37.266 280.882 99.242l85.18-85.18c9.374-9.374 21.656-14.062 33.938-14.062 27.418 0 48 22.42 48 48 0 12.282-4.688 24.562-14.064 33.938l-85.178 85.18c61.976 76.85 99.242 174.468 99.242 280.882 0 247.422-200.578 448-448 448zM512.028 32c-194.094 0-352 157.906-352 352s157.906 352 352 352 352-157.906 352-352-157.906-352-352-352zM832 960c-50.382 0-95.864-19.828-130.114-51.57l291.818-243.18c18.952 29.758 30.296 64.852 30.296 102.75 0 106.040-85.96 192-192 192z" />
<glyph unicode="&#xe90a;" glyph-name="alarm-snooze" d="M192 960c-106.040 0-192-85.96-192-192 0-37.898 11.344-72.992 30.296-102.75l291.818 243.18c-34.25 31.742-79.732 51.57-130.114 51.57zM512.028 832c-247.422 0-448-200.578-448-448 0-106.414 37.264-204.032 99.242-280.882l-85.18-85.18c-9.376-9.376-14.062-21.656-14.062-33.938 0-25.58 20.596-48 48-48 12.28 0 24.562 4.688 33.936 14.062l85.18 85.18c76.852-61.976 174.47-99.242 280.884-99.242s204.030 37.266 280.882 99.242l85.18-85.18c9.374-9.374 21.656-14.062 33.938-14.062 27.418 0 48 22.42 48 48 0 12.282-4.688 24.562-14.064 33.938l-85.178 85.18c61.976 76.85 99.242 174.468 99.242 280.882 0 247.422-200.578 448-448 448zM512.028 32c-194.094 0-352 157.906-352 352s157.906 352 352 352 352-157.906 352-352-157.906-352-352-352zM832 960c-50.382 0-95.864-19.828-130.114-51.57l291.818-243.18c18.952 29.758 30.296 64.852 30.296 102.75 0 106.040-85.96 192-192 192zM627.214 288h-130.5l167.97 210c6.944 8.696 10.522 19.318 10.522 30.024 0 37.358-34.17 47.976-47.992 47.976h-230.374c-26.5 0-48-21.5-48-48s21.5-48 48-48h130.5l-167.968-210c-6.946-8.696-10.524-19.318-10.524-30.024 0-37.358 34.17-47.976 47.992-47.976h230.374c26.5 0 48 21.5 48 48s-21.5 48-48 48z" />
<glyph unicode="&#xe90b;" glyph-name="album" horiz-adv-x="896" d="M448 736c-159.074 0-288-128.926-288-288s128.926-288 288-288 288 128.926 288 288-128.926 288-288 288zM448 384c-35.25 0-64 28.75-64 64s28.75 64 64 64 64-28.75 64-64-28.75-64-64-64zM768 896h-640c-70.398 0-128-57.598-128-128v-640c0-70.398 57.602-128 128-128h640c70.398 0 128 57.602 128 128v640c0 70.402-57.602 128-128 128zM800 128c0-17.344-14.652-32-32-32h-640c-17.348 0-32 14.656-32 32v640c0 17.348 14.652 32 32 32h640c17.348 0 32-14.652 32-32v-640z" />
<glyph unicode="&#xe90c;" glyph-name="album-collection" d="M960.062 912c0 26.5-21.506 48-48.008 48h-800.104c-26.504 0-48.010-21.5-48.010-48v-48h896.122v48zM992.066 752c0 26.5-21.502 48-48.006 48h-864.118c-26.502 0-48.004-21.5-48.004-48v-48h960.128v48zM512.002 84.438c148.816 0 275.332 86.042 283.028 197.542 7.896 117.812-118.622 218.458-283.028 218.458s-290.924-100.646-283.030-218.458c7.696-111.5 134.214-197.542 283.030-197.542zM512.002 320c33.252 0 60.004-20.25 59.756-44.25-0.246-24-27.004-43.5-59.756-43.5-32.754 0-59.506 19.25-59.756 43.5-0.252 24.25 26.502 44.25 59.756 44.25zM960.062 640h-896.122c-48.532 0-65.964-43.644-63.756-69.75l47.208-517.868c6.008-65.918 61.288-116.382 127.486-116.382h674.248c66.198 0 121.476 50.464 127.486 116.382l47.206 517.868c2.212 26.16-15.646 69.75-63.756 69.75zM880.996 61.094c-1.512-16.586-15.212-29.094-31.87-29.094h-674.248c-16.658 0-30.358 12.508-31.87 29.098l-44.024 482.902h826.036l-44.024-482.906z" />
<glyph unicode="&#xe90d;" glyph-name="alicorn" horiz-adv-x="1280" d="M960.176 768c0 17.75-14.252 32-32.006 32s-32.004-14.25-32.004-32 14.248-32 32.004-32 32.006 14.25 32.006 32zM1264.040 864h-172.824l-4.516 5.5c31.984 10.742 58.224 37.464 65.246 71.184 2.070 9.94-5.834 19.316-15.988 19.316h-271.8c-136.776 0-251.796-96-280.802-224h-51.76c-78.046 0-156.126 27.070-209.608 83.898-7.878 8.368-17.782 12.102-27.682 12.102-19.506 0-38.26-15.25-38.26-38 0-172.25 119.522-325.5 280.052-366.5 20.254-5.25 40.006 10.25 40.006 31.25v32.75c0 13.82-8.808 26.484-22.114 30.214-74.824 20.97-138.144 75.494-172.922 146.786 46.762-18.75 97.77-28.5 150.528-28.5h140.526v32c0 106.040 85.978 192 192.036 192h102.77l89.264-108.5v-130.75c0-9.488-6.028-17.922-15.004-21l-62.010-21.25c-3.002-1-19.502-6-33.004 7.5l-50.008 50h-64.012v-160c0-52.25-25.256-98-64.016-127.25v-320.75h-96.016v288l-279.8 62.25-57.26-160.25 48.006-190h-83.016l-42.256 175.75c-2.5 10.75-2.25 21.75 0.75 32.25l45.508 153.5c-47.008 19-80.012 64.75-80.012 118.5 0 30 10.248 57.25 27.504 79-17.756 28.5-31.254 59.5-41.258 92.25-15.752-13-30.506-27.25-42.26-44-93.264-4.25-168.028-81-168.028-175.25v-96c0-26.508 21.494-48 48.008-48s48.008 21.492 48.008 48v96c0 26.5 13.752 48.75 33.508 63.25-0.25-5-1.5-10-1.5-15.25 0-60.25 23.754-116.25 64.26-157.25l-25.756-87.5c-7.998-26.5-8.748-54.75-2.25-81.75l48.262-200.5c7.002-28.75 32.754-49 62.26-49h149.528c41.706 0 72.264 39.25 62.032 79.672l-51.032 201.578 18.754 52.75 122.022-27v-243c0-35.2 28.808-64 64.012-64h160.030c35.208 0 64.012 28.8 64.012 64v311.25c40.006 45 62.51 102.25 64.012 163.25 0 1.75 0 16.75 0 16.75 42.006-14 76.764-1.5 82.014 0.25l62 21.246c47.872 16.406 80.028 61.41 80.028 112.004v130.27c0 10.206-2.060 20.152-5.158 29.722l125.738 50.008c13.252 8.75 7 29.25-8.752 29.25z" />
<glyph unicode="&#xe90e;" glyph-name="alien" horiz-adv-x="896" d="M448 960c-247.5 0-448-175.988-448-464.968 0-223.49 268.5-448.974 389.75-539.72 34.5-25.75 82-25.75 116.5 0 121.25 90.746 389.75 316.23 389.75 539.72 0 288.98-200.5 464.968-448 464.968zM447.25 32.308c-220 164.238-351.25 337.228-351.25 462.724 0 220.734 141.5 368.976 352 368.976s352-148.242 352-368.976c0-125.496-131.25-298.486-352.75-462.724zM259.75 512.028h-64.25c-17.5 0-32-14.25-32-31.996 0.25-88.246 71.75-159.992 160-159.992h64c17.75 0 32 14.25 32 32 0.25 88.242-71.502 159.988-159.75 159.988zM704 512l-60.5 0.028c-88.25 0-160-71.746-160-159.988 0.25-17.75 14.5-32 32-32h64c88.498 0 160 71.746 160.25 159.992 0 17.746-18 31.968-35.75 31.968z" />
<glyph unicode="&#xe90f;" glyph-name="alien-8bit" horiz-adv-x="1152" d="M1120 704h-32c-17.75 0-32-14.25-32-32v-192h-96v128c0 17.75-14.25 32-32 32h-64v128h64c17.75 0 32 14.25 32 32v64c0 17.75-14.25 32-32 32h-32c-17.75 0-32-14.25-32-32v-32h-64c-17.75 0-32-14.25-32-32v-96h-384v96c0 17.75-14.25 32-32 32h-64v32c0 17.75-14.25 32-32 32h-32c-17.75 0-32-14.25-32-32v-64c0-17.75 14.25-32 32-32h64v-128h-64c-17.75 0-32-14.25-32-32v-128h-96v192c0 17.75-14.25 32-32 32h-32c-17.75 0-32-14.25-32-32v-256c0-17.75 14.25-32 32-32h96v-160c0-17.75 14.25-32 32-32h96v-160c0-17.75 14.25-32 32-32h192c17.75 0 32 14.25 32 32v32c0 17.75-14.25 32-32 32h-128v96h448v-96h-128c-17.75 0-32-14.25-32-32v-32c0-17.75 14.25-32 32-32h192c17.75 0 32 14.25 32 32v160h96c17.75 0 32 14.25 32 32v160h96c17.75 0 32 14.25 32 32v256c0 17.75-14.25 32-32 32zM928 288h-704v96h64v160h96v64h384v-64h96v-160h64v-96zM480 512h-64c-17.75 0-32-14.25-32-32v-96c0-17.75 14.25-32 32-32h64c17.75 0 32 14.25 32 32v96c0 17.75-14.25 32-32 32zM736 512h-64c-17.75 0-32-14.25-32-32v-96c0-17.75 14.25-32 32-32h64c17.75 0 32 14.25 32 32v96c0 17.75-14.25 32-32 32z" />
<glyph unicode="&#xe910;" glyph-name="align-center" horiz-adv-x="896" d="M240 784h416c26.51 0 48 21.49 48 48v0c0 26.51-21.49 48-48 48h-416c-26.51 0-48-21.49-48-48v0c0-26.51 21.49-48 48-48zM848 112h-800c-26.51 0-48-21.49-48-48v0c0-26.51 21.49-48 48-48h800c26.51 0 48 21.49 48 48v0c0 26.51-21.49 48-48 48zM656 272c26.51 0 48 21.49 48 48v0c0 26.51-21.49 48-48 48h-416c-26.51 0-48-21.49-48-48v0c0-26.51 21.49-48 48-48h416zM848 624h-800c-26.51 0-48-21.49-48-48v0c0-26.51 21.49-48 48-48h800c26.51 0 48 21.49 48 48v0c0 26.51-21.49 48-48 48z" />
<glyph unicode="&#xe911;" glyph-name="align-justify" horiz-adv-x="896" d="M848 368h-800c-26.51 0-48-21.49-48-48v0c0-26.51 21.49-48 48-48h800c26.51 0 48 21.49 48 48v0c0 26.51-21.49 48-48 48zM848 112h-800c-26.51 0-48-21.49-48-48v0c0-26.51 21.49-48 48-48h800c26.51 0 48 21.49 48 48v0c0 26.51-21.49 48-48 48zM848 624h-800c-26.51 0-48-21.49-48-48v0c0-26.51 21.49-48 48-48h800c26.51 0 48 21.49 48 48v0c0 26.51-21.49 48-48 48zM848 880h-800c-26.51 0-48-21.49-48-48v0c0-26.51 21.49-48 48-48h800c26.51 0 48 21.49 48 48v0c0 26.51-21.49 48-48 48z" />
<glyph unicode="&#xe912;" glyph-name="align-left" horiz-adv-x="896" d="M41.75 784h492.5c23.058 0 41.75 18.692 41.75 41.75v12.5c0 23.058-18.692 41.75-41.75 41.75h-492.5c-23.058 0-41.75-18.692-41.75-41.75v-12.5c0-23.058 18.692-41.75 41.75-41.75zM41.75 272h492.5c23.058 0 41.75 18.692 41.75 41.75v12.5c0 23.058-18.692 41.75-41.75 41.75h-492.5c-23.058 0-41.75-18.692-41.75-41.75v-12.5c0-23.058 18.692-41.75 41.75-41.75zM848 624h-800c-26.51 0-48-21.49-48-48v0c0-26.51 21.49-48 48-48h800c26.51 0 48 21.49 48 48v0c0 26.51-21.49 48-48 48zM848 112h-800c-26.51 0-48-21.49-48-48v0c0-26.51 21.49-48 48-48h800c26.51 0 48 21.49 48 48v0c0 26.51-21.49 48-48 48z" />
<glyph unicode="&#xe913;" glyph-name="align-right" horiz-adv-x="896" d="M848 112h-800c-26.51 0-48-21.49-48-48v0c0-26.51 21.49-48 48-48h800c26.51 0 48 21.49 48 48v0c0 26.51-21.49 48-48 48zM854.25 368h-492.5c-23.058 0-41.75-18.692-41.75-41.75v-12.5c0-23.058 18.692-41.75 41.75-41.75h492.5c23.058 0 41.75 18.692 41.75 41.75v12.5c0 23.058-18.692 41.75-41.75 41.75zM854.25 880h-492.5c-23.058 0-41.75-18.692-41.75-41.75v-12.5c0-23.058 18.692-41.75 41.75-41.75h492.5c23.058 0 41.75 18.692 41.75 41.75v12.5c0 23.058-18.692 41.75-41.75 41.75zM848 624h-800c-26.51 0-48-21.49-48-48v0c0-26.51 21.49-48 48-48h800c26.51 0 48 21.49 48 48v0c0 26.51-21.49 48-48 48z" />
<glyph unicode="&#xe914;" glyph-name="align-slash" horiz-adv-x="1280" d="M239.998 272h391.082l-122.484 96h-268.598c-26.508 0-48-21.488-48-48 0-26.508 21.492-48 48-48zM239.998 112c-26.508 0-48-21.488-48-48 0-26.508 21.492-48 48-48h717.708l-122.484 96h-595.224zM1261.62 21.796l-319.226 250.204h97.604c26.508 0 48 21.492 48 48 0 26.512-21.492 48-48 48h-220.090l-204.14 160h424.23c26.508 0 48 21.492 48 48 0 26.512-21.492 48-48 48h-546.714l-204.14 160h750.854c26.508 0 48 21.492 48 48 0 26.512-21.492 48-48 48h-800c-18.034 0-33.156-10.356-41.358-25.062l-121.012 94.844c-8.814 6.874-19.25 10.218-29.564 10.218-14.25 0-28.374-6.312-37.812-18.376-16.374-20.874-12.75-51.058 8.126-67.402l1183.992-927.988c21-16.406 51.124-12.656 67.374 8.156 16.376 20.876 12.75 51.064-8.124 67.406z" />
<glyph unicode="&#xe915;" glyph-name="alt" d="M976 800c26.5 0 48 21.5 48 48s-21.5 48-48 48h-169.812c-15 0-29.126-7-38.188-18.906l-573.938-781.094h-146.062c-26.5 0-48-21.5-48-48s21.5-48 48-48h169.812c15 0 29.126 7 38.188 18.906l573.938 781.094h146.062zM976 96h-288c-26.508 0-48-21.488-48-48 0-26.508 21.492-48 48-48h288c26.508 0 48 21.492 48 48 0 26.512-21.492 48-48 48z" />
<glyph unicode="&#xe916;" glyph-name="ampersand" horiz-adv-x="768" d="M750.8 107.624l-112.824 121.102 119.7 184.43c19.246 29.656 10.812 69.282-18.876 88.532-29.624 19.156-69.312 10.812-88.5-18.844l-102.268-157.574-145.352 156.012 102.688 79.78c44.874 35.906 70.62 89.344 70.62 146.656 0 103.814-84.934 188.282-189.37 188.282h-101.246c-104.438 0-189.372-84.468-189.372-188.282 0-54.406 20.372-106.468 57.622-146.812l60-64.438-130.31-101.28c-52.936-42.406-83.312-105.47-83.312-173 0-122.5 100.312-222.188 223.558-222.188h120.996c87.938 0 170.064 43.062 219.684 115.218 0.266 0.364 0.48 0.742 0.73 1.118 0.078 0.122 0.192 0.2 0.27 0.32l0.91 1.402 91.028-97.682c12.562-13.532 29.688-20.376 46.812-20.376 15.626 0 31.312 5.688 43.626 17.156 25.87 24.126 27.308 64.594 3.186 90.468zM285.372 768h101.246c33.812 0 61.374-27.032 61.374-60.282 0-18.186-8.25-35.218-21.874-46.156l-110.996-86.25-67.626 72.626c-15.188 16.406-23.5 37.624-23.5 59.78 0 33.25 27.562 60.282 61.376 60.282zM458.618 187.5c-25.84-37.246-68.38-59.5-114.064-59.5h-120.996c-52.686 0-95.562 42.25-95.562 94.188 0 28.468 12.876 55.094 34.562 72.5l138.688 107.75 174.958-187.844-17.586-27.094z" />
<glyph unicode="&#xe917;" glyph-name="amp-guitar" d="M768 288c17.75 0 32 14.25 32 32s-14.25 32-32 32-32-14.25-32-32 14.25-32 32-32zM640 288c17.75 0 32 14.25 32 32s-14.25 32-32 32-32-14.25-32-32 14.25-32 32-32zM832 192c17.75 0 32 14.25 32 32s-14.25 32-32 32-32-14.25-32-32 14.25-32 32-32zM704 192c17.75 0 32 14.25 32 32s-14.25 32-32 32-32-14.25-32-32 14.25-32 32-32zM256 160c-17.75 0-32-14.25-32-32s14.25-32 32-32 32 14.25 32 32-14.25 32-32 32zM384 160c-17.75 0-32-14.25-32-32s14.25-32 32-32 32 14.25 32 32-14.25 32-32 32zM576 192c17.75 0 32 14.25 32 32s-14.25 32-32 32-32-14.25-32-32 14.25-32 32-32zM768 160c-17.75 0-32-14.25-32-32s14.25-32 32-32 32 14.25 32 32-14.25 32-32 32zM640 160c-17.75 0-32-14.25-32-32s14.25-32 32-32 32 14.25 32 32-14.25 32-32 32zM512 160c-17.75 0-32-14.25-32-32s14.25-32 32-32 32 14.25 32 32-14.25 32-32 32zM512 288c17.75 0 32 14.25 32 32s-14.25 32-32 32-32-14.25-32-32 14.25-32 32-32zM384 656c-26.5 0-48-21.5-48-48s21.5-48 48-48 48 21.5 48 48-21.5 48-48 48zM224 656c-26.5 0-48-21.5-48-48s21.5-48 48-48 48 21.5 48 48-21.5 48-48 48zM896 800h-91c-49.5 54.5-162 160-293 160s-243.5-105.5-293-160h-91c-70.692 0-128-57.304-128-128v-608c0-70.692 57.308-128 128-128h768c70.692 0 128 57.308 128 128v608c0 70.696-57.308 128-128 128zM512 864c53.75 0 108-29.5 152.5-64h-305c44.5 34.5 98.75 64 152.5 64zM928 64c0-17.672-14.328-32-32-32h-768c-17.672 0-32 14.328-32 32v352h832v-352zM928 512h-832v160c0 17.676 14.328 32 32 32h768c17.672 0 32-14.324 32-32v-160zM192 192c17.75 0 32 14.25 32 32s-14.25 32-32 32-32-14.25-32-32 14.25-32 32-32zM384 288c17.75 0 32 14.25 32 32s-14.25 32-32 32-32-14.25-32-32 14.25-32 32-32zM448 192c17.75 0 32 14.25 32 32s-14.25 32-32 32-32-14.25-32-32 14.25-32 32-32zM256 288c17.75 0 32 14.25 32 32s-14.25 32-32 32-32-14.25-32-32 14.25-32 32-32zM320 192c17.75 0 32 14.25 32 32s-14.25 32-32 32-32-14.25-32-32 14.25-32 32-32zM640 656c-26.5 0-48-21.5-48-48s21.5-48 48-48 48 21.5 48 48-21.5 48-48 48zM800 656c-26.5 0-48-21.5-48-48s21.5-48 48-48 48 21.5 48 48-21.5 48-48 48z" />
<glyph unicode="&#xe918;" glyph-name="anchor" horiz-adv-x="1152" d="M1135.25 340.438l-112 96c-18 15.436-44.5 15.436-62.5 0l-112-96c-20.124-17.25-22.438-47.564-5.188-67.688 17.25-20.062 47.5-22.438 67.688-5.188l31.824 27.282c-4.952-145.648-124.242-262.844-271.074-262.844h-48v416h96c26.5 0 48 21.5 48 48s-21.5 48-48 48h-96v104.14c64.754 20.484 112 80.336 112 151.86 0 88.368-71.632 160-160 160-88.364 0-160-71.632-160-160 0-71.524 47.25-131.376 112-151.86v-104.14h-96c-26.5 0-48-21.5-48-48s21.5-48 48-48h96v-416h-48c-146.832 0-266.12 117.196-271.074 262.844l31.824-27.282c9.062-7.78 20.156-11.562 31.22-11.562 13.53 0 26.968 5.688 36.468 16.75 17.25 20.126 14.938 50.438-5.188 67.688l-112 96c-18 15.438-44.5 15.438-62.5 0l-112-96c-20.124-17.25-22.438-47.562-5.188-67.688 17.22-20.062 47.5-22.438 67.688-5.188l33.156 28.422c4.32-199.184 167.396-359.984 367.594-359.984h192c200.2 0 363.274 160.8 367.594 359.984l33.156-28.422c9.062-7.78 20.156-11.562 31.22-11.562 13.53 0 26.968 5.688 36.468 16.75 17.25 20.126 14.938 50.438-5.188 67.688zM576 864c35.29 0 64-28.71 64-64s-28.71-64-64-64-64 28.71-64 64 28.712 64 64 64zM991.090 336l0.91 0.782 0.91-0.782h-1.82z" />
<glyph unicode="&#xe919;" glyph-name="angel" horiz-adv-x="1152" d="M1143.494 53.75l-76.498 157.25c-13.25 27-13.25 59.25 0 86.25 32.498 66.75 52.748 75 52.748 150.5 0 102.25-93.748 192-200.746 192-50.248 0-97.498-20-132.496-56.25l-145.498-146.75c-20.498 6.75-42.498 10.75-64.998 10.75s-44.248-4-64.748-10.75l-145.496 146.75c-35.25 36-82.25 56-132.498 56-106.998 0-200.746-89.75-200.746-192 0-75.75 20.25-84 52.75-150.5 13.248-27 13.248-59.25 0-86.25l-76.5-157c-28.998-59.5 18.75-117.75 72.75-117.75h989.228c55.248 0 100.748 59.75 72.748 117.75zM104.766 32l66.75 137.25c25.998 53.25 25.998 117 0 170.25-10.75 22.25-19.75 37.75-27 50-14.25 25-16 28-16 58.5 0 49.5 51 96 104.748 96 24.25 0 46.998-9.75 64.248-27.5l130.248-131.5c-14.5-15-27.25-32.25-36.75-51.5l-150.746-301.5h-135.498zM347.512 32l129.246 258.5c19 38 57 61.5 99.498 61.5 42.25 0 80.248-23.5 99.248-61.5l128.998-258.5h-456.99zM911.748 32l-150.496 301.5c-9.75 19.5-22.25 36.5-36.75 51.5l130.248 131.5c17.25 18 40 27.5 64.248 27.5 54 0 104.748-46.5 104.748-96 0-30.5-1.75-33.5-16.25-58.5-7-12.25-15.998-27.75-26.998-50-25.75-53.25-25.75-117 0-170.25l66.998-137.25h-135.748zM416.010 672c0-88.5 71.498-160 159.996-160s159.996 71.5 159.996 160-71.498 160-159.996 160-159.996-71.5-159.996-160zM640.004 672c0-35.25-28.748-64-63.998-64s-63.998 28.75-63.998 64 28.75 64 63.998 64 63.998-28.75 63.998-64zM353.512 685.5h0.25c1.75 26 7.75 50.5 17.748 73.25-21.998 12-35.248 26-35.248 41.25 0 44.25 107.248 80 239.994 80 132.498 0 239.996-35.75 239.996-80 0-15.25-13.5-29.25-35.25-41.25 9.75-22.75 16-47.25 17.5-73.25h0.5c59.498 29 96.998 69.5 96.998 114.5 0 88.5-143.248 160-319.994 160s-319.992-71.5-319.992-160c0-45 37.498-85.5 97.498-114.5z" />
<glyph unicode="&#xe91a;" glyph-name="angle" horiz-adv-x="896" d="M630.918 160h97.78c-12.636 86.59-41.68 167.91-84.038 240.676l-82.204-49.32c33.644-58.13 56.722-122.832 68.462-191.356zM417.718 516.188c41.16-32.274 78.438-69.184 109.528-111.32l82.616 49.57c-40.866 56.968-90.836 106.602-147.102 148.358l-45.042-86.608zM848 95.996h-720.946l379.536 729.816c12.218 23.532 3.062 52.496-20.438 64.746-23.594 12.25-52.5 3.126-64.75-20.434l-416.004-800c-7.72-14.874-7.126-32.686 1.562-47.062 8.718-14.312 24.25-23.062 41.032-23.062h800.008c26.5 0 48 21.5 48 48s-21.5 47.996-48 47.996z" />
<glyph unicode="&#xe91b;" glyph-name="angle-90" horiz-adv-x="896" d="M630.918 160h97.782c-12.638 86.59-41.68 167.91-84.040 240.676l-82.202-49.32c33.644-58.13 56.722-122.832 68.46-191.356zM527.246 404.868l82.618 49.57c-42.996 59.936-95.492 112.434-155.43 155.43l-49.57-82.618c46.698-34.458 87.926-75.684 122.382-122.382zM848 96h-752v752c0 26.5-21.5 48-48 48s-48-21.5-48-48v-800c0-26.5 21.5-48 48-48h800c26.5 0 48 21.5 48 48s-21.5 48-48 48zM400.68 644.656c-72.766 42.364-154.090 71.406-240.68 84.044v-97.782c68.52-11.738 133.226-34.816 191.36-68.464l49.32 82.202z" />
<glyph unicode="&#xe91c;" glyph-name="angle-down" horiz-adv-x="768" d="M721.002 525.094l-304.004-287.97c-9.25-8.748-21.124-13.124-33-13.124s-23.75 4.376-33 13.124l-304.004 287.97c-19.25 18.25-20.062 48.624-1.874 67.866 18.25 19.376 48.75 20.064 67.874 1.876l271.004-256.726 271.004 256.726c19.126 18.188 49.5 17.5 67.876-1.876 18.186-19.242 17.374-49.616-1.876-67.866z" />
<glyph unicode="&#xe91d;" glyph-name="angle-left" horiz-adv-x="512" d="M333.094 110.994l-287.97 304.004c-8.75 9.25-13.124 21.126-13.124 33 0 11.876 4.376 23.75 13.124 33l287.97 304.004c18.25 19.25 48.624 20.062 67.866 1.876 19.376-18.25 20.064-48.75 1.876-67.876l-256.726-271.004 256.726-271.004c18.188-19.124 17.5-49.5-1.876-67.874-19.242-18.188-49.616-17.376-67.866 1.874z" />
<glyph unicode="&#xe91e;" glyph-name="angle-right" horiz-adv-x="512" d="M178.906 785.006l287.97-304.004c8.75-9.25 13.124-21.126 13.124-33 0-11.876-4.374-23.75-13.124-33l-287.97-304.004c-18.25-19.25-48.624-20.062-67.866-1.876-19.376 18.25-20.062 48.75-1.876 67.876l256.728 271.004-256.728 271.004c-18.186 19.124-17.5 49.5 1.876 67.874 19.242 18.188 49.616 17.376 67.866-1.874z" />
<glyph unicode="&#xe91f;" glyph-name="angles-down" horiz-adv-x="768" d="M656.010 419.762l-272.010-243.3-272.010 243.3c-9.124 8.186-20.562 12.25-32 12.25-13.188 0-26.314-5.376-35.752-16-17.688-19.748-16-50.122 3.75-67.746l304.010-271.986c18.252-16.374 45.752-16.374 64.004 0l304.010 271.986c19.75 17.624 21.438 47.998 3.75 67.746-17.626 19.812-48.064 21.436-67.752 3.75zM351.998 460.26c18.252-16.374 45.752-16.374 64.004 0l304.010 271.984c19.75 17.624 21.438 47.998 3.75 67.748-17.626 19.81-48.064 21.436-67.752 3.75l-272.010-243.3-272.010 243.298c-9.124 8.188-20.562 12.25-32 12.25-13.188 0-26.314-5.374-35.752-15.998-17.688-19.75-16-50.124 3.75-67.748l304.010-271.984z" />
<glyph unicode="&#xe920;" glyph-name="angles-left" horiz-adv-x="896" d="M427.762 183.99l-243.3 272.010 243.3 272.010c8.186 9.124 12.25 20.562 12.25 32 0 13.188-5.376 26.314-16 35.752-19.748 17.688-50.122 16-67.746-3.75l-271.986-304.010c-16.374-18.252-16.374-45.752 0-64.004l271.986-304.010c17.624-19.75 47.998-21.438 67.746-3.75 19.812 17.626 21.436 48.064 3.75 67.752zM468.26 488.002c-16.374-18.252-16.374-45.752 0-64.004l271.984-304.010c17.624-19.75 47.998-21.438 67.748-3.75 19.81 17.626 21.436 48.064 3.748 67.752l-243.298 272.010 243.298 272.010c8.188 9.124 12.25 20.562 12.25 32 0 13.188-5.374 26.314-15.998 35.752-19.75 17.688-50.124 16-67.748-3.75l-271.984-304.010z" />
<glyph unicode="&#xe921;" glyph-name="angles-right" horiz-adv-x="896" d="M476.238 728.010l243.3-272.010-243.3-272.010c-8.186-9.124-12.25-20.562-12.25-32 0-13.188 5.376-26.314 16-35.752 19.748-17.688 50.122-16 67.746 3.75l271.986 304.010c16.374 18.252 16.374 45.752 0 64.004l-271.986 304.010c-17.624 19.75-47.998 21.438-67.746 3.75-19.812-17.626-21.436-48.064-3.75-67.752zM435.74 423.998c16.374 18.252 16.374 45.752 0 64.004l-271.984 304.010c-17.624 19.75-47.998 21.438-67.748 3.75-19.81-17.626-21.436-48.064-3.75-67.752l243.3-272.010-243.298-272.010c-8.188-9.124-12.25-20.562-12.25-32 0-13.188 5.374-26.314 15.998-35.752 19.75-17.688 50.124-16 67.748 3.75l271.984 304.010z" />
<glyph unicode="&#xe922;" glyph-name="angles-up" horiz-adv-x="768" d="M111.99 476.238l272.010 243.3 272.010-243.3c9.124-8.186 20.562-12.25 32-12.25 13.188 0 26.314 5.376 35.752 16 17.688 19.748 16 50.122-3.75 67.746l-304.010 271.986c-18.252 16.374-45.752 16.374-64.004 0l-304.010-271.986c-19.75-17.624-21.438-47.998-3.75-67.746 17.626-19.812 48.064-21.436 67.752-3.75zM416.002 435.74c-18.252 16.374-45.752 16.374-64.004 0l-304.010-271.984c-19.75-17.624-21.438-47.998-3.75-67.748 17.626-19.81 48.064-21.436 67.752-3.748l272.010 243.298 272.010-243.298c9.124-8.188 20.562-12.25 32-12.25 13.188 0 26.314 5.374 35.752 15.998 17.688 19.75 16 50.124-3.75 67.748l-304.010 271.984z" />
<glyph unicode="&#xe923;" glyph-name="angle-up" horiz-adv-x="768" d="M46.994 370.906l304.004 287.97c9.25 8.748 21.126 13.124 33 13.124s23.75-4.376 33-13.124l304.004-287.97c19.25-18.25 20.062-48.624 1.876-67.866-18.25-19.376-48.75-20.064-67.876-1.876l-271.004 256.726-271.004-256.726c-19.124-18.188-49.5-17.5-67.874 1.876-18.188 19.242-17.376 49.616 1.874 67.866z" />
<glyph unicode="&#xe924;" glyph-name="ankh" horiz-adv-x="640" d="M592 416h-137.75c58.75 72.75 109.5 175.75 109.5 269.75 0 168.25-109 274.25-243.75 274.25s-243.75-106-243.75-274.25c0-94 50.75-197 109.5-269.75h-137.75c-26.51 0-48-21.49-48-48v0c0-26.51 21.49-48 48-48h224v-336c0-26.51 21.49-48 48-48v0c26.51 0 48 21.49 48 48v336h224c26.51 0 48 21.49 48 48v0c0 26.51-21.49 48-48 48zM320 864c88.5 0 147.75-71.75 147.75-178.25 0-107.75-99.25-239-147.75-266.75-48.5 27.75-147.75 159-147.75 266.75 0 106.5 59.25 178.25 147.75 178.25z" />
<glyph unicode="&#xe925;" glyph-name="aperture" d="M512 928c-265.098 0-480-214.902-480-480s214.902-480 480-480 480 214.902 480 480-214.902 480-480 480zM834.312 656h-331.55l95.734 165.812c98.468-22.788 182.442-83.39 235.816-165.812zM641.332 448.004l-64.668-112.004h-129.332l-64.664 111.996 64.668 112.004h129.332l64.664-111.996zM492.984 831.040l-165.734-287.056-95.598 165.574c66.066 70.766 158.348 116.4 261.332 121.482zM170.692 623.172l165.8-287.172h-191.73c-10.836 35.46-16.762 73.042-16.762 112 0 63.124 15.59 122.582 42.692 175.172zM189.688 240h331.55l-95.734-165.812c-98.468 22.788-182.442 83.39-235.816 165.812zM531.016 64.96l165.734 287.056 95.598-165.574c-66.066-70.766-158.348-116.4-261.332-121.482zM853.308 272.828l-165.8 287.172h191.73c10.836-35.46 16.762-73.042 16.762-112 0-63.124-15.59-122.582-42.692-175.172z" />
<glyph unicode="&#xe926;" glyph-name="apple-core" horiz-adv-x="768" d="M380.566 736c37.506 0 104.264 6.5 146.522 48.75 61.012 61.25 47.508 174 47.508 174s-11 1.25-27.504 1.25c-37.508 0-104.266-6.5-146.522-48.75-61.008-61.25-47.508-174-47.508-174s10.754-1.25 27.504-1.25zM575.814 352c0 121.79 61.876 229.098 155.878 292.296-31.924 29.914-70.006 49.586-112.588 56.954-10.642 1.852-22.094 2.696-34.090 2.696-65.804 0-147.902-25.454-201.198-50.196-53.29 24.738-135.212 50.192-201.114 50.196-12.014 0.004-23.488-0.844-34.172-2.696-42.6-7.368-80.574-27.050-112.53-56.988 93.972-63.204 155.816-170.496 155.816-292.262 0-121.73-61.808-229.004-155.742-292.214 54.254-72.856 131.128-123.786 234.226-123.786 26.754 0 55.258 8 84.512 24 9.004 4.876 19.004 7.312 29.008 7.312 10 0 20.002-2.436 29.002-7.312 29.254-16 57.758-24 84.512-24 103.098 0 179.972 50.93 234.226 123.786-93.934 63.21-155.746 170.484-155.746 292.214zM497.334 32c-7.34 0-19.968 2.122-38.788 12.414-22.828 12.364-48.668 18.898-74.726 18.898s-51.9-6.534-75.072-19.086c-18.476-10.104-31.104-12.226-38.448-12.226-34.406 0-65.328 8.262-93.254 25.054 70.648 80.708 110.77 185.028 110.77 294.946 0 92.254-28.266 180.562-79.11 254.274 45.418-5.406 98.996-23.028 134.688-39.598l40.422-18.766 40.42 18.766c35.68 16.562 89.25 34.18 134.688 39.594-50.844-73.712-79.11-162.016-79.11-254.27 0-109.918 40.126-214.238 110.774-294.946-27.922-16.788-58.852-25.054-93.254-25.054z" />
<glyph unicode="&#xe927;" glyph-name="apple-crate" d="M421 859c22.75 24.5 29 64 26.5 100.5-25.75 1.75-71.25 0.25-100-26.5-33-33.25-27.5-92.75-26.5-100.5 37-2.5 75.5 3.75 100 26.5zM804.5 859c22.5 24.5 28.75 64 26.5 100.5-26 1.75-71.5 0.25-100.25-26.5-33-33.25-27.5-92.75-26.25-100.5 36.75-2.5 75.5 3.75 100 26.5zM165 576c-0.5 3-1.75 5.25-2.25 8.25-6.25 34-2 86 18.25 115.25 10.5 15.25 22 19 28.75 20.25 14.25 1.75 57-6.75 86.75-23.5l23.5-13 23.5 13c29.5 16.5 72.25 25.75 86.5 23.5 12-2.25 21.25-8.75 29.25-20.25 20.25-29.25 24.5-81.25 18-116-0.5-2.75-1.5-4.75-2-7.5h97.25c5.25 36 3 80-8.75 120.75 0.5 0.75 0.75 2 1.25 2.75 10.5 15.25 21.75 19 29 20.25 13.5 2.25 57-6.75 86.75-23.5l23.25-13 23.5 13c29.5 16.5 72.25 25.75 86.5 23.5 7.5-1.5 18.75-5.25 29.25-20.25 20.25-29.25 24.5-81.25 18-116-0.5-2.75-1.5-4.75-2-7.5h97.25c8 54 1 127-34.25 178-22.5 32.75-54.25 53.5-91.75 60.25h-0.5c-36.5 6.25-87-6-126-22.75-39 16.75-89.75 28.75-126.5 22.75-24.75-4.5-46.75-15.75-65.5-31.75-18.75 16-40.75 27.25-65.5 31.75h-0.5c-36.5 6.25-87-6-126-22.75-39 16.75-90 28.75-126.5 22.75-37.25-6.75-69-27.5-91.5-60-35.5-51.5-42.5-125-34.5-178.25h97.5zM960 512.64h-896c-35.348 0-64-28.656-64-64v-448.64c0-35.348 28.652-64 64-64h896c35.348 0 64 28.652 64 64v448.64c0 35.344-28.652 64-64 64zM928 32h-832v144h832v-144zM928 272h-832v144.64h832v-144.64zM192 320c17.672 0 32 14.328 32 32s-14.328 32-32 32-32-14.328-32-32 14.328-32 32-32zM832 320c17.672 0 32 14.328 32 32s-14.328 32-32 32-32-14.328-32-32 14.328-32 32-32zM192 64c17.672 0 32 14.328 32 32s-14.328 32-32 32-32-14.328-32-32 14.328-32 32-32zM832 64c17.672 0 32 14.328 32 32s-14.328 32-32 32-32-14.328-32-32 14.328-32 32-32z" />
<glyph unicode="&#xe928;" glyph-name="apple-whole" horiz-adv-x="896" d="M830.56 604.75c-37.006 53-88.014 86.25-147.272 96.5-69.012 12-172.278-18.25-235.288-47.5-63.010 29.25-166.026 59.5-235.286 47.5-59.26-10.25-110.018-43.5-147.274-96.5-55.758-79.75-78.512-205-58.008-319 30.504-169.25 132.52-349.75 327.050-349.75 26.754 0 55.26 8 84.514 24 18.002 9.75 40.006 9.75 58.010 0 29.254-16 57.758-24 84.512-24 194.53 0 296.546 180.5 327.052 349.75 20.502 114-2.25 239.25-58.010 319zM794.054 302.75c-8-45.25-57.508-270.75-232.536-270.75-10.502 0-23.754 4.25-38.506 12.25-23.254 12.5-49.008 19-75.012 19s-51.758-6.5-75.012-19c-14.752-8-28.004-12.25-38.506-12.25-175.026 0-224.534 225.5-232.536 270.75-16.002 88.75 1 188 42.256 247 22.254 32 50.758 51 84.764 57 25.254 4.25 107.768 0 219.034-61.5 111.268 61.5 194.030 65.75 219.034 61.5 34.006-6 62.51-25 84.764-57 41.256-59 58.26-158.25 42.256-247zM444.75 736c37.506 0 104.266 6.5 146.524 48.75 61.008 61.25 47.506 174 47.506 174s-11.002 1.25-27.504 1.25c-37.506 0-104.266-6.5-146.522-48.75-61.010-61.25-47.508-174-47.508-174s10.752-1.25 27.504-1.25z" />
<glyph unicode="&#xe929;" glyph-name="archway" horiz-adv-x="1152" d="M1104 864c26.51 0 48 21.49 48 48v0c0 26.51-21.49 48-48 48h-1056c-26.51 0-48-21.49-48-48v0c0-26.51 21.49-48 48-48h16v-832h-16c-26.51 0-48-21.49-48-48v0c0-26.51 21.49-48 48-48h304c17.674 0 32 14.326 32 32v345.55c0 97.622 70.138 184.616 166.988 196.864 117.144 14.816 217.012-76.186 217.012-190.414v-352c0-17.674 14.326-32 32-32h304c26.51 0 48 21.49 48 48v0c0 26.51-21.49 48-48 48h-16v832h16zM992 864v-80h-832v80h832zM864 32v288c0 158.75-129.25 288-288 288s-288-129.25-288-288v-288h-128v656h832v-656h-128z" />
<glyph unicode="&#xe92a;" glyph-name="arrow-down" horiz-adv-x="896" d="M818.74 366.876l-336-352c-9.062-9.5-21.626-14.876-34.75-14.876s-25.688 5.376-34.75 14.876l-336 352c-18.25 19.186-17.562 49.562 1.624 67.874 19 18.312 49.5 17.626 67.876-1.624l253.25-265.336v680.178c0 26.5 21.5 48 48 48s48-21.5 48-48v-680.178l253.25 265.334c18.312 19.25 48.812 19.938 67.874 1.626 19.188-18.312 19.876-48.688 1.626-67.874z" />
<glyph unicode="&#xe92b;" glyph-name="arrow-down-1-9" d="M704.002 608.016c-26.5 0-48-21.5-48-48s21.5-48 48-48h159.996c26.5 0 48 21.5 48 48s-21.5 48-48 48h-32v240c0 17.312-9.312 33.25-24.37 41.75-15.064 8.624-33.564 8.188-48.314-0.562l-80-48c-22.75-13.688-30.124-43.126-16.5-65.876 13.626-22.688 43-30.124 65.876-16.5l7.312 4.438v-155.25h-32zM783.998 448c-97.202 0-176.004-78.796-176.004-176 0-84.11 59.098-154.204 137.97-171.624l-31.090-38c-16.814-20.5-13.814-50.752 6.75-67.5 8.874-7.314 19.624-10.876 30.374-10.876 13.876 0 27.688 6 37.126 17.624 141.078 172.43 170.874 193.306 170.874 270.376 0 97.204-78.796 176-176 176zM842.498 218.36l-2.886-3.524c-14.418-14.024-33.962-22.836-55.614-22.836-44.112 0-80.004 35.89-80.004 80s35.892 80 80.004 80 80-35.89 80-80c0-20.796-8.444-39.398-21.5-53.64zM412.744 288.078l-108.746-117.906v677.782c0 26.53-21.5 48.046-48 48.046s-48-21.516-48-48.046v-677.782l-108.746 117.906c-9.438 10.25-22.312 15.438-35.25 15.438-11.624 0-23.312-4.188-32.558-12.75-19.5-17.954-20.688-48.36-2.688-67.876l191.992-208.156c18.126-19.64 52.376-19.64 70.5 0l191.992 208.156c18 19.516 16.814 49.922-2.686 67.876-19.56 18.14-49.934 16.828-67.81-2.688z" />
<glyph unicode="&#xe92c;" glyph-name="arrow-down-9-1" d="M412.744 288.078l-108.746-117.906v677.782c0 26.53-21.5 48.046-48 48.046s-48-21.516-48-48.046v-677.782l-108.746 117.906c-9.438 10.25-22.312 15.438-35.25 15.438-11.624 0-23.312-4.188-32.558-12.75-19.5-17.954-20.688-48.36-2.688-67.876l191.992-208.156c18.126-19.64 52.376-19.64 70.5 0l191.992 208.156c18 19.516 16.814 49.922-2.686 67.876-19.56 18.14-49.934 16.828-67.81-2.688zM863.998 96h-32v240c0 17.312-9.312 33.25-24.37 41.75-15.064 8.626-33.564 8.188-48.314-0.562l-80-48c-22.75-13.688-30.124-43.126-16.5-65.876 13.626-22.688 43-30.124 65.876-16.5l7.312 4.438v-155.25h-32c-26.5 0-48-21.5-48-48s21.5-48 48-48h159.996c26.5 0 48 21.5 48 48s-21.5 48-48 48zM745.964 548.376l-31.090-38c-16.814-20.5-13.814-50.752 6.75-67.5 8.874-7.314 19.624-10.876 30.374-10.876 13.876 0 27.688 6 37.126 17.624 141.078 172.43 170.874 193.306 170.874 270.376 0 97.204-78.796 176-176 176s-176.004-78.796-176.004-176c0-84.11 59.098-154.204 137.97-171.624zM783.998 800c44.114 0 80-35.89 80-80 0-20.796-8.444-39.398-21.5-53.64l-2.886-3.524c-14.418-14.024-33.962-22.836-55.614-22.836-44.112 0-80.004 35.89-80.004 80s35.892 80 80.004 80z" />
<glyph unicode="&#xe92d;" glyph-name="arrow-down-arrow-up" horiz-adv-x="896" d="M412.744 288.078l-108.746-117.906v677.782c0 26.53-21.5 48.046-48 48.046s-48-21.516-48-48.046v-677.782l-108.746 117.906c-9.438 10.25-22.312 15.438-35.25 15.438-11.624 0-23.312-4.188-32.558-12.75-19.5-17.954-20.688-48.36-2.688-67.876l191.992-208.156c18.126-19.64 52.376-19.64 70.5 0l191.992 208.156c18 19.516 16.814 49.922-2.686 67.876-19.56 18.14-49.934 16.828-67.81-2.688zM867.24 673.11l-191.992 208.156c-18.124 19.64-52.374 19.64-70.5 0l-191.992-208.156c-18-19.516-16.812-49.922 2.688-67.876 9.246-8.562 20.934-12.75 32.558-12.75 12.938 0 25.812 5.188 35.25 15.438l108.746 117.906v-677.782c0-26.53 21.5-48.046 48-48.046s48 21.516 48 48.046v677.782l108.746-117.906c17.876-19.516 48.25-20.828 67.81-2.688 19.5 17.954 20.686 48.36 2.686 67.876z" />
<glyph unicode="&#xe92e;" glyph-name="arrow-down-a-z" d="M879.978 96h-125.87l163.742 210.5c11.25 14.5 13.312 34.124 5.25 50.562-8.062 16.5-24.812 26.938-43.122 26.938h-223.992c-26.5 0-47.996-21.5-47.996-48s21.496-48 47.996-48h125.872l-163.746-210.5c-11.246-14.5-13.308-34.124-5.25-50.562 8.062-16.5 24.812-26.938 43.124-26.938h223.992c26.498 0 47.998 21.5 47.998 48s-21.5 48-47.998 48zM954.912 581.438l-143.996 288c-16.246 32.624-69.62 32.624-85.87 0l-143.992-288c-11.876-23.688-2.25-52.5 21.5-64.376 23.808-11.874 52.496-2.312 64.37 21.5l10.718 21.438h180.68l10.72-21.438c8.436-16.874 25.37-26.562 42.996-26.562 7.188 0 14.5 1.624 21.374 5.062 23.75 11.876 33.376 40.688 21.5 64.376zM725.64 656l42.342 84.688 42.344-84.688h-84.686zM412.744 288.078l-108.746-117.906v677.782c0 26.53-21.5 48.046-48 48.046s-48-21.516-48-48.046v-677.782l-108.746 117.906c-9.438 10.25-22.312 15.438-35.25 15.438-11.624 0-23.312-4.188-32.558-12.75-19.5-17.954-20.688-48.36-2.688-67.876l191.992-208.156c18.126-19.64 52.376-19.64 70.5 0l191.992 208.156c18 19.516 16.814 49.922-2.686 67.876-19.56 18.14-49.934 16.828-67.81-2.688z" />
<glyph unicode="&#xe92f;" glyph-name="arrow-down-big-small" d="M959.998 896h-320c-35.348 0-64-28.656-64-64v-320c0-35.344 28.652-64 64-64h320c35.348 0 64 28.656 64 64v320c0 35.344-28.652 64-64 64zM927.998 544h-256v256h256v-256zM831.998 320h-192c-35.198 0-64-28.796-64-64v-192c0-35.204 28.802-64 64-64h192c35.2 0 64 28.796 64 64v192c0 35.204-28.8 64-64 64zM799.998 96h-128v128h128v-128zM412.744 288.078l-108.746-117.906v677.782c0 26.53-21.5 48.046-48 48.046s-48-21.516-48-48.046v-677.782l-108.746 117.906c-9.438 10.25-22.312 15.438-35.25 15.438-11.624 0-23.312-4.188-32.558-12.75-19.5-17.954-20.688-48.36-2.688-67.876l191.992-208.156c18.126-19.64 52.376-19.64 70.5 0l191.992 208.156c18 19.516 16.814 49.922-2.686 67.876-19.56 18.14-49.934 16.828-67.81-2.688z" />
<glyph unicode="&#xe930;" glyph-name="arrow-down-from-dotted-line" horiz-adv-x="896" d="M448 768.002c35.348 0 64 28.656 64 64s-28.652 64-64 64-64-28.656-64-64 28.652-64 64-64zM832 768.002c35.348 0 64 28.656 64 64s-28.652 64-64 64-64-28.656-64-64 28.652-64 64-64zM640 768.002c35.348 0 64 28.656 64 64s-28.652 64-64 64-64-28.656-64-64 28.652-64 64-64zM256 768.002c35.348 0 64 28.656 64 64s-28.652 64-64 64-64-28.656-64-64 28.652-64 64-64zM64 768.002c35.348 0 64 28.656 64 64s-28.652 64-64 64-64-28.656-64-64 28.652-64 64-64zM413.062 14.548c18.126-19.398 51.75-19.398 69.876 0l256 272.414c18.188 19.344 17.25 49.766-2.062 67.914-19.25 18.22-49.626 17.344-67.814-2.062l-173.062-184.108v423.218c0 26.546-21.5 48.078-48 48.078s-48-21.532-48-48.078v-423.218l-173.062 184.108c-9.438 10.078-22.188 15.148-34.938 15.148-11.812 0-23.624-4.32-32.876-13.086-19.312-18.148-20.248-48.57-2.062-67.914l256-272.414z" />
<glyph unicode="&#xe931;" glyph-name="arrow-down-from-line" horiz-adv-x="768" d="M48 799.936h672c26.5 0 48 21.514 48 48.032s-21.5 48.032-48 48.032h-672c-26.5 0-48-21.514-48-48.032s21.5-48.032 48-48.032zM605.062 352.514l-173.062-183.95v487.276c0 26.518-21.5 48.032-48 48.032s-48-21.514-48-48.032v-487.276l-173.062 183.95c-9.438 10.070-22.188 15.136-34.938 15.136-11.812 0-23.624-4.316-32.874-13.072-19.314-18.136-20.25-48.532-2.064-67.856l256-272.182c18.126-19.386 51.75-19.386 69.876 0l256 272.182c18.186 19.324 17.25 49.72-2.064 67.856-19.25 18.2-49.624 17.324-67.812-2.064z" />
<glyph unicode="&#xe932;" glyph-name="arrow-down-left" horiz-adv-x="768" d="M689.938 686.062l-462.062-462.062h364.124c26.5 0 48-21.5 48-48s-21.5-48-48-48h-480c-26.5 0-48 21.5-48 48v480c0 26.5 21.5 48 48 48s48-21.5 48-48v-364.124l462.062 462.062c18.75 18.75 49.126 18.75 67.876 0s18.75-49.126 0-67.876z" />
<glyph unicode="&#xe933;" glyph-name="arrow-down-left-and-arrow-up-right-to-center" d="M573.656 483.99c5.868-2.422 12.094-3.702 18.344-3.702h288c26.5 0 48 21.5 48 48s-21.5 48-48 48h-172.124l270.062 270.062c18.75 18.75 18.75 49.124 0 67.874s-49.126 18.75-67.876 0l-270.062-270.062v172.126c0 26.5-21.5 48-48 48s-48-21.5-48-48v-288c0-6.266 1.282-12.5 3.71-18.36 4.868-11.726 14.22-21.070 25.946-25.938zM450.344 412.584c-5.868 2.422-12.094 3.704-18.344 3.704h-288c-26.5 0-48-21.5-48-48s21.5-48 48-48h172.126l-270.064-270.064c-18.75-18.75-18.75-49.124 0-67.874s49.126-18.75 67.876 0l270.062 270.062v-172.124c0-26.5 21.5-48 48-48s48 21.5 48 48v288c0 6.264-1.282 12.5-3.71 18.358-4.868 11.726-14.22 21.070-25.946 25.938z" />
<glyph unicode="&#xe934;" glyph-name="arrow-down-long" horiz-adv-x="640" d="M14.062 289.938c9.376 9.374 21.626 14.062 33.938 14.062s24.562-4.688 33.938-14.062l190.062-190.062v812.124c0 26.5 21.5 48 48 48s48-21.5 48-48v-812.124l190.062 190.062c18.75 18.75 49.126 18.75 67.876 0s18.75-49.126 0-67.876l-272-272c-18.75-18.75-49.126-18.75-67.876 0l-272 272c-18.75 18.75-18.75 49.126 0 67.876z" />
<glyph unicode="&#xe935;" glyph-name="arrow-down-right" horiz-adv-x="768" d="M704 656v-480c0-26.5-21.5-48-48-48h-480c-26.5 0-48 21.5-48 48s21.5 48 48 48h364.124l-462.062 462.062c-18.75 18.75-18.75 49.126 0 67.876s49.126 18.75 67.876 0l462.062-462.062v364.124c0 26.5 21.5 48 48 48s48-21.5 48-48z" />
<glyph unicode="&#xe936;" glyph-name="arrow-down-short-wide" horiz-adv-x="1152" d="M623.998 768h96c26.496 0 47.996 21.5 47.996 48s-21.5 48-47.996 48h-96c-26.5 0-48-21.5-48-48s21.5-48 48-48zM623.998 512h223.996c26.5 0 48 21.5 48 48s-21.5 48-48 48h-223.996c-26.5 0-48-21.5-48-48s21.5-48 48-48zM1103.99 96h-479.992c-26.5 0-48-21.5-48-48s21.5-48 48-48h479.992c26.5 0 48 21.5 48 48s-21.5 48-48 48zM623.998 256h351.996c26.5 0 48 21.5 48 48s-21.5 48-48 48h-351.996c-26.5 0-48-21.5-48-48s21.5-48 48-48zM412.744 288.078l-108.746-117.906v677.782c0 26.53-21.5 48.046-48 48.046s-48-21.516-48-48.046v-677.782l-108.746 117.906c-9.438 10.25-22.312 15.438-35.25 15.438-11.624 0-23.312-4.188-32.558-12.75-19.5-17.954-20.688-48.36-2.688-67.876l191.992-208.156c18.126-19.64 52.376-19.64 70.5 0l191.992 208.156c18 19.516 16.814 49.922-2.686 67.876-19.56 18.14-49.934 16.828-67.81-2.688z" />
<glyph unicode="&#xe937;" glyph-name="arrow-down-small-big" d="M639.998 576h192c35.2 0 64 28.796 64 64v192c0 35.204-28.8 64-64 64h-192c-35.198 0-64-28.796-64-64v-192c0-35.204 28.802-64 64-64zM671.998 800h128v-128h-128v128zM959.998 448h-320c-35.348 0-64-28.656-64-64v-320c0-35.344 28.652-64 64-64h320c35.348 0 64 28.656 64 64v320c0 35.344-28.652 64-64 64zM927.998 96h-256v256h256v-256zM412.744 288.078l-108.746-117.906v677.782c0 26.53-21.5 48.046-48 48.046s-48-21.516-48-48.046v-677.782l-108.746 117.906c-9.438 10.25-22.312 15.438-35.25 15.438-11.624 0-23.312-4.188-32.558-12.75-19.5-17.954-20.688-48.36-2.688-67.876l191.992-208.156c18.126-19.64 52.376-19.64 70.5 0l191.992 208.156c18 19.516 16.814 49.922-2.686 67.876-19.56 18.14-49.934 16.828-67.81-2.688z" />
<glyph unicode="&#xe938;" glyph-name="arrow-down-square-triangle" d="M896.010 896h-256.004c-35.348 0-64-28.656-64-64v-256c0-35.344 28.652-64 64-64h256.004c35.348 0 64 28.656 64 64v256c0 35.344-28.652 64-64 64zM864.010 608h-192.004v192h192.004v-192zM984.264 82.25l-166.254 274.25c-10.75 17.25-29.75 27.5-50 27.5-20.254 0-39.004-10.25-49.754-27.5l-166.504-274.25c-22-36.5 5.5-82.25 50.004-82.25h332.504c44.504 0 72.004 45.75 50.004 82.25zM672.506 96l95.504 157.75 95.5-157.75h-191.004zM483.24 222.894c18 19.516 16.814 49.914-2.686 67.868-9.246 8.562-20.934 12.758-32.56 12.758-12.936 0-25.812-5.196-35.25-15.446l-108.746-117.906v677.79c0 26.522-21.5 48.038-48 48.038s-48-21.516-48-48.038v-677.79l-108.746 117.906c-17.874 19.516-48.25 20.828-67.808 2.688-19.5-17.954-20.688-48.352-2.688-67.868l191.992-208.164c18.126-19.64 52.376-19.64 70.5 0l191.992 208.164z" />
<glyph unicode="&#xe939;" glyph-name="arrow-down-to-bracket" horiz-adv-x="896" d="M704-64h-512c-106.040 0-192 85.96-192 192v144c0 26.508 21.492 48 48 48 26.516 0 48-21.492 48-48v-144c0-52.8 43.204-96 96-96h512c52.796 0 96 43.2 96 96v144c0 26.508 21.492 48 48 48 26.516 0 48-21.492 48-48v-144c0-106.040-85.96-192-192-192zM480.876 269.062l272 256c19.374 18.188 20.248 48.564 2.062 67.814-18.126 19.312-48.5 20.248-67.812 2.062l-191.126-179.836v496.898c0 26.5-21.5 48-48 48s-48-21.5-48-48v-496.898l-191.124 179.836c-19.314 18.186-49.688 17.25-67.814-2.062-8.75-9.252-13.062-21.064-13.062-32.876 0-12.75 5.062-25.5 15.124-34.938l272-256c18.438-17.438 47.314-17.438 65.752 0z" />
<glyph unicode="&#xe93a;" glyph-name="arrow-down-to-dotted-line" horiz-adv-x="896" d="M448 128c-35.348 0-64-28.656-64-64s28.652-64 64-64 64 28.656 64 64-28.652 64-64 64zM64 128c-35.348 0-64-28.656-64-64s28.652-64 64-64 64 28.656 64 64-28.652 64-64 64zM256 128c-35.348 0-64-28.656-64-64s28.652-64 64-64 64 28.656 64 64-28.652 64-64 64zM640 128c-35.348 0-64-28.656-64-64s28.652-64 64-64 64 28.656 64 64-28.652 64-64 64zM832 128c-35.348 0-64-28.656-64-64s28.652-64 64-64 64 28.656 64 64-28.652 64-64 64zM413.062 238.548c18.126-19.398 51.75-19.398 69.876 0l256 272.414c18.188 19.344 17.25 49.766-2.062 67.914-19.25 18.22-49.626 17.344-67.814-2.062l-173.062-184.108v423.218c0 26.546-21.5 48.078-48 48.078s-48-21.532-48-48.078v-423.218l-173.062 184.108c-9.438 10.078-22.188 15.148-34.938 15.148-11.812 0-23.624-4.32-32.876-13.086-19.312-18.148-20.248-48.57-2.062-67.914l256-272.414z" />
<glyph unicode="&#xe93b;" glyph-name="arrow-down-to-line" horiz-adv-x="768" d="M720 96.064h-672c-26.5 0-48-21.514-48-48.032s21.5-48.032 48-48.032h672c26.5 0 48 21.514 48 48.032s-21.5 48.032-48 48.032zM605.062 544.642l-173.062-183.95v487.276c0 26.518-21.5 48.032-48 48.032s-48-21.514-48-48.032v-487.276l-173.062 183.95c-9.438 10.070-22.188 15.136-34.938 15.136-11.812 0-23.624-4.316-32.876-13.072-19.312-18.138-20.248-48.532-2.062-67.858l256-272.18c18.126-19.388 51.75-19.388 69.876 0l256 272.18c18.186 19.326 17.25 49.72-2.064 67.858-19.25 18.2-49.624 17.324-67.812-2.064z" />
<glyph unicode="&#xe93c;" glyph-name="arrow-down-to-square" horiz-adv-x="896" d="M768 704h-80c-26.508 0-48-21.484-48-48 0-26.508 21.492-48 48-48h80c17.672 0 32-14.328 32-32v-512c0-17.672-14.328-32-32-32h-640c-17.672 0-32 14.328-32 32v512c0 17.672 14.328 32 32 32h80c26.508 0 48 21.492 48 48 0 26.516-21.492 48-48 48h-80c-70.692 0-128-57.304-128-128v-512c0-70.688 57.308-128 128-128h640c70.692 0 128 57.312 128 128v512c0 70.696-57.308 128-128 128zM223.438 482.734c-19.5-17.952-20.688-48.344-2.688-67.858l192-208.142c18.126-19.64 52.376-19.64 70.5 0l192 208.142c18 19.514 16.812 49.906-2.688 67.858-19.562 18.142-49.936 16.828-67.812-2.688l-108.75-117.89v549.812c0 26.516-21.5 48.032-48 48.032s-48-21.516-48-48.032v-549.812l-108.75 117.89c-9.438 10.258-22.312 15.454-35.25 15.454-11.624 0-23.312-4.196-32.562-12.766z" />
<glyph unicode="&#xe93d;" glyph-name="arrow-down-triangle-square" d="M896.010 384h-256.004c-35.348 0-64-28.656-64-64v-256c0-35.344 28.652-64 64-64h256.004c35.348 0 64 28.656 64 64v256c0 35.344-28.652 64-64 64zM864.010 96h-192.004v192h192.004v-192zM984.264 594.25l-166.254 274.25c-10.75 17.25-29.75 27.5-50 27.5-20.254 0-39.004-10.25-49.754-27.5l-166.504-274.25c-22-36.5 5.5-82.25 50.004-82.25h332.504c44.504 0 72.004 45.75 50.004 82.25zM672.506 608l95.504 157.75 95.5-157.75h-191.004zM483.24 222.894c18 19.516 16.814 49.914-2.686 67.868-9.246 8.562-20.934 12.758-32.56 12.758-12.936 0-25.812-5.196-35.25-15.446l-108.746-117.906v677.79c0 26.522-21.5 48.038-48 48.038s-48-21.516-48-48.038v-677.79l-108.746 117.906c-17.874 19.516-48.25 20.828-67.808 2.688-19.5-17.954-20.688-48.352-2.688-67.868l191.992-208.164c18.126-19.64 52.376-19.64 70.5 0l191.992 208.164z" />
<glyph unicode="&#xe93e;" glyph-name="arrow-down-wide-short" horiz-adv-x="1152" d="M719.998 96h-96c-26.5 0-48-21.5-48-48s21.5-48 48-48h96c26.496 0 47.996 21.5 47.996 48s-21.5 48-47.996 48zM847.994 352h-223.996c-26.5 0-48-21.5-48-48s21.5-48 48-48h223.996c26.5 0 48 21.5 48 48s-21.5 48-48 48zM975.994 608h-351.996c-26.5 0-48-21.5-48-48s21.5-48 48-48h351.996c26.5 0 48 21.5 48 48s-21.5 48-48 48zM1103.99 864h-479.992c-26.5 0-48-21.5-48-48s21.5-48 48-48h479.992c26.5 0 48 21.5 48 48s-21.5 48-48 48zM412.744 288.078l-108.746-117.906v677.782c0 26.53-21.5 48.046-48 48.046s-48-21.516-48-48.046v-677.782l-108.746 117.906c-9.438 10.25-22.312 15.438-35.25 15.438-11.624 0-23.312-4.188-32.558-12.75-19.5-17.954-20.688-48.36-2.688-67.876l191.992-208.156c18.126-19.64 52.376-19.64 70.5 0l191.992 208.156c18 19.516 16.814 49.922-2.686 67.876-19.56 18.14-49.934 16.828-67.81-2.688z" />
<glyph unicode="&#xe93f;" glyph-name="arrow-down-z-a" d="M655.986 800h125.872l-163.746-210.484c-11.246-14.5-13.308-34.126-5.25-50.562 8.062-16.5 24.812-26.938 43.124-26.938h223.992c26.498 0 47.998 21.5 47.998 48s-21.5 48-47.998 48h-125.87l163.742 210.484c11.25 14.5 13.312 34.124 5.25 50.562-8.062 16.5-24.812 26.938-43.122 26.938h-223.992c-26.5 0-47.996-21.5-47.996-48s21.496-48 47.996-48zM954.912 69.468l-143.996 288c-16.246 32.61-69.62 32.61-85.87 0l-143.992-288c-11.876-23.686-2.25-52.5 21.5-64.374 23.808-11.876 52.496-2.312 64.37 21.5l10.718 21.438h180.68l10.72-21.438c8.436-16.876 25.37-26.562 42.996-26.562 7.188 0 14.5 1.624 21.374 5.062 23.75 11.874 33.376 40.688 21.5 64.374zM725.642 144.032l42.34 84.686 42.344-84.686h-84.684zM412.744 288.078l-108.746-117.906v677.782c0 26.53-21.5 48.046-48 48.046s-48-21.516-48-48.046v-677.782l-108.746 117.906c-9.438 10.25-22.312 15.438-35.25 15.438-11.624 0-23.312-4.188-32.558-12.75-19.5-17.954-20.688-48.36-2.688-67.876l191.992-208.156c18.126-19.64 52.376-19.64 70.5 0l191.992 208.156c18 19.516 16.814 49.922-2.686 67.876-19.56 18.14-49.934 16.828-67.81-2.688z" />
<glyph unicode="&#xe940;" glyph-name="arrow-left" horiz-adv-x="896" d="M895.968 447.984c0-26.5-21.5-48-48-48h-680.178l265.334-253.25c19.25-18.312 19.938-48.812 1.626-67.874-18.312-19.188-48.688-19.876-67.876-1.626l-352 336c-9.498 9.062-14.874 21.626-14.874 34.75s5.376 25.688 14.876 34.75l352 336c19.186 18.25 49.562 17.562 67.874-1.624 18.312-19 17.626-49.5-1.624-67.876l-265.336-253.25h680.178c26.5 0 48-21.5 48-48z" />
<glyph unicode="&#xe941;" glyph-name="arrow-left-from-line" horiz-adv-x="896" d="M799.936 784v-672c0-26.5 21.514-48 48.032-48s48.032 21.5 48.032 48v672c0 26.5-21.514 48-48.032 48s-48.032-21.5-48.032-48zM352.514 226.938l-183.95 173.062h487.276c26.518 0 48.032 21.5 48.032 48s-21.514 48-48.032 48h-487.276l183.95 173.062c10.070 9.438 15.136 22.188 15.136 34.938 0 11.812-4.316 23.624-13.072 32.876-18.136 19.312-48.532 20.248-67.856 2.062l-272.182-256c-19.386-18.126-19.386-51.75 0-69.876l272.182-256c19.324-18.188 49.72-17.25 67.856 2.062 18.2 19.252 17.324 49.626-2.064 67.814z" />
<glyph unicode="&#xe942;" glyph-name="arrow-left-long" d="M353.938 753.938c9.374-9.376 14.062-21.626 14.062-33.938s-4.688-24.562-14.062-33.938l-190.062-190.062h812.124c26.5 0 48-21.5 48-48s-21.5-48-48-48h-812.124l190.062-190.062c18.75-18.75 18.75-49.126 0-67.876s-49.126-18.75-67.876 0l-272 272c-18.75 18.75-18.75 49.126 0 67.876l272 272c18.75 18.75 49.126 18.75 67.876 0z" />
<glyph unicode="&#xe943;" glyph-name="arrow-left-rotate" d="M80 928c26.5 0 48-21.5 48-48v-204.188c79.476 133.056 224.304 220.188 384 220.188 247 0 448-201 448-448s-201-448-448-448c-104.624 0-206.438 36.876-286.75 103.75-20.376 17-23.126 47.25-6.126 67.626 17 20.436 47.314 23.124 67.626 6.124 63.062-52.562 143.062-81.5 225.25-81.5 194.062 0 352 157.938 352 352s-157.938 352-352 352c-133.090 0-253.55-76.562-312.926-192h200.926c26.5 0 48-21.5 48-48s-21.5-48-48-48h-320c-26.5 0-48 21.5-48 48v320c0 26.5 21.5 48 48 48z" />
<glyph unicode="&#xe944;" glyph-name="arrow-left-to-line" horiz-adv-x="896" d="M96.064 112v672c0 26.5-21.514 48-48.032 48s-48.032-21.5-48.032-48v-672c0-26.5 21.514-48 48.032-48s48.032 21.5 48.032 48zM544.642 226.938l-183.95 173.062h487.276c26.518 0 48.032 21.5 48.032 48s-21.514 48-48.032 48h-487.276l183.95 173.062c10.070 9.438 15.136 22.188 15.136 34.938 0 11.812-4.316 23.624-13.072 32.874-18.136 19.314-48.532 20.25-67.858 2.064l-272.18-256c-19.388-18.126-19.388-51.75 0-69.876l272.18-256c19.326-18.186 49.722-17.25 67.858 2.064 18.2 19.25 17.324 49.624-2.064 67.812z" />
<glyph unicode="&#xe945;" glyph-name="arrow-pointer" horiz-adv-x="640" d="M623.742 401.082l-543.994 482.89c-8.932 7.914-20.242 12.028-31.726 12.028-6.674 0-13.41-1.392-19.772-4.232-17.188-7.798-28.25-25.026-28.25-44.014v-740.43c0-20.246 12.562-38.354 31.438-45.334 5.406-1.98 10.998-2.954 16.562-2.954 13.812 0 27.28 6.004 36.562 17.008l166.958 197.62 116.5-246.126c11.394-24.072 40.028-34.298 63.96-22.842v0c23.944 11.46 34.114 40.28 22.716 64.364l-117.158 247.516h254.454c19.968 0 37.844 12.418 44.906 31.218 7.062 18.768 1.812 39.99-13.156 53.288zM243.384 413.154l-147.386-174.45v502.042l369.050-327.592h-221.664z" />
<glyph unicode="&#xe946;" glyph-name="arrow-right" horiz-adv-x="896" d="M529.094 818.734l352-336c9.5-9.062 14.874-21.624 14.874-34.75s-5.374-25.688-14.874-34.75l-352-336c-19.188-18.25-49.562-17.562-67.876 1.626-18.312 19-17.624 49.5 1.626 67.874l265.336 253.25h-680.18c-26.5 0-48 21.5-48 48s21.5 48 48 48h680.18l-265.336 253.25c-19.25 18.312-19.938 48.812-1.626 67.876 18.314 19.186 48.688 19.874 67.876 1.624z" />
<glyph unicode="&#xe947;" glyph-name="arrow-right-arrow-left" d="M976 272h-817.528l148.59 159.25c18.126 19.374 17.062 49.75-2.312 67.812-19.312 18.188-49.75 17.126-67.812-2.312l-224-240c-17.25-18.438-17.25-47.062 0-65.5l224-240c9.438-10.126 22.25-15.25 35.062-15.25 11.75 0 23.5 4.25 32.75 12.938 19.376 18.062 20.438 48.436 2.312 67.812l-148.59 159.25h817.528c26.5 0 48 21.5 48 48s-21.5 48-48 48zM48 624h817.528l-148.59-159.25c-18.126-19.374-17.064-49.75 2.312-67.812 19.312-18.188 49.75-17.126 67.812 2.312l224 240c17.25 18.438 17.25 47.062 0 65.5l-224 240c-9.438 10.126-22.25 15.25-35.062 15.25-11.75 0-23.5-4.25-32.75-12.938-19.376-18.062-20.438-48.436-2.312-67.812l148.59-159.25h-817.528c-26.5 0-48-21.5-48-48s21.5-48 48-48z" />
<glyph unicode="&#xe948;" glyph-name="arrow-right-from-bracket" d="M384 48c0-26.508-21.492-48-48-48h-144c-106.040 0-192 85.96-192 192v512c0 106.040 85.96 192 192 192h144c26.508 0 48-21.484 48-48 0-26.508-21.492-48-48-48h-144c-52.8 0-96-43.204-96-96v-512c0-52.796 43.2-96 96-96h144c26.508 0 48-21.484 48-48zM1010.922 480.876l-255.994 272c-18.188 19.374-48.562 20.248-67.812 2.062-19.312-18.126-20.248-48.5-2.062-67.812l179.832-191.126h-496.888c-26.498 0-47.998-21.5-47.998-48s21.5-48 47.998-48h496.888l-179.832-191.124c-18.186-19.314-17.25-49.688 2.062-67.814 9.25-8.75 21.062-13.062 32.876-13.062 12.748 0 25.498 5.062 34.936 15.124l255.994 272c17.438 18.438 17.438 47.314 0 65.752z" />
<glyph unicode="&#xe949;" glyph-name="arrow-right-from-line" horiz-adv-x="896" d="M96.064 112v672c0 26.5-21.514 48-48.032 48s-48.032-21.5-48.032-48v-672c0-26.5 21.514-48 48.032-48s48.032 21.5 48.032 48zM543.486 669.062l183.95-173.062h-487.276c-26.518 0-48.032-21.5-48.032-48s21.514-48 48.032-48h487.276l-183.95-173.062c-10.070-9.438-15.136-22.188-15.136-34.938 0-11.812 4.316-23.624 13.072-32.876 18.136-19.312 48.532-20.248 67.856-2.062l272.182 256c19.386 18.126 19.386 51.75 0 69.876l-272.182 256c-19.324 18.186-49.72 17.25-67.856-2.064-18.2-19.25-17.324-49.624 2.064-67.812z" />
<glyph unicode="&#xe94a;" glyph-name="arrow-right-long" d="M670.062 143.626c-9.374 9.374-14.062 21.624-14.062 33.936s4.688 24.564 14.062 33.938l190.062 190.062h-812.124c-26.5 0-48 21.5-48 48s21.5 48 48 48h812.124l-190.062 190.064c-18.75 18.75-18.75 49.124 0 67.874s49.126 18.75 67.876 0l272-272c18.75-18.75 18.75-49.124 0-67.874l-272-272c-18.75-18.75-49.126-18.75-67.876 0z" />
<glyph unicode="&#xe94b;" glyph-name="arrow-right-to-bracket" d="M1024 704v-512c0-106.040-85.96-192-192-192h-144c-26.508 0-48 21.492-48 48 0 26.516 21.492 48 48 48h144c52.8 0 96 43.204 96 96v512c0 52.796-43.2 96-96 96h-144c-26.508 0-48 21.492-48 48 0 26.516 21.492 48 48 48h144c106.040 0 192-85.96 192-192zM690.938 480.876l-256 272c-18.188 19.374-48.562 20.248-67.814 2.062-19.312-18.126-20.248-48.5-2.062-67.814l179.836-191.124h-496.898c-26.5 0-48-21.5-48-48s21.5-48 48-48h496.898l-179.836-191.124c-18.186-19.314-17.25-49.688 2.064-67.814 9.25-8.75 21.062-13.062 32.874-13.062 12.75 0 25.5 5.062 34.938 15.124l256 272c17.438 18.438 17.438 47.314 0 65.752z" />
<glyph unicode="&#xe94c;" glyph-name="arrow-right-to-line" horiz-adv-x="896" d="M799.936 784v-672c0-26.5 21.514-48 48.032-48s48.032 21.5 48.032 48v672c0 26.5-21.514 48-48.032 48s-48.032-21.5-48.032-48zM351.358 669.062l183.95-173.062h-487.276c-26.518 0-48.032-21.5-48.032-48s21.514-48 48.032-48h487.276l-183.95-173.062c-10.070-9.438-15.136-22.188-15.136-34.938 0-11.812 4.316-23.624 13.072-32.876 18.136-19.312 48.532-20.248 67.858-2.062l272.18 256c19.388 18.126 19.388 51.75 0 69.876l-272.18 256c-19.326 18.186-49.722 17.25-67.858-2.064-18.2-19.25-17.324-49.624 2.064-67.812z" />
<glyph unicode="&#xe94d;" glyph-name="arrow-rotate-forward" d="M992 880v-320c0-26.5-21.5-48-48-48h-320c-26.5 0-48 21.5-48 48s21.5 48 48 48h200.926c-59.376 115.438-179.836 192-312.926 192-194.062 0-352-157.938-352-352s157.938-352 352-352c82.188 0 162.188 28.938 225.25 81.5 20.312 17 50.624 14.312 67.624-6.124 17-20.376 14.25-50.626-6.124-67.626-80.312-66.874-182.126-103.75-286.75-103.75-247 0-448 201-448 448s201 448 448 448c159.696 0 304.524-87.132 384-220.188v204.188c0 26.5 21.5 48 48 48s48-21.5 48-48z" />
<glyph unicode="&#xe94e;" glyph-name="arrows-cross" horiz-adv-x="896" d="M848 896h-288c-26.5 0-48-21.5-48-48s21.5-48 48-48h172.126l-718.064-718.062c-18.75-18.75-18.75-49.126 0-67.876s49.126-18.75 67.876 0l718.062 718.062v-172.124c0-26.5 21.5-48 48-48s48 21.5 48 48v288c0 26.328-21.624 48-48 48zM334.876 493.25l67.874 67.874-320.812 320.814c-18.75 18.75-49.126 18.75-67.876 0s-18.75-49.126 0-67.876l320.814-320.812zM848 384c-26.5 0-48-21.5-48-48v-172.124l-238.874 238.874-67.876-67.874 238.876-238.876h-172.126c-26.5 0-48-21.5-48-48s21.5-48 48-48h288c26.328 0 48 21.624 48 48v288c0 26.5-21.5 48-48 48z" />
<glyph unicode="&#xe94f;" glyph-name="arrows-from-dotted-line" horiz-adv-x="896" d="M448 512.032c-35.348 0-64-28.656-64-64s28.652-64 64-64 64 28.656 64 64-28.652 64-64 64zM64 512.032c-35.348 0-64-28.656-64-64s28.652-64 64-64 64 28.656 64 64-28.652 64-64 64zM304 720.046c12.282 0 24.562 4.688 33.938 14.064l62.062 62.062v-172.132c0-26.5 21.5-48 48-48s48 21.5 48 48v172.132l62.062-62.062c9.376-9.376 21.626-14.064 33.938-14.064 37.59 0 48 34.4 48 48 0 12.282-4.688 24.564-14.062 33.938l-144 144.016c-12.048 12.046-26.548 14-33.938 14-7.364 0-21.876-1.938-33.938-14l-144-144.016c-9.374-9.374-14.062-21.656-14.062-33.938 0-27.39 22.402-48 48-48zM832 512.032c-35.348 0-64-28.656-64-64s28.652-64 64-64 64 28.656 64 64-28.652 64-64 64zM640 512.032c-35.348 0-64-28.656-64-64s28.652-64 64-64 64 28.656 64 64-28.652 64-64 64zM320 448.032c0 35.344-28.652 64-64 64s-64-28.656-64-64 28.652-64 64-64 64 28.656 64 64zM592 176.016c-12.282 0-24.562-4.688-33.938-14.062l-62.062-62.064v172.126c0 26.508-21.5 48.008-48 48.008s-48-21.5-48-48.008v-172.126l-62.062 62.064c-9.376 9.374-21.656 14.062-33.938 14.062-25.636 0-48-20.656-48-48 0-12.282 4.688-24.562 14.062-33.938l144-144.016c5.138-5.14 16.966-14.062 33.938-14.062s28.8 8.922 33.938 14.062l144 144.016c9.374 9.376 14.062 21.656 14.062 33.938 0 27.39-22.402 48-48 48z" />
<glyph unicode="&#xe950;" glyph-name="arrows-from-line" horiz-adv-x="896" d="M592 176.016c-12.282 0-24.562-4.688-33.938-14.062l-62.062-62.064v172.126c0 26.508-21.5 48.008-48 48.008s-48-21.5-48-48.008v-172.126l-62.062 62.064c-9.376 9.374-21.656 14.062-33.938 14.062-25.636 0-48-20.656-48-48 0-12.282 4.688-24.562 14.062-33.938l144-144.016c5.138-5.14 16.966-14.062 33.938-14.062s28.8 8.922 33.938 14.062l144 144.016c9.374 9.376 14.062 21.656 14.062 33.938 0 27.39-22.402 48-48 48zM304 720.046c12.282 0 24.562 4.688 33.938 14.064l62.062 62.062v-172.132c0-26.5 21.5-48 48-48s48 21.5 48 48v172.132l62.062-62.062c9.376-9.376 21.626-14.064 33.938-14.064 37.59 0 48 34.4 48 48 0 12.282-4.688 24.564-14.062 33.938l-144 144.016c-12.048 12.046-26.548 14-33.938 14-7.364 0-21.876-1.938-33.938-14l-144-144.016c-9.374-9.374-14.062-21.656-14.062-33.938 0-27.39 22.402-48 48-48zM848 496h-800c-26.5 0-48-21.5-48-48s21.5-48 48-48h800c26.5 0 48 21.5 48 48s-21.5 48-48 48z" />
<glyph unicode="&#xe951;" glyph-name="arrows-left-right" d="M1024 448c0-13.376-5.624-26.188-15.438-35.25l-208-192c-9.25-8.562-20.938-12.75-32.562-12.75-12.938 0-25.812 5.188-35.25 15.438-18 19.5-16.812 49.874 2.688 67.812l117.812 108.75h-682.5l117.812-108.75c19.5-17.938 20.688-48.312 2.688-67.812-9.438-10.25-22.312-15.438-35.25-15.438-11.624 0-23.312 4.188-32.562 12.75l-208 192c-9.814 9.062-15.438 21.874-15.438 35.25s5.624 26.188 15.438 35.25l208 192c19.562 18.062 49.938 16.75 67.812-2.688 18-19.5 16.812-49.874-2.688-67.812l-117.812-108.75h682.5l-117.812 108.75c-19.5 17.938-20.688 48.312-2.688 67.812 17.938 19.438 48.25 20.75 67.812 2.688l208-192c9.814-9.062 15.438-21.874 15.438-35.25z" />
<glyph unicode="&#xe952;" glyph-name="arrows-maximize" horiz-adv-x="896" d="M800 560v172.124l-284.124-284.124 284.124-284.124v172.124c0 26.5 21.5 48 48 48s48-21.5 48-48v-288c0-6.25-1.278-12.476-3.708-18.344-4.862-11.726-14.206-21.078-25.928-25.946-5.868-2.428-12.094-3.71-18.364-3.71h-288c-26.5 0-48 21.5-48 48s21.5 48 48 48h172.124l-284.124 284.124-284.124-284.124h172.124c26.5 0 48-21.5 48-48s-21.5-48-48-48h-288c-6.25 0-12.476 1.282-18.344 3.704-11.726 4.866-21.078 14.21-25.946 25.936-2.428 5.86-3.71 12.094-3.71 18.36v288c0 26.5 21.5 48 48 48s48-21.5 48-48v-172.124l284.124 284.124-284.124 284.124v-172.124c0-26.5-21.5-48-48-48s-48 21.5-48 48v288c0 6.25 1.278 12.476 3.708 18.344 4.862 11.726 14.206 21.078 25.928 25.946 5.868 2.428 12.094 3.71 18.364 3.71h288c26.5 0 48-21.5 48-48s-21.5-48-48-48h-172.124l284.124-284.124 284.124 284.124h-172.124c-26.5 0-48 21.5-48 48s21.5 48 48 48h288c6.25 0 12.476-1.282 18.344-3.704 11.726-4.866 21.078-14.21 25.946-25.936 2.428-5.86 3.71-12.094 3.71-18.36v-288c0-26.5-21.5-48-48-48s-48 21.5-48 48z" />
<glyph unicode="&#xe953;" glyph-name="arrows-minimize" d="M400 896.062c-26.5 0-48-21.5-48-48v-172.124l-238.062 238.062c-18.75 18.75-49.126 18.75-67.876 0s-18.75-49.126 0-67.876l238.064-238.062h-172.126c-26.5 0-48-21.5-48-48s21.5-48 48-48h288c6.27 0 12.496 1.282 18.364 3.712 11.722 4.866 21.066 14.218 25.928 25.944 2.43 5.868 3.708 12.094 3.708 18.344v288c0 26.5-21.5 48-48 48zM605.656 515.766c5.868-2.422 12.094-3.704 18.344-3.704h288c26.5 0 48 21.5 48 48s-21.5 48-48 48h-172.124l238.062 238.062c18.75 18.75 18.75 49.126 0 67.876s-49.126 18.75-67.876 0l-238.062-238.062v172.124c0 26.5-21.5 48-48 48s-48-21.5-48-48v-288c0-6.266 1.282-12.5 3.71-18.358 4.868-11.728 14.22-21.072 25.946-25.938zM739.876 288.062h172.124c26.5 0 48 21.5 48 48s-21.5 48-48 48h-288c-6.27 0-12.496-1.28-18.364-3.71-11.722-4.868-21.066-14.22-25.928-25.946-2.43-5.866-3.708-12.094-3.708-18.344v-288c0-26.5 21.5-48 48-48s48 21.5 48 48v172.126l238.062-238.064c18.75-18.75 49.126-18.75 67.876 0s18.75 49.126 0 67.876l-238.062 238.062zM418.344 380.36c-5.868 2.422-12.094 3.702-18.344 3.702h-288c-26.5 0-48-21.5-48-48s21.5-48 48-48h172.126l-238.064-238.062c-18.75-18.75-18.75-49.126 0-67.876s49.126-18.75 67.876 0l238.062 238.064v-172.126c0-26.5 21.5-48 48-48s48 21.5 48 48v288c0 6.266-1.282 12.5-3.71 18.36-4.868 11.726-14.22 21.070-25.946 25.938z" />
<glyph unicode="&#xe954;" glyph-name="arrows-repeat" d="M976 510.062c-26.5 0-48-21.5-48-48 0-114.686-93.312-208-208-208h-428.124l126.062 126.064c18.75 18.75 18.75 49.124 0 67.874s-49.126 18.75-67.876 0l-208-208c-18.75-18.75-18.75-49.124 0-67.874l208-208c9.376-9.376 21.626-14.064 33.938-14.064s24.562 4.688 33.938 14.064c18.75 18.75 18.75 49.124 0 67.874l-126.062 126.062h428.124c167.624 0 304 136.376 304 304 0 26.5-21.5 48-48 48zM304 670.062h428.124l-126.062-126.062c-18.75-18.75-18.75-49.124 0-67.876 9.376-9.374 21.626-14.062 33.938-14.062s24.562 4.688 33.938 14.064l208 208c18.75 18.75 18.75 49.124 0 67.874l-208 208c-18.75 18.75-49.126 18.75-67.876 0s-18.75-49.124 0-67.874l126.062-126.064h-428.124c-167.624 0-304-136.374-304-304 0-26.5 21.5-48 48-48s48 21.5 48 48c0 114.688 93.312 208 208 208z" />
<glyph unicode="&#xe955;" glyph-name="arrows-repeat-1" d="M976 496c-26.5 0-48-21.5-48-48 0-114.688-93.312-208-208-208h-544c-26.67 0-47.938-21.766-47.938-48 0-7.298 1.914-21.85 14-33.938l208-208c9.376-9.374 21.626-14.062 33.938-14.062 37.59 0 48 34.396 48 48 0 12.282-4.688 24.562-14.062 33.938l-126.062 126.062h428.124c167.624 0 304 136.376 304 304 0 26.5-21.5 48-48 48zM304 656h544c26.67 0 47.938 21.766 47.938 48 0 7.298-1.914 21.85-14 33.938l-208 208c-9.376 9.374-21.656 14.062-33.938 14.062-27.418 0-48-22.42-48-48 0-12.282 4.688-24.562 14.062-33.938l126.062-126.062h-428.124c-167.624 0-304-136.376-304-304 0-26.5 21.5-48 48-48s48 21.5 48 48c0 114.688 93.312 208 208 208zM528 304c26.5 0 48 21.5 48 48v176c0 18.264-14.42 48.062-48 48.062-7.34 0-14.682-1.704-21.438-5.124l-64-32c-16.846-8.424-26.586-25.37-26.586-42.964 0-25.046 20.19-48.030 47.93-48.030 5.362 0 10.798 0.91 16.094 2.806v-98.75c0-26.5 21.5-48 48-48z" />
<glyph unicode="&#xe956;" glyph-name="arrows-retweet" horiz-adv-x="1280" d="M641.938 224h-352v444.124l126.062-126.062c9.376-9.374 21.626-14.062 33.938-14.062s24.562 4.688 33.938 14.062c18.75 18.75 18.75 49.126 0 67.876l-208 208c-18.752 18.75-49.126 18.75-67.876 0l-208-208c-18.75-18.75-18.75-49.126 0-67.876s49.124-18.75 67.876 0l126.062 126.062v-492.124c0-26.5 21.5-48 48-48h400c26.5 0 48 21.5 48 48s-21.5 48-48 48zM1251.876 353.938c-18.752 18.75-49.126 18.75-67.876 0l-126.062-126.062v492.124c0 26.5-21.5 48-48 48h-400c-26.5 0-48-21.5-48-48s21.5-48 48-48h352v-444.124l-126.062 126.062c-9.376 9.374-21.626 14.062-33.938 14.062s-24.562-4.688-33.938-14.062c-18.75-18.75-18.75-49.126 0-67.876l208-208c18.75-18.75 49.126-18.75 67.876 0l208 208c18.75 18.75 18.75 49.126 0 67.876z" />
<glyph unicode="&#xe957;" glyph-name="arrows-rotate" d="M909.562 382.062c-25.562 7.5-52.124-7.186-59.5-32.624-43.438-149.25-182.5-253.438-338.062-253.438-133.050 0-253.476 76.562-312.872 192h200.872c26.5 0 48 21.5 48 48s-21.5 48-48 48h-320c-26.5 0-48-21.5-48-48v-320c0-26.5 21.5-48 48-48s48 21.5 48 48v204.234c79.472-133.086 224.266-220.234 384-220.234 198 0 374.938 132.624 430.188 322.562 7.436 25.5-7.188 52.126-32.626 59.5zM944.124 928c-26.5 0-48-21.5-48-48v-204.14c-79.496 133.030-224.3 220.14-384 220.14-198 0-374.936-132.624-430.186-322.562-7.438-25.5 7.186-52.126 32.624-59.5 25.688-7.564 52.188 7.25 59.5 32.624 43.438 149.25 182.5 253.438 338.062 253.438 133.052 0 253.528-76.562 312.93-192h-200.93c-26.5 0-48-21.5-48-48s21.5-48 48-48h320c26.5 0 48 21.5 48 48v320c0 26.5-21.5 48-48 48z" />
<glyph unicode="&#xe958;" glyph-name="arrows-to-dotted-line" horiz-adv-x="896" d="M64 512c-35.348 0-64-28.656-64-64s28.652-64 64-64 64 28.656 64 64-28.652 64-64 64zM384 448c0-35.344 28.652-64 64-64s64 28.656 64 64-28.652 64-64 64-64-28.656-64-64zM414.062 590.062c5.138-5.14 16.966-14.062 33.938-14.062s28.8 8.922 33.938 14.062l144 144c9.374 9.376 14.062 21.656 14.062 33.938 0 27.422-22.418 48-48 48-12.282 0-24.562-4.688-33.938-14.062l-62.062-62.062v172.124c0 26.5-21.5 48-48 48s-48-21.5-48-48v-172.124l-62.062 62.062c-9.376 9.374-21.656 14.062-33.938 14.062-27.418 0-48-22.422-48-48 0-12.282 4.688-24.562 14.062-33.938l144-144zM640 512c-35.348 0-64-28.656-64-64s28.652-64 64-64 64 28.656 64 64-28.652 64-64 64zM832 512c-35.348 0-64-28.656-64-64s28.652-64 64-64 64 28.656 64 64-28.652 64-64 64zM481.938 305.938c-12.048 12.046-26.548 14-33.938 14-7.364 0-21.876-1.938-33.938-14l-144-144c-9.374-9.376-14.062-21.656-14.062-33.938 0-27.422 22.418-48 48-48 12.282 0 24.562 4.688 33.938 14.062l62.062 62.062v-172.124c0-26.5 21.5-48 48-48s48 21.5 48 48v172.124l62.062-62.062c9.376-9.374 21.626-14.062 33.938-14.062 37.59 0 48 34.398 48 48 0 12.282-4.688 24.562-14.062 33.938l-144 144zM320 448c0 35.344-28.652 64-64 64s-64-28.656-64-64 28.652-64 64-64 64 28.656 64 64z" />
<glyph unicode="&#xe959;" glyph-name="arrows-to-line" horiz-adv-x="896" d="M414.062 590.062c5.138-5.14 16.966-14.062 33.938-14.062s28.8 8.922 33.938 14.062l144 144c9.374 9.376 14.062 21.656 14.062 33.938 0 27.422-22.418 48-48 48-12.282 0-24.562-4.688-33.938-14.062l-62.062-62.062v172.124c0 26.5-21.5 48-48 48s-48-21.5-48-48v-172.124l-62.062 62.062c-9.376 9.374-21.656 14.062-33.938 14.062-27.418 0-48-22.422-48-48 0-12.282 4.688-24.562 14.062-33.938l144-144zM481.938 305.938c-12.048 12.046-26.548 14-33.938 14-7.364 0-21.876-1.938-33.938-14l-144-144c-9.374-9.376-14.062-21.656-14.062-33.938 0-27.422 22.418-48 48-48 12.282 0 24.562 4.688 33.938 14.062l62.062 62.062v-172.124c0-26.5 21.5-48 48-48s48 21.5 48 48v172.124l62.062-62.062c9.376-9.374 21.626-14.062 33.938-14.062 37.59 0 48 34.398 48 48 0 12.282-4.688 24.562-14.062 33.938l-144 144zM848 496h-800c-26.5 0-48-21.5-48-48s21.5-48 48-48h800c26.5 0 48 21.5 48 48s-21.5 48-48 48z" />
<glyph unicode="&#xe95a;" glyph-name="arrows-up-down" horiz-adv-x="512" d="M256-63.996c-13.374 0-26.188 5.626-35.25 15.438l-192 208c-8.562 9.25-12.75 20.938-12.75 32.562 0 12.938 5.188 25.812 15.438 35.25 19.5 18 49.874 16.812 67.812-2.688l108.75-117.812v682.5l-108.75-117.812c-17.938-19.5-48.312-20.688-67.812-2.688-10.25 9.438-15.438 22.312-15.438 35.25 0 11.626 4.188 23.312 12.75 32.562l192 208c9.062 9.814 21.876 15.438 35.25 15.438s26.188-5.624 35.25-15.438l192-208c18.062-19.562 16.75-49.936-2.688-67.812-19.5-18-49.874-16.812-67.812 2.688l-108.75 117.812v-682.5l108.75 117.812c17.938 19.5 48.312 20.688 67.812 2.688 19.438-17.938 20.75-48.25 2.688-67.812l-192-208c-9.062-9.812-21.874-15.438-35.25-15.438z" />
<glyph unicode="&#xe95b;" glyph-name="arrows-up-down-left-right" d="M1024 448.344c0-13.51-5.688-26.456-15.688-35.524l-176-160.108c-9.25-8.38-20.75-12.508-32.312-12.508-26.544 0-48 21.526-48 48.002 0 13.068 5.294 26.084 15.688 35.554l84.14 76.552h-291.828v-292.024l76.5 84.196c9.43 10.4 22.424 15.7 35.484 15.7 26.456 0 48.016-21.416 48.016-48.064 0-11.53-4.122-23.098-12.5-32.304l-160-176.118c-9.062-10.006-22-15.698-35.5-15.698s-26.438 5.692-35.5 15.698l-160 176.118c-8.378 9.206-12.5 20.774-12.5 32.304 0 26.75 21.664 48.064 47.994 48.064 13.052 0 26.042-5.3 35.506-15.7l76.5-84.196v292.024h-291.828l84.14-76.552c10.394-9.47 15.688-22.486 15.688-35.554 0-26.44-21.418-48.002-48-48.002-11.562 0-23.062 4.128-32.312 12.508l-176 160.108c-10 9.068-15.688 22.014-15.688 35.524s5.688 26.456 15.688 35.524l176 160.108c9.234 8.36 20.808 12.484 32.332 12.484 26.528 0 47.98-21.49 47.98-47.978 0-13.068-5.294-26.084-15.688-35.554l-84.14-76.552h291.828v292.024l-76.5-84.196c-9.464-10.4-22.454-15.7-35.506-15.7-26.33 0-47.994 21.312-47.994 48.064 0 11.53 4.122 23.098 12.5 32.304l160 176.118c9.062 10.006 22.282 15.010 35.5 15.010s26.438-5.004 35.5-15.010l160-176.118c8.378-9.206 12.5-20.774 12.5-32.304 0-26.698-21.618-48.062-48-48.062-13.062 0-26.062 5.316-35.5 15.698l-76.5 84.196v-292.024h291.828l-84.14 76.552c-10.394 9.47-15.688 22.486-15.688 35.554 0 26.508 21.478 47.978 47.954 47.978 11.518 0 23.094-4.124 32.358-12.484l176-160.108c10-9.068 15.688-22.014 15.688-35.524z" />
<glyph unicode="&#xe95c;" glyph-name="arrow-trend-down" horiz-adv-x="1152" d="M1152 528v-352c0-26.5-21.5-48-48-48h-352c-26.5 0-48 21.5-48 48s21.5 48 48 48h236.124l-348.124 348.124-222.062-222.062c-9.376-9.374-21.656-14.062-33.938-14.062s-24.562 4.688-33.938 14.062l-336 336c-9.374 9.376-14.062 21.656-14.062 33.938 0 27.418 22.42 48 48 48 12.282 0 24.562-4.688 33.938-14.062l302.062-302.062 222.062 222.062c9.376 9.374 21.656 14.062 33.938 14.062s24.562-4.688 33.938-14.062l382.062-382.062v236.124c0 26.5 21.5 48 48 48s48-21.5 48-48z" />
<glyph unicode="&#xe95d;" glyph-name="arrow-trend-up" horiz-adv-x="1152" d="M1152 720v-352c0-26.5-21.5-48-48-48s-48 21.5-48 48v236.124l-382.062-382.062c-9.376-9.374-21.656-14.062-33.938-14.062s-24.562 4.688-33.938 14.062l-222.062 222.062-302.062-302.062c-9.376-9.374-21.626-14.062-33.938-14.062-37.59 0-48 34.396-48 48 0 12.282 4.688 24.562 14.062 33.938l336 336c9.376 9.374 21.656 14.062 33.938 14.062s24.562-4.688 33.938-14.062l222.062-222.062 348.124 348.124h-236.124c-26.5 0-48 21.5-48 48s21.5 48 48 48h352c26.5 0 48-21.5 48-48z" />
<glyph unicode="&#xe95e;" glyph-name="arrow-turn-down" horiz-adv-x="768" d="M673.938 206.062l-256-256c-9.376-9.374-21.626-14.062-33.938-14.062s-24.562 4.688-33.938 14.062l-256 256c-18.75 18.75-18.75 49.126 0 67.876s49.126 18.75 67.876 0l174.062-174.062v764.124h-288c-26.5 0-48 21.5-48 48s21.5 48 48 48h336c26.5 0 48-21.5 48-48v-812.124l174.062 174.062c18.75 18.75 49.126 18.75 67.876 0s18.75-49.126 0-67.876z" />
<glyph unicode="&#xe95f;" glyph-name="arrow-turn-up" horiz-adv-x="768" d="M673.938 622.062c-18.75-18.75-49.126-18.75-67.876 0l-174.062 174.062v-812.124c0-26.5-21.5-48-48-48h-336c-26.5 0-48 21.5-48 48s21.5 48 48 48h288v764.124l-174.062-174.062c-18.75-18.75-49.126-18.75-67.876 0s-18.75 49.126 0 67.876l256 256c9.376 9.374 21.626 14.062 33.938 14.062s24.562-4.688 33.938-14.062l256-256c18.75-18.75 18.75-49.126 0-67.876z" />
<glyph unicode="&#xe960;" glyph-name="arrow-up" horiz-adv-x="896" d="M77.24 529.094l336 352c9.062 9.5 21.624 14.874 34.75 14.874s25.688-5.374 34.75-14.874l336-352c18.25-19.188 17.562-49.562-1.626-67.876-19-18.312-49.5-17.624-67.874 1.626l-253.25 265.336v-680.18c0-26.5-21.5-48-48-48s-48 21.5-48 48v680.18l-253.25-265.336c-18.312-19.25-48.812-19.938-67.876-1.626-19.186 18.314-19.874 48.688-1.624 67.876z" />
<glyph unicode="&#xe961;" glyph-name="arrow-up-1-9" d="M704.002 608.016c-26.5 0-48-21.5-48-48s21.5-48 48-48h159.996c26.5 0 48 21.5 48 48s-21.5 48-48 48h-32v240c0 17.312-9.312 33.25-24.37 41.75-15.064 8.624-33.564 8.188-48.314-0.562l-80-48c-22.75-13.688-30.124-43.126-16.5-65.876 13.626-22.688 43-30.124 65.876-16.5l7.312 4.438v-155.25h-32zM783.998 448c-97.202 0-176.004-78.796-176.004-176 0-84.11 59.098-154.204 137.97-171.624l-31.090-38c-16.814-20.5-13.814-50.752 6.75-67.5 8.874-7.314 19.624-10.876 30.374-10.876 13.876 0 27.688 6 37.126 17.624 141.078 172.43 170.874 193.306 170.874 270.376 0 97.204-78.796 176-176 176zM842.498 218.36l-2.886-3.524c-14.418-14.024-33.962-22.836-55.614-22.836-44.112 0-80.004 35.89-80.004 80s35.892 80 80.004 80 80-35.89 80-80c0-20.796-8.444-39.398-21.5-53.64zM291.248 881.266c-18.124 19.64-52.374 19.64-70.5 0l-191.992-208.164c-18-19.516-16.812-49.914 2.688-67.868 9.246-8.562 20.934-12.758 32.558-12.758 12.938 0 25.812 5.196 35.25 15.446l108.746 117.906v-677.788c0-26.524 21.5-48.040 48-48.040s48 21.516 48 48.040v677.788l108.746-117.906c17.876-19.516 48.25-20.828 67.81-2.688 19.5 17.954 20.686 48.352 2.686 67.868l-191.992 208.164z" />
<glyph unicode="&#xe962;" glyph-name="arrow-up-9-1" d="M745.964 548.376l-31.090-38c-16.814-20.5-13.814-50.752 6.75-67.5 8.874-7.314 19.624-10.876 30.374-10.876 13.876 0 27.688 6 37.126 17.624 141.078 172.43 170.874 193.306 170.874 270.376 0 97.204-78.796 176-176 176s-176.004-78.796-176.004-176c0-84.11 59.098-154.204 137.97-171.624zM783.998 800c44.114 0 80-35.89 80-80 0-20.796-8.444-39.398-21.5-53.64l-2.886-3.524c-14.418-14.024-33.962-22.836-55.614-22.836-44.112 0-80.004 35.89-80.004 80s35.892 80 80.004 80zM291.248 881.266c-18.124 19.64-52.374 19.64-70.5 0l-191.992-208.164c-18-19.516-16.812-49.914 2.688-67.868 9.246-8.562 20.934-12.758 32.558-12.758 12.938 0 25.812 5.196 35.25 15.446l108.746 117.906v-677.788c0-26.524 21.5-48.040 48-48.040s48 21.516 48 48.040v677.788l108.746-117.906c17.876-19.516 48.25-20.828 67.81-2.688 19.5 17.954 20.686 48.352 2.686 67.868l-191.992 208.164zM863.998 96h-32v240c0 17.312-9.312 33.25-24.37 41.75-15.064 8.626-33.564 8.188-48.314-0.562l-80-48c-22.75-13.688-30.124-43.126-16.5-65.876 13.626-22.688 43-30.124 65.876-16.5l7.312 4.438v-155.25h-32c-26.5 0-48-21.5-48-48s21.5-48 48-48h159.996c26.5 0 48 21.5 48 48s-21.5 48-48 48z" />
<glyph unicode="&#xe963;" glyph-name="arrow-up-arrow-down" horiz-adv-x="896" d="M480.554 605.234c19.5 17.954 20.686 48.36 2.686 67.876l-191.992 208.156c-18.124 19.64-52.374 19.64-70.5 0l-191.992-208.156c-18-19.516-16.812-49.922 2.688-67.876 9.246-8.562 20.934-12.75 32.558-12.75 12.938 0 25.812 5.188 35.25 15.438l108.746 117.906v-677.782c0-26.53 21.5-48.046 48-48.046s48 21.516 48 48.046v677.782l108.746-117.906c17.876-19.516 48.25-20.828 67.81-2.688zM864.554 290.766c-19.56 18.14-49.934 16.828-67.81-2.688l-108.746-117.906v677.782c0 26.53-21.5 48.046-48 48.046s-48-21.516-48-48.046v-677.782l-108.746 117.906c-9.438 10.25-22.312 15.438-35.25 15.438-11.624 0-23.312-4.188-32.558-12.75-19.5-17.954-20.688-48.36-2.688-67.876l191.992-208.156c18.126-19.64 52.376-19.64 70.5 0l191.992 208.156c18 19.516 16.814 49.922-2.686 67.876z" />
<glyph unicode="&#xe964;" glyph-name="arrow-up-a-z" d="M954.912 581.89l-143.996 288.22c-16.246 32.648-69.62 32.648-85.87 0l-143.992-288.22c-11.876-23.71-2.25-52.546 21.5-64.43 23.808-11.882 52.496-2.32 64.37 21.516l10.718 21.454h180.68l10.72-21.454c8.436-16.882 25.37-26.586 42.996-26.586 7.188 0 14.5 1.626 21.374 5.070 23.75 11.884 33.376 40.72 21.5 64.43zM725.64 656.5l42.342 84.758 42.34-84.758h-84.682zM879.978 96.078h-125.87l163.742 210.656c11.25 14.516 13.312 34.156 5.25 50.602-8.062 16.516-24.812 26.96-43.122 26.96h-223.992c-26.5 0-47.996-21.514-47.996-48.038s21.496-48.040 47.996-48.040h125.872l-163.746-210.656c-11.246-14.516-13.308-34.156-5.25-50.602 8.062-16.514 24.812-26.96 43.124-26.96h223.992c26.498 0 47.998 21.516 47.998 48.040s-21.5 48.038-47.998 48.038zM291.248 881.266c-18.124 19.64-52.374 19.64-70.5 0l-191.992-208.156c-18-19.516-16.812-49.922 2.688-67.876 9.246-8.562 20.934-12.75 32.558-12.75 12.938 0 25.812 5.188 35.25 15.438l108.746 117.906v-677.782c0-26.53 21.5-48.046 48-48.046s48 21.516 48 48.046v677.782l108.746-117.906c17.876-19.516 48.25-20.828 67.81-2.688 19.5 17.954 20.686 48.36 2.686 67.876l-191.992 208.156z" />
<glyph unicode="&#xe965;" glyph-name="arrow-up-big-small" d="M831.998 320h-192c-35.198 0-64-28.796-64-64v-192c0-35.204 28.802-64 64-64h192c35.2 0 64 28.796 64 64v192c0 35.204-28.8 64-64 64zM799.998 96h-128v128h128v-128zM959.998 896h-320c-35.348 0-64-28.656-64-64v-320c0-35.344 28.652-64 64-64h320c35.348 0 64 28.656 64 64v320c0 35.344-28.652 64-64 64zM927.998 544h-256v256h256v-256zM291.248 881.266c-18.124 19.64-52.374 19.64-70.5 0l-191.992-208.156c-18-19.516-16.812-49.922 2.688-67.876 9.246-8.562 20.934-12.75 32.558-12.75 12.938 0 25.812 5.188 35.25 15.438l108.746 117.906v-677.782c0-26.53 21.5-48.046 48-48.046s48 21.516 48 48.046v677.782l108.746-117.906c17.876-19.516 48.25-20.828 67.81-2.688 19.5 17.954 20.686 48.36 2.686 67.876l-191.992 208.156z" />
<glyph unicode="&#xe966;" glyph-name="arrow-up-from-bracket" horiz-adv-x="896" d="M848 320c26.508 0 48-21.492 48-48v-144c0-106.040-85.96-192-192-192h-512c-106.040 0-192 85.96-192 192v144c0 26.508 21.484 48 48 48 26.508 0 48-21.492 48-48v-144c0-52.8 43.204-96 96-96h512c52.796 0 96 43.2 96 96v144c0 26.508 21.484 48 48 48zM415.124 946.922l-272-255.994c-19.374-18.188-20.248-48.562-2.062-67.812 18.126-19.312 48.5-20.248 67.814-2.062l191.124 179.832v-496.888c0-26.498 21.5-47.998 48-47.998s48 21.5 48 47.998v496.888l191.124-179.832c19.314-18.186 49.688-17.25 67.814 2.062 8.75 9.25 13.062 21.062 13.062 32.876 0 12.748-5.062 25.498-15.124 34.936l-272 255.994c-18.438 17.438-47.314 17.438-65.752 0z" />
<glyph unicode="&#xe967;" glyph-name="arrow-up-from-dotted-line" horiz-adv-x="896" d="M448 128c-35.348 0-64-28.656-64-64s28.652-64 64-64 64 28.656 64 64-28.652 64-64 64zM64 128c-35.348 0-64-28.656-64-64s28.652-64 64-64 64 28.656 64 64-28.652 64-64 64zM256 128c-35.348 0-64-28.656-64-64s28.652-64 64-64 64 28.656 64 64-28.652 64-64 64zM640 128c-35.348 0-64-28.656-64-64s28.652-64 64-64 64 28.656 64 64-28.652 64-64 64zM832 128c-35.348 0-64-28.656-64-64s28.652-64 64-64 64 28.656 64 64-28.652 64-64 64zM482.938 881.454c-18.126 19.398-51.75 19.398-69.876 0l-256-272.414c-18.186-19.344-17.25-49.766 2.062-67.916 19.25-18.218 49.626-17.342 67.814 2.064l173.062 184.108v-423.218c0-26.546 21.5-48.078 48-48.078s48 21.532 48 48.078v423.218l173.062-184.108c9.438-10.078 22.188-15.148 34.938-15.148 11.812 0 23.624 4.32 32.876 13.086 19.312 18.148 20.248 48.57 2.062 67.914l-256 272.414z" />
<glyph unicode="&#xe968;" glyph-name="arrow-up-from-line" horiz-adv-x="768" d="M720 96.064h-672c-26.5 0-48-21.514-48-48.032s21.5-48.032 48-48.032h672c26.5 0 48 21.514 48 48.032s-21.5 48.032-48 48.032zM162.938 543.486l173.062 183.95v-487.276c0-26.518 21.5-48.032 48-48.032s48 21.514 48 48.032v487.276l173.062-183.95c9.438-10.070 22.188-15.136 34.938-15.136 11.812 0 23.624 4.316 32.876 13.072 19.312 18.136 20.248 48.532 2.062 67.856l-256 272.182c-18.126 19.386-51.75 19.386-69.876 0l-256-272.182c-18.186-19.324-17.25-49.72 2.062-67.856 19.252-18.2 49.626-17.324 67.814 2.064z" />
<glyph unicode="&#xe969;" glyph-name="arrow-up-from-square" horiz-adv-x="896" d="M768 640.494h-16c-26.508 0-48-21.498-48-48.034 0-26.526 21.492-48.032 48-48.032h16c17.672 0 32-14.34 32-32.024v-448.314c0-17.684-14.328-32.022-32-32.022h-640c-17.672 0-32 14.338-32 32.022v448.314c0 17.684 14.328 32.024 32 32.024h16c26.508 0 48 21.506 48 48.032 0 26.536-21.492 48.034-48 48.034h-16c-70.692 0-128-57.344-128-128.090v-448.314c0-70.738 57.308-128.090 128-128.090h640c70.692 0 128 57.352 128 128.090v448.314c0 70.746-57.308 128.090-128 128.090zM256.020 656.45c12.94 0 25.818 5.23 35.23 15.504l108.75 117.896v-469.58c0-26.518 21.5-48.034 48-48.034s48 21.516 48 48.034v469.58l108.75-117.896c9.438-10.258 22.312-15.448 35.25-15.448 26.46 0 48.006 21.466 48.006 48.006 0 11.66-4.22 23.36-12.756 32.612l-192 208.146c-9.062 9.82-22.156 14.73-35.25 14.73s-26.188-4.91-35.25-14.73l-192-208.146c-8.536-9.252-12.756-20.952-12.756-32.612 0-26.732 21.802-48.062 48.026-48.062z" />
<glyph unicode="&#xe96a;" glyph-name="arrow-up-left" horiz-adv-x="768" d="M689.938 142.062c-9.376-9.374-21.656-14.062-33.938-14.062s-24.562 4.688-33.938 14.062l-462.062 462.062v-364.124c0-26.5-21.5-48-48-48s-48 21.5-48 48v480c0 26.5 21.5 48 48 48h480c26.5 0 48-21.5 48-48s-21.5-48-48-48h-364.124l462.062-462.062c18.75-18.75 18.75-49.126 0-67.876z" />
<glyph unicode="&#xe96b;" glyph-name="arrow-up-left-from-circle" d="M624 288c12.312 0 24.562 4.688 33.938 14.062 18.75 18.75 18.75 49.126 0 67.876l-494.062 494.062h220.124c26.5 0 48 21.5 48 48s-21.5 48-48 48h-336c-26.5 0-48-21.5-48-48v-336c0-26.5 21.5-48 48-48s48 21.5 48 48v220.124l494.062-494.062c9.376-9.374 21.626-14.062 33.938-14.062zM576 832c-23.876 0-47.938-1.876-71.562-5.688-26.188-4.124-44-28.75-39.814-54.936 4.126-26.188 28.626-44.438 54.938-39.814 18.626 2.938 37.626 4.438 56.438 4.438 194.062 0 352-157.938 352-352s-157.938-352-352-352-352 157.938-352 352c0 18.812 1.5 37.812 4.438 56.438 4.186 26.186-13.626 50.812-39.814 54.936-26.374 4.502-50.748-13.624-54.936-39.812-3.812-23.624-5.688-47.686-5.688-71.562 0-247 201-448 448-448s448 201 448 448-201 448-448 448z" />
<glyph unicode="&#xe96c;" glyph-name="arrow-up-long" horiz-adv-x="640" d="M625.936 620.126c-9.376-9.376-21.626-14.064-33.938-14.064s-24.562 4.688-33.938 14.064l-190.062 190.062v-812.126c0-26.5-21.5-48-48-48s-48 21.5-48 48v812.126l-190.062-190.062c-18.752-18.75-49.126-18.75-67.876 0s-18.75 49.124 0 67.874l272 272c18.75 18.75 49.124 18.75 67.876 0l272-272c18.75-18.75 18.75-49.124 0-67.874z" />
<glyph unicode="&#xe96d;" glyph-name="arrow-up-right" horiz-adv-x="768" d="M704 720v-480c0-26.5-21.5-48-48-48s-48 21.5-48 48v364.124l-462.062-462.062c-9.376-9.374-21.656-14.062-33.938-14.062s-24.562 4.688-33.938 14.062c-18.75 18.75-18.75 49.126 0 67.876l462.062 462.062h-364.124c-26.5 0-48 21.5-48 48s21.5 48 48 48h480c26.5 0 48-21.5 48-48z" />
<glyph unicode="&#xe96e;" glyph-name="arrow-up-right-and-arrow-down-left-from-center" d="M994.344 956.296c-5.868 2.422-12.094 3.704-18.344 3.704h-288c-26.5 0-48-21.5-48-48s21.5-48 48-48h172.124l-270.062-270.062c-18.75-18.75-18.75-49.126 0-67.876s49.126-18.75 67.876 0l270.062 270.062v-172.124c0-26.5 21.5-48 48-48s48 21.5 48 48v288c0 6.266-1.282 12.5-3.71 18.36-4.868 11.726-14.22 21.070-25.946 25.936zM29.656-60.296c5.868-2.422 12.094-3.704 18.344-3.704h288c26.5 0 48 21.5 48 48s-21.5 48-48 48h-172.124l270.062 270.062c18.75 18.75 18.75 49.126 0 67.876s-49.126 18.75-67.876 0l-270.062-270.062v172.124c0 26.5-21.5 48-48 48s-48-21.5-48-48v-288c0-6.266 1.282-12.5 3.71-18.36 4.868-11.726 14.22-21.070 25.946-25.936z" />
<glyph unicode="&#xe96f;" glyph-name="arrow-up-right-from-square" d="M784 320c-26.5 0-48-21.5-48-48v-224c0-8.812-7.188-16-16-16h-608c-8.812 0-16 7.188-16 16v608c0 8.812 7.188 16 16 16h224c26.5 0 48 21.5 48 48s-21.5 48-48 48h-224c-61.75 0-112-50.25-112-112v-608c0-61.75 50.25-112 112-112h608c61.75 0 112 50.25 112 112v224c0 26.5-21.5 48-48 48zM976 960h-336c-26.5 0-48-21.5-48-48s21.5-48 48-48h220.124l-494.062-494.062c-18.75-18.75-18.75-49.126 0-67.876 9.376-9.374 21.626-14.062 33.938-14.062s24.562 4.688 33.938 14.062l494.062 494.062v-220.124c0-26.5 21.5-48 48-48s48 21.5 48 48v336c0 26.5-21.5 48-48 48z" />
<glyph unicode="&#xe970;" glyph-name="arrow-up-short-wide" horiz-adv-x="1152" d="M623.998 768.594h96c26.496 0 47.996 21.516 47.996 48.030 0 26.524-21.5 48.040-47.996 48.040h-96c-26.5 0-48-21.516-48-48.040 0-26.514 21.5-48.030 48-48.030zM623.998 256.204h351.996c26.5 0 48 21.514 48 48.030s-21.5 48.032-48 48.032h-351.996c-26.5 0-48-21.516-48-48.032s21.5-48.030 48-48.030zM623.998 512.39h223.996c26.5 0 48 21.516 48 48.040s-21.5 48.038-48 48.038h-223.996c-26.5 0-48-21.514-48-48.038s21.5-48.040 48-48.040zM1103.99 96.078h-479.992c-26.5 0-48-21.516-48-48.038s21.5-48.040 48-48.040h479.992c26.5 0 48 21.516 48 48.040s-21.5 48.038-48 48.038zM291.248 881.266c-18.124 19.64-52.374 19.64-70.5 0l-191.992-208.156c-18-19.516-16.812-49.922 2.688-67.876 9.246-8.562 20.934-12.75 32.558-12.75 12.938 0 25.812 5.188 35.25 15.438l108.746 117.906v-677.782c0-26.53 21.5-48.046 48-48.046s48 21.516 48 48.046v677.782l108.746-117.906c17.876-19.516 48.25-20.828 67.81-2.688 19.5 17.954 20.686 48.36 2.686 67.876l-191.992 208.156z" />
<glyph unicode="&#xe971;" glyph-name="arrow-up-small-big" d="M959.998 448h-320c-35.348 0-64-28.656-64-64v-320c0-35.344 28.652-64 64-64h320c35.348 0 64 28.656 64 64v320c0 35.344-28.652 64-64 64zM927.998 96h-256v256h256v-256zM639.998 576h192c35.2 0 64 28.796 64 64v192c0 35.204-28.8 64-64 64h-192c-35.198 0-64-28.796-64-64v-192c0-35.204 28.802-64 64-64zM671.998 800h128v-128h-128v128zM291.248 881.266c-18.124 19.64-52.374 19.64-70.5 0l-191.992-208.156c-18-19.516-16.812-49.922 2.688-67.876 9.246-8.562 20.934-12.75 32.558-12.75 12.938 0 25.812 5.188 35.25 15.438l108.746 117.906v-677.782c0-26.53 21.5-48.046 48-48.046s48 21.516 48 48.046v677.782l108.746-117.906c17.876-19.516 48.25-20.828 67.81-2.688 19.5 17.954 20.686 48.36 2.686 67.876l-191.992 208.156z" />
<glyph unicode="&#xe972;" glyph-name="arrow-up-square-triangle" d="M640.006 512h256.004c35.348 0 64 28.656 64 64v256c0 35.344-28.652 64-64 64h-256.004c-35.348 0-64-28.656-64-64v-256c0-35.344 28.652-64 64-64zM672.006 800h192.004v-192h-192.004v192zM984.264 82.25l-166.254 274.25c-10.75 17.25-29.75 27.5-50 27.5-20.254 0-39.004-10.25-49.754-27.5l-166.504-274.25c-22-36.5 5.5-82.25 50.004-82.25h332.504c44.504 0 72.004 45.75 50.004 82.25zM672.506 96l95.504 157.75 95.5-157.75h-191.004zM291.248 881.266c-18.124 19.64-52.374 19.64-70.5 0l-191.992-208.164c-18-19.516-16.812-49.914 2.688-67.868 19.558-18.14 49.934-16.828 67.808 2.688l108.746 117.906v-677.788c0-26.524 21.5-48.040 48-48.040s48 21.516 48 48.040v677.788l108.746-117.906c9.438-10.25 22.314-15.446 35.25-15.446 11.626 0 23.314 4.196 32.56 12.758 19.5 17.954 20.686 48.352 2.686 67.868l-191.992 208.164z" />
<glyph unicode="&#xe973;" glyph-name="arrow-up-to-dotted-line" horiz-adv-x="896" d="M448 768.002c35.348 0 64 28.656 64 64s-28.652 64-64 64-64-28.656-64-64 28.652-64 64-64zM832 768.002c35.348 0 64 28.656 64 64s-28.652 64-64 64-64-28.656-64-64 28.652-64 64-64zM640 768.002c35.348 0 64 28.656 64 64s-28.652 64-64 64-64-28.656-64-64 28.652-64 64-64zM256 768.002c35.348 0 64 28.656 64 64s-28.652 64-64 64-64-28.656-64-64 28.652-64 64-64zM64 768.002c35.348 0 64 28.656 64 64s-28.652 64-64 64-64-28.656-64-64 28.652-64 64-64zM482.938 657.454c-18.126 19.398-51.75 19.398-69.876 0l-256-272.414c-18.188-19.344-17.25-49.766 2.062-67.914 19.25-18.22 49.626-17.344 67.814 2.062l173.062 184.108v-423.218c0-26.546 21.5-48.078 48-48.078s48 21.532 48 48.078v423.218l173.062-184.108c9.438-10.078 22.188-15.148 34.938-15.148 11.812 0 23.624 4.32 32.876 13.086 19.312 18.148 20.248 48.57 2.062 67.914l-256 272.414z" />
<glyph unicode="&#xe974;" glyph-name="arrow-up-to-line" horiz-adv-x="768" d="M48 799.936h672c26.5 0 48 21.514 48 48.032s-21.5 48.032-48 48.032h-672c-26.5 0-48-21.514-48-48.032s21.5-48.032 48-48.032zM162.938 351.654l173.062 184.106v-487.688c0-26.54 21.5-48.072 48-48.072s48 21.532 48 48.072v487.688l173.062-184.106c9.438-10.078 22.188-15.148 34.938-15.148 11.812 0 23.624 4.32 32.876 13.082 19.312 18.154 20.248 48.574 2.062 67.916l-256 272.41c-18.126 19.404-51.75 19.404-69.876 0l-256-272.41c-18.186-19.342-17.25-49.762 2.064-67.916 19.25-18.214 49.624-17.338 67.812 2.066z" />
<glyph unicode="&#xe975;" glyph-name="arrow-up-triangle-square" d="M896.010 384h-256.004c-35.348 0-64-28.656-64-64v-256c0-35.344 28.652-64 64-64h256.004c35.348 0 64 28.656 64 64v256c0 35.344-28.652 64-64 64zM864.010 96h-192.004v192h192.004v-192zM984.264 594.25l-166.254 274.25c-10.75 17.25-29.75 27.5-50 27.5-20.254 0-39.004-10.25-49.754-27.5l-166.504-274.25c-22-36.5 5.5-82.25 50.004-82.25h332.504c44.504 0 72.004 45.75 50.004 82.25zM672.506 608l95.504 157.75 95.5-157.75h-191.004zM291.248 881.266c-18.124 19.64-52.374 19.64-70.5 0l-191.992-208.164c-18-19.516-16.812-49.914 2.688-67.868 19.558-18.14 49.934-16.828 67.808 2.688l108.746 117.906v-677.788c0-26.524 21.5-48.040 48-48.040s48 21.516 48 48.040v677.788l108.746-117.906c9.438-10.25 22.314-15.446 35.25-15.446 11.626 0 23.314 4.196 32.56 12.758 19.5 17.954 20.686 48.352 2.686 67.868l-191.992 208.164z" />
<glyph unicode="&#xe976;" glyph-name="arrow-up-wide-short" horiz-adv-x="1152" d="M1103.99 864.664h-479.992c-26.5 0-48-21.516-48-48.040 0-26.514 21.5-48.030 48-48.030h479.992c26.5 0 48 21.516 48 48.030 0 26.524-21.5 48.040-48 48.040zM719.998 96.078h-96c-26.5 0-48-21.516-48-48.038s21.5-48.040 48-48.040h96c26.496 0 47.996 21.516 47.996 48.040s-21.5 48.038-47.996 48.038zM847.994 352.266h-223.996c-26.5 0-48-21.516-48-48.032s21.5-48.030 48-48.030h223.996c26.5 0 48 21.514 48 48.030s-21.5 48.032-48 48.032zM975.994 608.468h-351.996c-26.5 0-48-21.514-48-48.038s21.5-48.040 48-48.040h351.996c26.5 0 48 21.516 48 48.040s-21.5 48.038-48 48.038zM291.248 881.266c-18.124 19.64-52.374 19.64-70.5 0l-191.992-208.156c-18-19.516-16.812-49.922 2.688-67.876 9.246-8.562 20.934-12.75 32.558-12.75 12.938 0 25.812 5.188 35.25 15.438l108.746 117.906v-677.782c0-26.53 21.5-48.046 48-48.046s48 21.516 48 48.046v677.782l108.746-117.906c17.876-19.516 48.25-20.828 67.81-2.688 19.5 17.954 20.686 48.36 2.686 67.876l-191.992 208.156z" />
<glyph unicode="&#xe977;" glyph-name="arrow-up-z-a" d="M655.986 800h125.872l-163.746-210.484c-11.246-14.5-13.308-34.126-5.25-50.562 8.062-16.5 24.812-26.938 43.124-26.938h223.992c26.498 0 47.998 21.5 47.998 48s-21.5 48-47.998 48h-125.87l163.742 210.484c11.25 14.5 13.312 34.124 5.25 50.562-8.062 16.5-24.812 26.938-43.122 26.938h-223.992c-26.5 0-47.996-21.5-47.996-48s21.496-48 47.996-48zM954.912 69.468l-143.996 287.992c-16.246 32.618-69.62 32.618-85.87 0l-143.992-287.992c-11.876-23.686-2.25-52.5 21.5-64.374 23.808-11.876 52.496-2.312 64.37 21.5l10.718 21.438h180.68l10.72-21.438c8.436-16.876 25.37-26.562 42.996-26.562 7.188 0 14.5 1.624 21.374 5.062 23.75 11.874 33.376 40.688 21.5 64.374zM725.64 144.032l42.342 84.686 42.34-84.686h-84.682zM291.248 881.266c-18.124 19.64-52.374 19.64-70.5 0l-191.992-208.156c-18-19.516-16.812-49.922 2.688-67.876 9.246-8.562 20.934-12.75 32.558-12.75 12.938 0 25.812 5.188 35.25 15.438l108.746 117.906v-677.782c0-26.53 21.5-48.046 48-48.046s48 21.516 48 48.046v677.782l108.746-117.906c17.876-19.516 48.25-20.828 67.81-2.688 19.5 17.954 20.686 48.36 2.686 67.876l-191.992 208.156z" />
<glyph unicode="&#xe978;" glyph-name="asterisk" horiz-adv-x="896" d="M836.434 224c-8.874-15.376-25-24-41.624-24-8.126 0-16.376 2.062-23.938 6.438l-274.438 158.434v-316.872c0-26.5-21.5-48-48-48s-48 21.5-48 48v316.872l-274.438-158.434c-7.562-4.376-15.812-6.438-23.936-6.438-16.626 0-32.75 8.624-41.626 24-13.25 22.938-5.374 52.312 17.562 65.562l274.446 158.438-274.446 158.438c-22.936 13.25-30.812 42.624-17.562 65.562 13.188 22.876 42.562 30.938 65.562 17.562l274.438-158.434v316.872c0 26.5 21.5 48 48 48s48-21.5 48-48v-316.872l274.438 158.434c23.062 13.376 52.312 5.314 65.562-17.562 13.25-22.938 5.376-52.312-17.562-65.562l-274.446-158.438 274.446-158.438c22.938-13.25 30.812-42.624 17.562-65.562z" />
<glyph unicode="&#xe979;" glyph-name="at" d="M526.718 927.758c-130.28 4.124-254.25-44.032-348.094-135.090-94.562-91.75-146.624-214.996-146.624-347.054 0-237.18 175.782-442.27 408.906-477.082 2.406-0.376 4.782-0.532 7.156-0.532 23.376 0 43.844 17.094 47.406 40.906 3.908 26.22-14.156 50.656-40.374 54.562-186.47 27.84-327.094 192.118-327.094 382.146 0 105.87 41.718 204.652 117.468 278.148 75.064 72.812 172.5 111.652 278.376 108.058 205.188-6.218 372.156-187.648 372.156-404.426v-38.094c0-48.902-39.468-88.714-88-88.714s-88 39.812-88 88.714v233.278c0 26.5-21.5 47.996-48 47.996-23.844 0-42.754-17.71-46.488-40.504-36.648 26.152-81.168 41.91-129.512 41.91-123.5 0-224-100.496-224-223.992s100.5-223.996 224-223.996c61.496 0 117.246 24.968 157.77 65.238 32.816-50.8 89.546-84.64 154.23-84.64 101.468 0 184 82.87 184 184.71v38.094c0 268.148-208.718 492.614-465.282 500.364zM496 319.992c-70.594 0-128 57.402-128 127.996 0 70.59 57.406 127.996 128 127.996s128-57.406 128-127.996c0-70.594-57.406-127.996-128-127.996z" />
</font>
</defs>
</svg>
